SplineFontDB: 3.0
FontName: Jaldi-Regular
FullName: Jaldi Regular
FamilyName: Jaldi
Weight: Regular
Copyright: Copyright (c) 2011-2015, Omnibus-Type (www.omnibus-type.com omnibus.type@gmail.com) with Reserved Font Name 'Jaldi' and 'Asap'
Version: 001.001
ItalicAngle: 0
UnderlinePosition: -204.8
UnderlineWidth: 204.8
Ascent: 3269
Descent: 827
InvalidEm: 0
sfntRevision: 0x00010041
LayerCount: 2
Layer: 0 1 "Back" 1
Layer: 1 1 "Fore" 0
XUID: [1021 505 -982332716 15641833]
FSType: 8
OS2Version: 3
OS2_WeightWidthSlopeOnly: 0
OS2_UseTypoMetrics: 1
CreationTime: 1421254212
ModificationTime: 1421285320
PfmFamily: 33
TTFWeight: 400
TTFWidth: 5
LineGap: 0
VLineGap: 0
Panose: 2 15 5 4 3 2 2 6 2 3
OS2TypoAscent: 2523
OS2TypoAOffset: 0
OS2TypoDescent: -1569
OS2TypoDOffset: 0
OS2TypoLinegap: 0
OS2WinAscent: 2523
OS2WinAOffset: 0
OS2WinDescent: 1569
OS2WinDOffset: 0
HheadAscent: 2523
HheadAOffset: 0
HheadDescent: -1569
HheadDOffset: 0
OS2SubXSize: 1237
OS2SubYSize: 1143
OS2SubXOff: 0
OS2SubYOff: 139
OS2SupXSize: 1237
OS2SupYSize: 1143
OS2SupXOff: 0
OS2SupYOff: 668
OS2StrikeYSize: 205
OS2StrikeYPos: 598
OS2CapHeight: 0
OS2XHeight: 0
OS2Vendor: 'OMNI'
OS2CodePages: 20000193.00000000
OS2UnicodeRanges: 20008007.00000000.00000000.00000000
Lookup: 1 0 0 "'aalt' Access All Alternates lookup 0" { "'aalt' Access All Alternates lookup 0 subtable"  } ['aalt' ('DFLT' <'dflt' > 'dev2' <'MAR ' 'NEP ' 'dflt' > 'deva' <'MAR ' 'NEP ' 'dflt' > 'grek' <'dflt' > 'latn' <'CAT ' 'GUA ' 'MOL ' 'NLD ' 'PLK ' 'ROM ' 'TRK ' 'dflt' > ) ]
Lookup: 3 0 0 "'aalt' Access All Alternates lookup 1" { "'aalt' Access All Alternates lookup 1 subtable"  } ['aalt' ('DFLT' <'dflt' > 'dev2' <'MAR ' 'NEP ' 'dflt' > 'deva' <'MAR ' 'NEP ' 'dflt' > 'grek' <'dflt' > 'latn' <'CAT ' 'GUA ' 'MOL ' 'NLD ' 'PLK ' 'ROM ' 'TRK ' 'dflt' > ) ]
Lookup: 4 0 0 "Ligature Substitution lookup 2" { "Ligature Substitution lookup 2 subtable"  } []
Lookup: 4 0 0 "Ligature Substitution lookup 3" { "Ligature Substitution lookup 3 subtable"  } []

StartChar: .notdef
Encoding: 65536 -1 0
Width: 983
VWidth: 1908
Flags: MW
HStem: 0 96<166 815 166 969> 1155 180<106 106 870 870> 1241 94<164 813 164 164>
VStem: 14 92<182 182 182 1155> 870 98<182 1155 1155 1155>
LayerCount: 2
Back
Fore
SplineSet
14 0 m 1,0,-1
 14 1335 l 1,1,-1
 969 1335 l 1,2,-1
 969 0 l 1,3,-1
 14 0 l 1,0,-1
492 754 m 1,4,-1
 813 1241 l 1,5,-1
 164 1241 l 1,6,-1
 492 754 l 1,4,-1
106 182 m 1,7,-1
 434 668 l 1,8,-1
 106 1155 l 1,9,-1
 106 182 l 1,7,-1
870 182 m 1,10,-1
 870 1155 l 1,11,-1
 547 668 l 1,12,-1
 870 182 l 1,10,-1
166 96 m 1,13,-1
 815 96 l 1,14,-1
 489 582 l 1,15,-1
 166 96 l 1,13,-1
EndSplineSet
EndChar

StartChar: A
Encoding: 65 65 2
Width: 1171
VWidth: 1908
GlyphClass: 2
Flags: MW
HStem: -4 86G<76 104 104 115 1031 1051 1051 1065> 340 145<352 809 352 860 299 809> 1165 174<582 586 582 582>
VStem: 23 1124<19 33 19 33>
AnchorPoint: "Anchor-1" 586 1335 basechar 0
AnchorPoint: "Anchor-0" 594 0 basechar 0
LayerCount: 2
Back
Fore
SplineSet
104 -4 m 2,0,1
 23 -4 23 -4 23 29 c 0,2,3
 23 37 23 37 29 55 c 2,4,-1
 481 1309 l 2,5,6
 491 1339 491 1339 557 1339 c 2,7,-1
 612 1339 l 2,8,9
 681 1339 681 1339 688 1309 c 2,10,-1
 1141 53 l 2,11,12
 1147 38 1147 38 1147 29 c 0,13,14
 1147 -4 1147 -4 1065 -4 c 2,15,-1
 1051 -4 l 2,16,17
 984 -4 984 -4 973 27 c 2,18,-1
 860 340 l 1,19,-1
 299 340 l 1,20,-1
 190 27 l 2,21,22
 179 -4 179 -4 115 -4 c 2,23,-1
 104 -4 l 2,0,1
352 485 m 1,24,-1
 809 485 l 1,25,-1
 608 1053 l 2,26,27
 599 1084 599 1084 586 1165 c 1,28,-1
 582 1165 l 1,29,30
 572 1103 572 1103 553 1053 c 2,31,-1
 352 485 l 1,24,-1
EndSplineSet
Substitution2: "Single Substitution lookup 49 subtable" ordfeminine
Substitution2: "'aalt' Access All Alternates lookup 0 subtable" ordfeminine
Position2: "'cpsp' Capital Spacing lookup 0 subtable" dx=20 dy=0 dh=41 dv=0
EndChar

StartChar: Aacute
Encoding: 193 193 3
Width: 1171
VWidth: 1908
GlyphClass: 2
Flags: MW
HStem: -4 86G<76 104 104 115 1031 1051 1051 1065> 340 145<352 809 352 860 299 809> 1165 174<582 586 582 582> 1454 281<538 770>
VStem: 23 1124<19 33 19 33>
AnchorPoint: "Anchor-1" 586 1335 basechar 0
AnchorPoint: "Anchor-0" 594 0 basechar 0
LayerCount: 2
Back
Fore
SplineSet
553 1454 m 0,0,1
 510 1454 510 1454 510 1475 c 0,2,3
 510 1488 510 1488 528.5 1522 c 128,-1,4
 547 1556 547 1556 621 1686 c 0,5,6
 647 1735 647 1735 739 1735 c 128,-1,7
 831 1735 831 1735 831 1710 c 0,8,9
 831 1698 831 1698 810 1671.5 c 128,-1,10
 789 1645 789 1645 716 1562 c 0,11,12
 676 1517 676 1517 651 1489 c 0,13,14
 621 1454 621 1454 553 1454 c 0,0,1
104 -4 m 2,15,16
 23 -4 23 -4 23 29 c 0,17,18
 23 37 23 37 29 55 c 2,19,-1
 481 1309 l 2,20,21
 491 1339 491 1339 557 1339 c 2,22,-1
 612 1339 l 2,23,24
 681 1339 681 1339 688 1309 c 2,25,-1
 1141 53 l 2,26,27
 1147 38 1147 38 1147 29 c 0,28,29
 1147 -4 1147 -4 1065 -4 c 2,30,-1
 1051 -4 l 2,31,32
 984 -4 984 -4 973 27 c 2,33,-1
 860 340 l 1,34,-1
 299 340 l 1,35,-1
 190 27 l 2,36,37
 179 -4 179 -4 115 -4 c 2,38,-1
 104 -4 l 2,15,16
352 485 m 1,39,-1
 809 485 l 1,40,-1
 608 1053 l 2,41,42
 599 1084 599 1084 586 1165 c 1,43,-1
 582 1165 l 1,44,45
 572 1103 572 1103 553 1053 c 2,46,-1
 352 485 l 1,39,-1
EndSplineSet
Position2: "'cpsp' Capital Spacing lookup 0 subtable" dx=20 dy=0 dh=41 dv=0
EndChar

StartChar: Abreve
Encoding: 258 258 4
Width: 1171
VWidth: 1908
GlyphClass: 2
Flags: MW
HStem: -4 86G<76 104 104 115 1031 1051 1051 1065> 340 145<352 809 352 860 299 809> 1165 174<582 586 582 582> 1454 201
VStem: 309 551<1601 1683>
AnchorPoint: "Anchor-1" 586 1618 basechar 0
AnchorPoint: "Anchor-0" 594 0 basechar 0
LayerCount: 2
Back
Fore
SplineSet
586 1454 m 0,0,1
 475 1454 475 1454 392 1512 c 128,-1,2
 309 1570 309 1570 309 1673 c 0,3,4
 309 1702 309 1702 338 1702 c 0,5,6
 350 1702 350 1702 356.5 1698.5 c 128,-1,7
 363 1695 363 1695 365.5 1690.5 c 128,-1,8
 368 1686 368 1686 372.5 1674.5 c 128,-1,9
 377 1663 377 1663 381 1655 c 0,10,11
 421 1581 421 1581 586 1581 c 128,-1,12
 751 1581 751 1581 791 1655 c 0,13,14
 794 1662 794 1662 797.5 1671.5 c 128,-1,15
 801 1681 801 1681 802.5 1685.5 c 128,-1,16
 804 1690 804 1690 807.5 1694.5 c 128,-1,17
 811 1699 811 1699 816.5 1700.5 c 128,-1,18
 822 1702 822 1702 831 1702 c 0,19,20
 848 1702 848 1702 854 1695.5 c 128,-1,21
 860 1689 860 1689 860 1673 c 0,22,23
 860 1604 860 1604 819 1552.5 c 128,-1,24
 778 1501 778 1501 717 1477.5 c 128,-1,25
 656 1454 656 1454 586 1454 c 0,0,1
104 -4 m 2,26,27
 23 -4 23 -4 23 29 c 0,28,29
 23 37 23 37 29 55 c 2,30,-1
 481 1309 l 2,31,32
 491 1339 491 1339 557 1339 c 2,33,-1
 612 1339 l 2,34,35
 681 1339 681 1339 688 1309 c 2,36,-1
 1141 53 l 2,37,38
 1147 38 1147 38 1147 29 c 0,39,40
 1147 -4 1147 -4 1065 -4 c 2,41,-1
 1051 -4 l 2,42,43
 984 -4 984 -4 973 27 c 2,44,-1
 860 340 l 1,45,-1
 299 340 l 1,46,-1
 190 27 l 2,47,48
 179 -4 179 -4 115 -4 c 2,49,-1
 104 -4 l 2,26,27
352 485 m 1,50,-1
 809 485 l 1,51,-1
 608 1053 l 2,52,53
 599 1084 599 1084 586 1165 c 1,54,-1
 582 1165 l 1,55,56
 572 1103 572 1103 553 1053 c 2,57,-1
 352 485 l 1,50,-1
EndSplineSet
Position2: "'cpsp' Capital Spacing lookup 0 subtable" dx=20 dy=0 dh=41 dv=0
EndChar

StartChar: uni1EAE
Encoding: 7854 7854 5
Width: 1171
VWidth: 1908
GlyphClass: 2
Flags: MW
HStem: -4 86G<76 104 104 115 1031 1051 1051 1065> 340 145<352 809 352 860 299 809> 1165 174<582 586 582 582> 1454 180 1626 262<552 738>
VStem: 23 1124<19 33 19 33> 309 551<1589 1662>
AnchorPoint: "Anchor-1" 586 1634 basechar 0
AnchorPoint: "Anchor-0" 594 0 basechar 0
LayerCount: 2
Back
Fore
SplineSet
567 1626 m 0,0,1
 522 1626 522 1626 522 1645 c 0,2,3
 522 1660 522 1660 583 1778 c 0,4,5
 602 1815 602 1815 614 1837 c 0,6,7
 642 1888 642 1888 717 1888 c 0,8,9
 750 1888 750 1888 763 1882.5 c 128,-1,10
 776 1877 776 1877 776 1862 c 0,11,12
 776 1851 776 1851 762.5 1831.5 c 128,-1,13
 749 1812 749 1812 688 1731 c 0,14,15
 678 1717 678 1717 671.5 1709 c 128,-1,16
 665 1701 665 1701 654.5 1687.5 c 128,-1,17
 644 1674 644 1674 635 1661 c 0,18,19
 611 1626 611 1626 567 1626 c 0,0,1
586 1454 m 0,20,21
 516 1454 516 1454 453.5 1476.5 c 128,-1,22
 391 1499 391 1499 350 1545.5 c 128,-1,23
 309 1592 309 1592 309 1653 c 0,24,25
 309 1681 309 1681 338 1681 c 0,26,27
 353 1681 353 1681 357.5 1675.5 c 128,-1,28
 362 1670 362 1670 366.5 1657 c 128,-1,29
 371 1644 371 1644 381 1634 c 0,30,31
 406 1604 406 1604 464 1579 c 128,-1,32
 522 1554 522 1554 586 1554 c 0,33,34
 653 1554 653 1554 710.5 1578 c 128,-1,35
 768 1602 768 1602 791 1634 c 0,36,37
 797 1643 797 1643 801.5 1657 c 128,-1,38
 806 1671 806 1671 811.5 1676 c 128,-1,39
 817 1681 817 1681 831 1681 c 0,40,41
 860 1681 860 1681 860 1653 c 0,42,43
 860 1563 860 1563 777.5 1508.5 c 128,-1,44
 695 1454 695 1454 586 1454 c 0,20,21
104 -4 m 2,45,46
 23 -4 23 -4 23 29 c 0,47,48
 23 37 23 37 29 55 c 2,49,-1
 481 1309 l 2,50,51
 491 1339 491 1339 557 1339 c 2,52,-1
 612 1339 l 2,53,54
 681 1339 681 1339 688 1309 c 2,55,-1
 1141 53 l 2,56,57
 1147 38 1147 38 1147 29 c 0,58,59
 1147 -4 1147 -4 1065 -4 c 2,60,-1
 1051 -4 l 2,61,62
 984 -4 984 -4 973 27 c 2,63,-1
 860 340 l 1,64,-1
 299 340 l 1,65,-1
 190 27 l 2,66,67
 179 -4 179 -4 115 -4 c 2,68,-1
 104 -4 l 2,45,46
352 485 m 1,69,-1
 809 485 l 1,70,-1
 608 1053 l 2,71,72
 599 1084 599 1084 586 1165 c 1,73,-1
 582 1165 l 1,74,75
 572 1103 572 1103 553 1053 c 2,76,-1
 352 485 l 1,69,-1
EndSplineSet
Position2: "'cpsp' Capital Spacing lookup 0 subtable" dx=20 dy=0 dh=41 dv=0
EndChar

StartChar: uni1EB6
Encoding: 7862 7862 6
Width: 1171
VWidth: 1908
GlyphClass: 2
Flags: MW
HStem: -334 139<516 623> -4 86G<76 104 104 115 1031 1051 1051 1065> 340 145<352 809 352 860 299 809> 1165 174<582 586 582 582> 1454 201
VStem: 309 551<1601 1683> 516 160<-293 -195 -305 -182>
AnchorPoint: "Anchor-1" 586 1618 basechar 0
AnchorPoint: "Anchor-0" 594 -389 basechar 0
LayerCount: 2
Back
Fore
SplineSet
586 1454 m 0,0,1
 475 1454 475 1454 392 1512 c 128,-1,2
 309 1570 309 1570 309 1673 c 0,3,4
 309 1702 309 1702 338 1702 c 0,5,6
 350 1702 350 1702 356.5 1698.5 c 128,-1,7
 363 1695 363 1695 365.5 1690.5 c 128,-1,8
 368 1686 368 1686 372.5 1674.5 c 128,-1,9
 377 1663 377 1663 381 1655 c 0,10,11
 421 1581 421 1581 586 1581 c 128,-1,12
 751 1581 751 1581 791 1655 c 0,13,14
 794 1662 794 1662 797.5 1671.5 c 128,-1,15
 801 1681 801 1681 802.5 1685.5 c 128,-1,16
 804 1690 804 1690 807.5 1694.5 c 128,-1,17
 811 1699 811 1699 816.5 1700.5 c 128,-1,18
 822 1702 822 1702 831 1702 c 0,19,20
 848 1702 848 1702 854 1695.5 c 128,-1,21
 860 1689 860 1689 860 1673 c 0,22,23
 860 1604 860 1604 819 1552.5 c 128,-1,24
 778 1501 778 1501 717 1477.5 c 128,-1,25
 656 1454 656 1454 586 1454 c 0,0,1
104 -4 m 2,26,27
 23 -4 23 -4 23 29 c 0,28,29
 23 37 23 37 29 55 c 2,30,-1
 481 1309 l 2,31,32
 491 1339 491 1339 557 1339 c 2,33,-1
 612 1339 l 2,34,35
 681 1339 681 1339 688 1309 c 2,36,-1
 1141 53 l 2,37,38
 1147 38 1147 38 1147 29 c 0,39,40
 1147 -4 1147 -4 1065 -4 c 2,41,-1
 1051 -4 l 2,42,43
 984 -4 984 -4 973 27 c 2,44,-1
 860 340 l 1,45,-1
 299 340 l 1,46,-1
 190 27 l 2,47,48
 179 -4 179 -4 115 -4 c 2,49,-1
 104 -4 l 2,26,27
352 485 m 1,50,-1
 809 485 l 1,51,-1
 608 1053 l 2,52,53
 599 1084 599 1084 586 1165 c 1,54,-1
 582 1165 l 1,55,56
 572 1103 572 1103 553 1053 c 2,57,-1
 352 485 l 1,50,-1
592 -334 m 0,58,59
 516 -334 516 -334 516 -293 c 2,60,-1
 516 -195 l 2,61,62
 516 -154 516 -154 600 -154 c 0,63,64
 676 -154 676 -154 676 -195 c 2,65,-1
 676 -293 l 2,66,67
 676 -334 676 -334 592 -334 c 0,58,59
EndSplineSet
Position2: "'cpsp' Capital Spacing lookup 0 subtable" dx=20 dy=0 dh=41 dv=0
EndChar

StartChar: uni1EB0
Encoding: 7856 7856 7
Width: 1171
VWidth: 1908
GlyphClass: 2
Flags: MW
HStem: -4 86G<76 104 104 115 1031 1051 1051 1065> 340 145<352 809 352 860 299 809> 1165 174<582 586 582 582> 1454 180 1626 262<474 640>
VStem: 23 1124<19 33 19 33> 309 551<1589 1662>
AnchorPoint: "Anchor-1" 586 1634 basechar 0
AnchorPoint: "Anchor-0" 594 0 basechar 0
LayerCount: 2
Back
Fore
SplineSet
625 1626 m 0,0,1
 578 1626 578 1626 557 1661 c 0,2,3
 529 1705 529 1705 490 1763 c 0,4,5
 452 1822 452 1822 443 1837 c 128,-1,6
 434 1852 434 1852 434 1862 c 0,7,8
 434 1877 434 1877 447.5 1882.5 c 128,-1,9
 461 1888 461 1888 502 1888 c 0,10,11
 533 1888 533 1888 559.5 1875.5 c 128,-1,12
 586 1863 586 1863 596 1837 c 0,13,14
 670 1663 670 1663 670 1645 c 0,15,16
 670 1626 670 1626 625 1626 c 0,0,1
586 1454 m 0,17,18
 516 1454 516 1454 453.5 1476.5 c 128,-1,19
 391 1499 391 1499 350 1545.5 c 128,-1,20
 309 1592 309 1592 309 1653 c 0,21,22
 309 1681 309 1681 338 1681 c 0,23,24
 353 1681 353 1681 357.5 1675.5 c 128,-1,25
 362 1670 362 1670 366.5 1657 c 128,-1,26
 371 1644 371 1644 381 1634 c 0,27,28
 406 1604 406 1604 464 1579 c 128,-1,29
 522 1554 522 1554 586 1554 c 0,30,31
 653 1554 653 1554 710.5 1578 c 128,-1,32
 768 1602 768 1602 791 1634 c 0,33,34
 797 1643 797 1643 801.5 1657 c 128,-1,35
 806 1671 806 1671 811.5 1676 c 128,-1,36
 817 1681 817 1681 831 1681 c 0,37,38
 860 1681 860 1681 860 1653 c 0,39,40
 860 1563 860 1563 777.5 1508.5 c 128,-1,41
 695 1454 695 1454 586 1454 c 0,17,18
104 -4 m 2,42,43
 23 -4 23 -4 23 29 c 0,44,45
 23 37 23 37 29 55 c 2,46,-1
 481 1309 l 2,47,48
 491 1339 491 1339 557 1339 c 2,49,-1
 612 1339 l 2,50,51
 681 1339 681 1339 688 1309 c 2,52,-1
 1141 53 l 2,53,54
 1147 38 1147 38 1147 29 c 0,55,56
 1147 -4 1147 -4 1065 -4 c 2,57,-1
 1051 -4 l 2,58,59
 984 -4 984 -4 973 27 c 2,60,-1
 860 340 l 1,61,-1
 299 340 l 1,62,-1
 190 27 l 2,63,64
 179 -4 179 -4 115 -4 c 2,65,-1
 104 -4 l 2,42,43
352 485 m 1,66,-1
 809 485 l 1,67,-1
 608 1053 l 2,68,69
 599 1084 599 1084 586 1165 c 1,70,-1
 582 1165 l 1,71,72
 572 1103 572 1103 553 1053 c 2,73,-1
 352 485 l 1,66,-1
EndSplineSet
Position2: "'cpsp' Capital Spacing lookup 0 subtable" dx=20 dy=0 dh=41 dv=0
EndChar

StartChar: uni1EB2
Encoding: 7858 7858 8
Width: 1171
VWidth: 1908
GlyphClass: 2
Flags: MW
HStem: -4 86G<76 104 104 115 1031 1051 1051 1065> 340 145<352 809 352 860 299 809> 1165 174<582 586 582 582> 1454 180 1831 92<541 579>
VStem: 309 551<1589 1662> 629 111<1766 1796>
AnchorPoint: "Anchor-1" 586 1901 basechar 0
AnchorPoint: "Anchor-0" 594 0 basechar 0
LayerCount: 2
Back
Fore
SplineSet
594 1628 m 0,0,1
 565 1628 565 1628 543.5 1640.5 c 128,-1,2
 522 1653 522 1653 522 1667 c 0,3,4
 522 1683 522 1683 571 1708 c 0,5,6
 629 1739 629 1739 629 1780 c 0,7,8
 629 1804 629 1804 609 1817.5 c 128,-1,9
 589 1831 589 1831 559 1831 c 0,10,11
 533 1831 533 1831 513.5 1824.5 c 128,-1,12
 494 1818 494 1818 484 1812 c 128,-1,13
 474 1806 474 1806 471 1806 c 0,14,15
 461 1806 461 1806 443.5 1830 c 128,-1,16
 426 1854 426 1854 426 1868 c 0,17,18
 426 1888 426 1888 474 1905.5 c 128,-1,19
 522 1923 522 1923 573 1923 c 0,20,21
 611 1923 611 1923 646 1912 c 128,-1,22
 681 1901 681 1901 710 1870 c 128,-1,23
 739 1839 739 1839 739 1792 c 0,24,25
 739 1726 739 1726 672 1671 c 0,26,27
 654 1654 654 1654 628.5 1641 c 128,-1,28
 603 1628 603 1628 594 1628 c 0,0,1
586 1454 m 0,29,30
 516 1454 516 1454 453.5 1476.5 c 128,-1,31
 391 1499 391 1499 350 1545.5 c 128,-1,32
 309 1592 309 1592 309 1653 c 0,33,34
 309 1681 309 1681 338 1681 c 0,35,36
 353 1681 353 1681 357.5 1675.5 c 128,-1,37
 362 1670 362 1670 366.5 1657 c 128,-1,38
 371 1644 371 1644 381 1634 c 0,39,40
 406 1604 406 1604 464 1579 c 128,-1,41
 522 1554 522 1554 586 1554 c 0,42,43
 653 1554 653 1554 710.5 1578 c 128,-1,44
 768 1602 768 1602 791 1634 c 0,45,46
 797 1643 797 1643 801.5 1657 c 128,-1,47
 806 1671 806 1671 811.5 1676 c 128,-1,48
 817 1681 817 1681 831 1681 c 0,49,50
 860 1681 860 1681 860 1653 c 0,51,52
 860 1563 860 1563 777.5 1508.5 c 128,-1,53
 695 1454 695 1454 586 1454 c 0,29,30
104 -4 m 2,54,55
 23 -4 23 -4 23 29 c 0,56,57
 23 37 23 37 29 55 c 2,58,-1
 481 1309 l 2,59,60
 491 1339 491 1339 557 1339 c 2,61,-1
 612 1339 l 2,62,63
 681 1339 681 1339 688 1309 c 2,64,-1
 1141 53 l 2,65,66
 1147 38 1147 38 1147 29 c 0,67,68
 1147 -4 1147 -4 1065 -4 c 2,69,-1
 1051 -4 l 2,70,71
 984 -4 984 -4 973 27 c 2,72,-1
 860 340 l 1,73,-1
 299 340 l 1,74,-1
 190 27 l 2,75,76
 179 -4 179 -4 115 -4 c 2,77,-1
 104 -4 l 2,54,55
352 485 m 1,78,-1
 809 485 l 1,79,-1
 608 1053 l 2,80,81
 599 1084 599 1084 586 1165 c 1,82,-1
 582 1165 l 1,83,84
 572 1103 572 1103 553 1053 c 2,85,-1
 352 485 l 1,78,-1
EndSplineSet
Position2: "'cpsp' Capital Spacing lookup 0 subtable" dx=20 dy=0 dh=41 dv=0
EndChar

StartChar: uni1EB4
Encoding: 7860 7860 9
Width: 1171
VWidth: 1908
GlyphClass: 2
Flags: MW
HStem: -4 86G<76 104 104 115 1031 1051 1051 1065> 340 145<352 809 352 860 299 809> 1165 174<582 586 582 582> 1454 180 1767 106<694 751 694 766> 1849 106<410 465>
VStem: 23 1124<19 33 19 33> 309 551<1589 1662>
AnchorPoint: "Anchor-1" 586 1634 basechar 0
AnchorPoint: "Anchor-0" 594 0 basechar 0
LayerCount: 2
Back
Fore
SplineSet
303 1769 m 1,0,-1
 285 1776 l 2,1,2
 268 1784 268 1784 268 1800 c 0,3,4
 268 1810 268 1810 274 1825 c 0,5,6
 301 1895 301 1895 339.5 1925.5 c 128,-1,7
 378 1956 378 1956 434 1956 c 0,8,9
 486 1956 486 1956 591 1915 c 128,-1,10
 696 1874 696 1874 735 1874 c 0,11,12
 758 1874 758 1874 775 1886 c 128,-1,13
 792 1898 792 1898 811 1929 c 0,14,15
 828 1958 828 1958 846 1958 c 0,16,17
 852 1958 852 1958 864 1952 c 2,18,-1
 877 1946 l 2,19,20
 897 1940 897 1940 897 1923 c 0,21,22
 897 1914 897 1914 891 1896 c 0,23,24
 862 1827 862 1827 823.5 1797 c 128,-1,25
 785 1767 785 1767 731 1767 c 0,26,27
 675 1767 675 1767 568.5 1808 c 128,-1,28
 462 1849 462 1849 424 1849 c 0,29,30
 403 1849 403 1849 387 1836 c 128,-1,31
 371 1823 371 1823 352 1792 c 0,32,33
 335 1763 335 1763 319 1763 c 0,34,35
 312 1763 312 1763 303 1769 c 1,0,-1
586 1454 m 0,36,37
 516 1454 516 1454 453.5 1476.5 c 128,-1,38
 391 1499 391 1499 350 1545.5 c 128,-1,39
 309 1592 309 1592 309 1653 c 0,40,41
 309 1681 309 1681 338 1681 c 0,42,43
 353 1681 353 1681 357.5 1675.5 c 128,-1,44
 362 1670 362 1670 366.5 1657 c 128,-1,45
 371 1644 371 1644 381 1634 c 0,46,47
 406 1604 406 1604 464 1579 c 128,-1,48
 522 1554 522 1554 586 1554 c 0,49,50
 653 1554 653 1554 710.5 1578 c 128,-1,51
 768 1602 768 1602 791 1634 c 0,52,53
 797 1643 797 1643 801.5 1657 c 128,-1,54
 806 1671 806 1671 811.5 1676 c 128,-1,55
 817 1681 817 1681 831 1681 c 0,56,57
 860 1681 860 1681 860 1653 c 0,58,59
 860 1563 860 1563 777.5 1508.5 c 128,-1,60
 695 1454 695 1454 586 1454 c 0,36,37
104 -4 m 2,61,62
 23 -4 23 -4 23 29 c 0,63,64
 23 37 23 37 29 55 c 2,65,-1
 481 1309 l 2,66,67
 491 1339 491 1339 557 1339 c 2,68,-1
 612 1339 l 2,69,70
 681 1339 681 1339 688 1309 c 2,71,-1
 1141 53 l 2,72,73
 1147 38 1147 38 1147 29 c 0,74,75
 1147 -4 1147 -4 1065 -4 c 2,76,-1
 1051 -4 l 2,77,78
 984 -4 984 -4 973 27 c 2,79,-1
 860 340 l 1,80,-1
 299 340 l 1,81,-1
 190 27 l 2,82,83
 179 -4 179 -4 115 -4 c 2,84,-1
 104 -4 l 2,61,62
352 485 m 1,85,-1
 809 485 l 1,86,-1
 608 1053 l 2,87,88
 599 1084 599 1084 586 1165 c 1,89,-1
 582 1165 l 1,90,91
 572 1103 572 1103 553 1053 c 2,92,-1
 352 485 l 1,85,-1
EndSplineSet
Position2: "'cpsp' Capital Spacing lookup 0 subtable" dx=20 dy=0 dh=41 dv=0
EndChar

StartChar: Acircumflex
Encoding: 194 194 10
Width: 1171
VWidth: 1908
GlyphClass: 2
Flags: MW
HStem: -4 86G<76 104 104 115 1031 1051 1051 1065> 340 145<352 809 352 860 299 809> 1165 174<582 586 582 582> 1604 104<584 584>
VStem: 23 1124<19 33 19 33>
AnchorPoint: "Anchor-1" 897 1528 basechar 0
AnchorPoint: "Anchor-0" 594 0 basechar 0
LayerCount: 2
Back
Fore
SplineSet
399 1438 m 2,0,1
 356 1438 356 1438 356 1464 c 0,2,3
 356 1480 356 1480 367 1499 c 2,4,-1
 473 1667 l 2,5,6
 501 1708 501 1708 561 1708 c 2,7,-1
 610 1708 l 2,8,9
 671 1708 671 1708 696 1667 c 2,10,-1
 807 1499 l 2,11,12
 817 1479 817 1479 817 1466 c 0,13,14
 817 1438 817 1438 772 1438 c 2,15,-1
 768 1438 l 2,16,17
 732 1438 732 1438 705 1462 c 1,18,-1
 584 1604 l 1,19,-1
 469 1462 l 1,20,21
 439 1438 439 1438 403 1438 c 2,22,-1
 399 1438 l 2,0,1
104 -4 m 2,23,24
 23 -4 23 -4 23 29 c 0,25,26
 23 37 23 37 29 55 c 2,27,-1
 481 1309 l 2,28,29
 491 1339 491 1339 557 1339 c 2,30,-1
 612 1339 l 2,31,32
 681 1339 681 1339 688 1309 c 2,33,-1
 1141 53 l 2,34,35
 1147 38 1147 38 1147 29 c 0,36,37
 1147 -4 1147 -4 1065 -4 c 2,38,-1
 1051 -4 l 2,39,40
 984 -4 984 -4 973 27 c 2,41,-1
 860 340 l 1,42,-1
 299 340 l 1,43,-1
 190 27 l 2,44,45
 179 -4 179 -4 115 -4 c 2,46,-1
 104 -4 l 2,23,24
352 485 m 1,47,-1
 809 485 l 1,48,-1
 608 1053 l 2,49,50
 599 1084 599 1084 586 1165 c 1,51,-1
 582 1165 l 1,52,53
 572 1103 572 1103 553 1053 c 2,54,-1
 352 485 l 1,47,-1
EndSplineSet
Position2: "'cpsp' Capital Spacing lookup 0 subtable" dx=20 dy=0 dh=41 dv=0
EndChar

StartChar: uni1EA4
Encoding: 7844 7844 11
Width: 1171
VWidth: 1908
GlyphClass: 2
Flags: MW
HStem: -4 86G<76 104 104 115 1031 1051 1051 1065> 340 145<352 809 352 860 299 809> 1165 174<582 586 582 582> 1573 135
VStem: 23 1124<19 33 19 33>
AnchorPoint: "Anchor-1" 856 1581 basechar 0
AnchorPoint: "Anchor-0" 594 0 basechar 0
LayerCount: 2
Back
Fore
SplineSet
836 1573 m 0,0,1
 791 1573 791 1573 791 1591 c 0,2,3
 791 1607 791 1607 859 1737 c 0,4,5
 874 1767 874 1767 883 1784 c 0,6,7
 911 1835 911 1835 985 1835 c 0,8,9
 1017 1835 1017 1835 1030.5 1829 c 128,-1,10
 1044 1823 1044 1823 1044 1808 c 0,11,12
 1044 1798 1044 1798 1029 1775.5 c 128,-1,13
 1014 1753 1014 1753 966 1690 c 0,14,15
 954 1675 954 1675 947 1665.5 c 128,-1,16
 940 1656 940 1656 927.5 1639.5 c 128,-1,17
 915 1623 915 1623 903 1608 c 0,18,19
 879 1573 879 1573 836 1573 c 0,0,1
406 1438 m 2,20,21
 362 1438 362 1438 362 1464 c 0,22,23
 362 1480 362 1480 373 1499 c 2,24,-1
 479 1667 l 2,25,26
 507 1708 507 1708 567 1708 c 2,27,-1
 616 1708 l 2,28,29
 661 1708 661 1708 684 1667 c 2,30,-1
 784 1499 l 2,31,32
 795 1477 795 1477 795 1466 c 0,33,34
 795 1438 795 1438 750 1438 c 2,35,-1
 745 1438 l 2,36,37
 700 1438 700 1438 682 1462 c 2,38,-1
 590 1604 l 1,39,-1
 475 1462 l 1,40,41
 445 1438 445 1438 410 1438 c 2,42,-1
 406 1438 l 2,20,21
104 -4 m 2,43,44
 23 -4 23 -4 23 29 c 0,45,46
 23 37 23 37 29 55 c 2,47,-1
 481 1309 l 2,48,49
 491 1339 491 1339 557 1339 c 2,50,-1
 612 1339 l 2,51,52
 681 1339 681 1339 688 1309 c 2,53,-1
 1141 53 l 2,54,55
 1147 38 1147 38 1147 29 c 0,56,57
 1147 -4 1147 -4 1065 -4 c 2,58,-1
 1051 -4 l 2,59,60
 984 -4 984 -4 973 27 c 2,61,-1
 860 340 l 1,62,-1
 299 340 l 1,63,-1
 190 27 l 2,64,65
 179 -4 179 -4 115 -4 c 2,66,-1
 104 -4 l 2,43,44
352 485 m 1,67,-1
 809 485 l 1,68,-1
 608 1053 l 2,69,70
 599 1084 599 1084 586 1165 c 1,71,-1
 582 1165 l 1,72,73
 572 1103 572 1103 553 1053 c 2,74,-1
 352 485 l 1,67,-1
EndSplineSet
Position2: "'cpsp' Capital Spacing lookup 0 subtable" dx=20 dy=0 dh=41 dv=0
EndChar

StartChar: uni1EAC
Encoding: 7852 7852 12
Width: 1171
VWidth: 1908
GlyphClass: 2
Flags: MW
HStem: -334 139<516 623> -4 86G<76 104 104 115 1031 1051 1051 1065> 340 145<352 809 352 860 299 809> 1165 174<582 586 582 582> 1604 104<584 584>
VStem: 516 160<-293 -195 -305 -182>
AnchorPoint: "Anchor-1" 897 1528 basechar 0
AnchorPoint: "Anchor-0" 594 -389 basechar 0
LayerCount: 2
Back
Fore
SplineSet
399 1438 m 2,0,1
 356 1438 356 1438 356 1464 c 0,2,3
 356 1480 356 1480 367 1499 c 2,4,-1
 473 1667 l 2,5,6
 501 1708 501 1708 561 1708 c 2,7,-1
 610 1708 l 2,8,9
 671 1708 671 1708 696 1667 c 2,10,-1
 807 1499 l 2,11,12
 817 1479 817 1479 817 1466 c 0,13,14
 817 1438 817 1438 772 1438 c 2,15,-1
 768 1438 l 2,16,17
 732 1438 732 1438 705 1462 c 1,18,-1
 584 1604 l 1,19,-1
 469 1462 l 1,20,21
 439 1438 439 1438 403 1438 c 2,22,-1
 399 1438 l 2,0,1
104 -4 m 2,23,24
 23 -4 23 -4 23 29 c 0,25,26
 23 37 23 37 29 55 c 2,27,-1
 481 1309 l 2,28,29
 491 1339 491 1339 557 1339 c 2,30,-1
 612 1339 l 2,31,32
 681 1339 681 1339 688 1309 c 2,33,-1
 1141 53 l 2,34,35
 1147 38 1147 38 1147 29 c 0,36,37
 1147 -4 1147 -4 1065 -4 c 2,38,-1
 1051 -4 l 2,39,40
 984 -4 984 -4 973 27 c 2,41,-1
 860 340 l 1,42,-1
 299 340 l 1,43,-1
 190 27 l 2,44,45
 179 -4 179 -4 115 -4 c 2,46,-1
 104 -4 l 2,23,24
352 485 m 1,47,-1
 809 485 l 1,48,-1
 608 1053 l 2,49,50
 599 1084 599 1084 586 1165 c 1,51,-1
 582 1165 l 1,52,53
 572 1103 572 1103 553 1053 c 2,54,-1
 352 485 l 1,47,-1
592 -334 m 0,55,56
 516 -334 516 -334 516 -293 c 2,57,-1
 516 -195 l 2,58,59
 516 -154 516 -154 600 -154 c 0,60,61
 676 -154 676 -154 676 -195 c 2,62,-1
 676 -293 l 2,63,64
 676 -334 676 -334 592 -334 c 0,55,56
EndSplineSet
Position2: "'cpsp' Capital Spacing lookup 0 subtable" dx=20 dy=0 dh=41 dv=0
EndChar

StartChar: uni1EA6
Encoding: 7846 7846 13
Width: 1171
VWidth: 1908
GlyphClass: 2
Flags: MW
HStem: -4 86G<76 104 104 115 1031 1051 1051 1065> 340 145<352 809 352 860 299 809> 1165 174<582 586 582 582> 1573 262<742 908> 1604 104<590 590>
VStem: 23 1124<19 33 19 33>
AnchorPoint: "Anchor-1" 856 1581 basechar 0
AnchorPoint: "Anchor-0" 594 0 basechar 0
LayerCount: 2
Back
Fore
SplineSet
893 1573 m 0,0,1
 846 1573 846 1573 825 1608 c 0,2,3
 808 1633 808 1633 792 1658 c 128,-1,4
 776 1683 776 1683 765.5 1699 c 128,-1,5
 755 1715 755 1715 745 1730.5 c 128,-1,6
 735 1746 735 1746 729 1755 c 128,-1,7
 723 1764 723 1764 717.5 1772.5 c 128,-1,8
 712 1781 712 1781 709.5 1785.5 c 128,-1,9
 707 1790 707 1790 705 1794.5 c 128,-1,10
 703 1799 703 1799 702.5 1802 c 128,-1,11
 702 1805 702 1805 702 1808 c 0,12,13
 702 1823 702 1823 716 1829 c 128,-1,14
 730 1835 730 1835 770 1835 c 0,15,16
 801 1835 801 1835 827.5 1822.5 c 128,-1,17
 854 1810 854 1810 864 1784 c 0,18,19
 938 1610 938 1610 938 1591 c 0,20,21
 938 1573 938 1573 893 1573 c 0,0,1
406 1438 m 2,22,23
 362 1438 362 1438 362 1464 c 0,24,25
 362 1480 362 1480 373 1499 c 2,26,-1
 479 1667 l 2,27,28
 507 1708 507 1708 567 1708 c 2,29,-1
 616 1708 l 2,30,31
 661 1708 661 1708 684 1667 c 2,32,-1
 784 1499 l 2,33,34
 795 1477 795 1477 795 1466 c 0,35,36
 795 1438 795 1438 750 1438 c 2,37,-1
 745 1438 l 2,38,39
 700 1438 700 1438 682 1462 c 2,40,-1
 590 1604 l 1,41,-1
 475 1462 l 1,42,43
 445 1438 445 1438 410 1438 c 2,44,-1
 406 1438 l 2,22,23
104 -4 m 2,45,46
 23 -4 23 -4 23 29 c 0,47,48
 23 37 23 37 29 55 c 2,49,-1
 481 1309 l 2,50,51
 491 1339 491 1339 557 1339 c 2,52,-1
 612 1339 l 2,53,54
 681 1339 681 1339 688 1309 c 2,55,-1
 1141 53 l 2,56,57
 1147 38 1147 38 1147 29 c 0,58,59
 1147 -4 1147 -4 1065 -4 c 2,60,-1
 1051 -4 l 2,61,62
 984 -4 984 -4 973 27 c 2,63,-1
 860 340 l 1,64,-1
 299 340 l 1,65,-1
 190 27 l 2,66,67
 179 -4 179 -4 115 -4 c 2,68,-1
 104 -4 l 2,45,46
352 485 m 1,69,-1
 809 485 l 1,70,-1
 608 1053 l 2,71,72
 599 1084 599 1084 586 1165 c 1,73,-1
 582 1165 l 1,74,75
 572 1103 572 1103 553 1053 c 2,76,-1
 352 485 l 1,69,-1
EndSplineSet
Position2: "'cpsp' Capital Spacing lookup 0 subtable" dx=20 dy=0 dh=41 dv=0
EndChar

StartChar: uni1EA8
Encoding: 7848 7848 14
Width: 1171
VWidth: 1908
GlyphClass: 2
Flags: MW
HStem: -4 86G<76 104 104 115 1031 1051 1051 1065> 340 145<352 809 352 860 299 809> 1165 174<582 586 582 582> 1604 104<590 590> 1778 92<809 847>
VStem: 897 111<1713 1743>
AnchorPoint: "Anchor-1" 856 1847 basechar 0
AnchorPoint: "Anchor-0" 594 0 basechar 0
LayerCount: 2
Back
Fore
SplineSet
862 1575 m 0,0,1
 833 1575 833 1575 812 1587.5 c 128,-1,2
 791 1600 791 1600 791 1614 c 0,3,4
 791 1630 791 1630 840 1655 c 0,5,6
 897 1686 897 1686 897 1726 c 0,7,8
 897 1750 897 1750 877 1764 c 128,-1,9
 857 1778 857 1778 827 1778 c 0,10,11
 801 1778 801 1778 781.5 1772 c 128,-1,12
 762 1766 762 1766 752 1759.5 c 128,-1,13
 742 1753 742 1753 739 1753 c 0,14,15
 729 1753 729 1753 711.5 1777 c 128,-1,16
 694 1801 694 1801 694 1815 c 0,17,18
 694 1835 694 1835 742.5 1852.5 c 128,-1,19
 791 1870 791 1870 842 1870 c 0,20,21
 880 1870 880 1870 915 1859 c 128,-1,22
 950 1848 950 1848 979 1817 c 128,-1,23
 1008 1786 1008 1786 1008 1739 c 0,24,25
 1008 1674 1008 1674 940 1618 c 0,26,27
 922 1601 922 1601 896.5 1588 c 128,-1,28
 871 1575 871 1575 862 1575 c 0,0,1
406 1438 m 2,29,30
 362 1438 362 1438 362 1464 c 0,31,32
 362 1480 362 1480 373 1499 c 2,33,-1
 479 1667 l 2,34,35
 507 1708 507 1708 567 1708 c 2,36,-1
 616 1708 l 2,37,38
 661 1708 661 1708 684 1667 c 2,39,-1
 784 1499 l 2,40,41
 795 1477 795 1477 795 1466 c 0,42,43
 795 1438 795 1438 750 1438 c 2,44,-1
 745 1438 l 2,45,46
 700 1438 700 1438 682 1462 c 2,47,-1
 590 1604 l 1,48,-1
 475 1462 l 1,49,50
 445 1438 445 1438 410 1438 c 2,51,-1
 406 1438 l 2,29,30
104 -4 m 2,52,53
 23 -4 23 -4 23 29 c 0,54,55
 23 37 23 37 29 55 c 2,56,-1
 481 1309 l 2,57,58
 491 1339 491 1339 557 1339 c 2,59,-1
 612 1339 l 2,60,61
 681 1339 681 1339 688 1309 c 2,62,-1
 1141 53 l 2,63,64
 1147 38 1147 38 1147 29 c 0,65,66
 1147 -4 1147 -4 1065 -4 c 2,67,-1
 1051 -4 l 2,68,69
 984 -4 984 -4 973 27 c 2,70,-1
 860 340 l 1,71,-1
 299 340 l 1,72,-1
 190 27 l 2,73,74
 179 -4 179 -4 115 -4 c 2,75,-1
 104 -4 l 2,52,53
352 485 m 1,76,-1
 809 485 l 1,77,-1
 608 1053 l 2,78,79
 599 1084 599 1084 586 1165 c 1,80,-1
 582 1165 l 1,81,82
 572 1103 572 1103 553 1053 c 2,83,-1
 352 485 l 1,76,-1
EndSplineSet
Position2: "'cpsp' Capital Spacing lookup 0 subtable" dx=20 dy=0 dh=41 dv=0
EndChar

StartChar: uni1EAA
Encoding: 7850 7850 15
Width: 1171
VWidth: 1908
GlyphClass: 2
Flags: MW
HStem: -4 86G<76 104 104 115 1031 1051 1051 1065> 340 145<352 809 352 860 299 809> 1165 174<582 586 582 582> 1559 104<584 584> 1735 106<705 761 705 776> 1817 106<420 475>
VStem: 23 1124<19 33 19 33>
AnchorPoint: "Anchor-1" 586 1335 basechar 0
AnchorPoint: "Anchor-0" 594 0 basechar 0
LayerCount: 2
Back
Fore
SplineSet
313 1737 m 1,0,-1
 295 1743 l 2,1,2
 279 1751 279 1751 279 1767 c 0,3,4
 279 1777 279 1777 285 1792 c 0,5,6
 312 1862 312 1862 350.5 1892.5 c 128,-1,7
 389 1923 389 1923 444 1923 c 0,8,9
 496 1923 496 1923 601 1882 c 128,-1,10
 706 1841 706 1841 745 1841 c 0,11,12
 768 1841 768 1841 785 1853 c 128,-1,13
 802 1865 802 1865 821 1896 c 0,14,15
 838 1925 838 1925 856 1925 c 0,16,17
 862 1925 862 1925 874 1919 c 2,18,-1
 887 1913 l 2,19,20
 907 1907 907 1907 907 1890 c 0,21,22
 907 1882 907 1882 901 1864 c 0,23,24
 872 1795 872 1795 833.5 1765 c 128,-1,25
 795 1735 795 1735 741 1735 c 0,26,27
 685 1735 685 1735 578.5 1776 c 128,-1,28
 472 1817 472 1817 434 1817 c 0,29,30
 413 1817 413 1817 397 1804 c 128,-1,31
 381 1791 381 1791 362 1759 c 0,32,33
 345 1731 345 1731 330 1731 c 0,34,35
 322 1731 322 1731 313 1737 c 1,0,-1
399 1438 m 2,36,37
 356 1438 356 1438 356 1464 c 0,38,39
 356 1480 356 1480 367 1499 c 1,40,-1
 473 1620 l 1,41,42
 519 1663 519 1663 561 1663 c 2,43,-1
 610 1663 l 2,44,45
 653 1663 653 1663 696 1620 c 2,46,-1
 807 1499 l 1,47,48
 817 1479 817 1479 817 1466 c 0,49,50
 817 1438 817 1438 772 1438 c 2,51,-1
 768 1438 l 2,52,53
 739 1438 739 1438 705 1462 c 2,54,-1
 584 1559 l 1,55,-1
 469 1462 l 2,56,57
 435 1438 435 1438 403 1438 c 2,58,-1
 399 1438 l 2,36,37
104 -4 m 2,59,60
 23 -4 23 -4 23 29 c 0,61,62
 23 37 23 37 29 55 c 2,63,-1
 481 1309 l 2,64,65
 491 1339 491 1339 557 1339 c 2,66,-1
 612 1339 l 2,67,68
 681 1339 681 1339 688 1309 c 2,69,-1
 1141 53 l 2,70,71
 1147 38 1147 38 1147 29 c 0,72,73
 1147 -4 1147 -4 1065 -4 c 2,74,-1
 1051 -4 l 2,75,76
 984 -4 984 -4 973 27 c 2,77,-1
 860 340 l 1,78,-1
 299 340 l 1,79,-1
 190 27 l 2,80,81
 179 -4 179 -4 115 -4 c 2,82,-1
 104 -4 l 2,59,60
352 485 m 1,83,-1
 809 485 l 1,84,-1
 608 1053 l 2,85,86
 599 1084 599 1084 586 1165 c 1,87,-1
 582 1165 l 1,88,89
 572 1103 572 1103 553 1053 c 2,90,-1
 352 485 l 1,83,-1
EndSplineSet
Position2: "'cpsp' Capital Spacing lookup 0 subtable" dx=20 dy=0 dh=41 dv=0
EndChar

StartChar: Adieresis
Encoding: 196 196 16
Width: 1171
VWidth: 1908
GlyphClass: 2
Flags: MW
HStem: -4 86G<76 104 104 115 1031 1051 1051 1065> 340 145<352 809 352 860 299 809> 1165 174<582 586 582 582> 1497 139<369 475>
VStem: 369 160<1538 1636 1526 1649> 643 160<1538 1636 1526 1649>
AnchorPoint: "Anchor-1" 586 1335 basechar 0
AnchorPoint: "Anchor-0" 594 0 basechar 0
LayerCount: 2
Back
Fore
SplineSet
444 1497 m 0,0,1
 369 1497 369 1497 369 1538 c 2,2,-1
 369 1636 l 2,3,4
 369 1677 369 1677 453 1677 c 0,5,6
 528 1677 528 1677 528 1636 c 2,7,-1
 528 1538 l 2,8,9
 528 1497 528 1497 444 1497 c 0,0,1
719 1497 m 0,10,11
 643 1497 643 1497 643 1538 c 2,12,-1
 643 1636 l 2,13,14
 643 1677 643 1677 727 1677 c 0,15,16
 803 1677 803 1677 803 1636 c 2,17,-1
 803 1538 l 2,18,19
 803 1497 803 1497 719 1497 c 0,10,11
104 -4 m 2,20,21
 23 -4 23 -4 23 29 c 0,22,23
 23 37 23 37 29 55 c 2,24,-1
 481 1309 l 2,25,26
 491 1339 491 1339 557 1339 c 2,27,-1
 612 1339 l 2,28,29
 681 1339 681 1339 688 1309 c 2,30,-1
 1141 53 l 2,31,32
 1147 38 1147 38 1147 29 c 0,33,34
 1147 -4 1147 -4 1065 -4 c 2,35,-1
 1051 -4 l 2,36,37
 984 -4 984 -4 973 27 c 2,38,-1
 860 340 l 1,39,-1
 299 340 l 1,40,-1
 190 27 l 2,41,42
 179 -4 179 -4 115 -4 c 2,43,-1
 104 -4 l 2,20,21
352 485 m 1,44,-1
 809 485 l 1,45,-1
 608 1053 l 2,46,47
 599 1084 599 1084 586 1165 c 1,48,-1
 582 1165 l 1,49,50
 572 1103 572 1103 553 1053 c 2,51,-1
 352 485 l 1,44,-1
EndSplineSet
Position2: "'cpsp' Capital Spacing lookup 0 subtable" dx=20 dy=0 dh=41 dv=0
EndChar

StartChar: uni1EA0
Encoding: 7840 7840 17
Width: 1171
VWidth: 1908
GlyphClass: 2
Flags: MW
HStem: -334 139<516 623> -4 86G<76 104 104 115 1031 1051 1051 1065> 340 145<352 809 352 860 299 809> 1165 174<582 586 582 582>
VStem: 516 160<-293 -195 -305 -182>
AnchorPoint: "Anchor-1" 586 1335 basechar 0
AnchorPoint: "Anchor-0" 594 -389 basechar 0
LayerCount: 2
Back
Fore
SplineSet
104 -4 m 2,0,1
 23 -4 23 -4 23 29 c 0,2,3
 23 37 23 37 29 55 c 2,4,-1
 481 1309 l 2,5,6
 491 1339 491 1339 557 1339 c 2,7,-1
 612 1339 l 2,8,9
 681 1339 681 1339 688 1309 c 2,10,-1
 1141 53 l 2,11,12
 1147 38 1147 38 1147 29 c 0,13,14
 1147 -4 1147 -4 1065 -4 c 2,15,-1
 1051 -4 l 2,16,17
 984 -4 984 -4 973 27 c 2,18,-1
 860 340 l 1,19,-1
 299 340 l 1,20,-1
 190 27 l 2,21,22
 179 -4 179 -4 115 -4 c 2,23,-1
 104 -4 l 2,0,1
352 485 m 1,24,-1
 809 485 l 1,25,-1
 608 1053 l 2,26,27
 599 1084 599 1084 586 1165 c 1,28,-1
 582 1165 l 1,29,30
 572 1103 572 1103 553 1053 c 2,31,-1
 352 485 l 1,24,-1
592 -334 m 0,32,33
 516 -334 516 -334 516 -293 c 2,34,-1
 516 -195 l 2,35,36
 516 -154 516 -154 600 -154 c 0,37,38
 676 -154 676 -154 676 -195 c 2,39,-1
 676 -293 l 2,40,41
 676 -334 676 -334 592 -334 c 0,32,33
EndSplineSet
Position2: "'cpsp' Capital Spacing lookup 0 subtable" dx=20 dy=0 dh=41 dv=0
EndChar

StartChar: Agrave
Encoding: 192 192 18
Width: 1171
VWidth: 1908
GlyphClass: 2
Flags: MW
HStem: -4 86G<76 104 104 115 1031 1051 1051 1065> 340 145<352 809 352 860 299 809> 1165 174<582 586 582 582> 1454 281<422 652>
VStem: 23 1124<19 33 19 33>
AnchorPoint: "Anchor-1" 586 1335 basechar 0
AnchorPoint: "Anchor-0" 594 0 basechar 0
LayerCount: 2
Back
Fore
SplineSet
637 1454 m 0,0,1
 571 1454 571 1454 541 1489 c 0,2,3
 382 1668 382 1668 369 1688 c 0,4,5
 360 1701 360 1701 360 1710 c 0,6,7
 360 1735 360 1735 453 1735 c 0,8,9
 543 1735 543 1735 569 1686 c 0,10,11
 672 1505 672 1505 678 1490 c 0,12,13
 682 1480 682 1480 682 1475 c 0,14,15
 682 1454 682 1454 637 1454 c 0,0,1
104 -4 m 2,16,17
 23 -4 23 -4 23 29 c 0,18,19
 23 37 23 37 29 55 c 2,20,-1
 481 1309 l 2,21,22
 491 1339 491 1339 557 1339 c 2,23,-1
 612 1339 l 2,24,25
 681 1339 681 1339 688 1309 c 2,26,-1
 1141 53 l 2,27,28
 1147 38 1147 38 1147 29 c 0,29,30
 1147 -4 1147 -4 1065 -4 c 2,31,-1
 1051 -4 l 2,32,33
 984 -4 984 -4 973 27 c 2,34,-1
 860 340 l 1,35,-1
 299 340 l 1,36,-1
 190 27 l 2,37,38
 179 -4 179 -4 115 -4 c 2,39,-1
 104 -4 l 2,16,17
352 485 m 1,40,-1
 809 485 l 1,41,-1
 608 1053 l 2,42,43
 599 1084 599 1084 586 1165 c 1,44,-1
 582 1165 l 1,45,46
 572 1103 572 1103 553 1053 c 2,47,-1
 352 485 l 1,40,-1
EndSplineSet
Position2: "'cpsp' Capital Spacing lookup 0 subtable" dx=20 dy=0 dh=41 dv=0
EndChar

StartChar: uni1EA2
Encoding: 7842 7842 19
Width: 1171
VWidth: 1908
GlyphClass: 2
Flags: MW
HStem: -4 86G<76 104 104 115 1031 1051 1051 1065> 340 145<352 809 352 860 299 809> 1165 174<582 586 582 582> 1671 98<566 603>
VStem: 655 117<1573 1637>
AnchorPoint: "Anchor-1" 586 1675 basechar 0
AnchorPoint: "Anchor-0" 594 0 basechar 0
LayerCount: 2
Back
Fore
SplineSet
600 1413 m 0,0,1
 584 1413 584 1413 560.5 1423.5 c 128,-1,2
 537 1434 537 1434 537 1446 c 0,3,4
 537 1464 537 1464 555.5 1483.5 c 128,-1,5
 574 1503 574 1503 596 1518.5 c 128,-1,6
 618 1534 618 1534 636.5 1561 c 128,-1,7
 655 1588 655 1588 655 1620 c 0,8,9
 655 1645 655 1645 635 1658 c 128,-1,10
 615 1671 615 1671 584 1671 c 0,11,12
 558 1671 558 1671 538.5 1665 c 128,-1,13
 519 1659 519 1659 509 1653 c 128,-1,14
 499 1647 499 1647 496 1647 c 0,15,16
 486 1647 486 1647 468.5 1671.5 c 128,-1,17
 451 1696 451 1696 451 1710 c 0,18,19
 451 1729 451 1729 500.5 1749 c 128,-1,20
 550 1769 550 1769 600 1769 c 0,21,22
 637 1769 637 1769 673.5 1758 c 128,-1,23
 710 1747 710 1747 741 1714.5 c 128,-1,24
 772 1682 772 1682 772 1634 c 0,25,26
 772 1590 772 1590 748.5 1546.5 c 128,-1,27
 725 1503 725 1503 694.5 1475.5 c 128,-1,28
 664 1448 664 1448 637 1430.5 c 128,-1,29
 610 1413 610 1413 600 1413 c 0,0,1
104 -4 m 2,30,31
 23 -4 23 -4 23 29 c 0,32,33
 23 37 23 37 29 55 c 2,34,-1
 481 1309 l 2,35,36
 491 1339 491 1339 557 1339 c 2,37,-1
 612 1339 l 2,38,39
 681 1339 681 1339 688 1309 c 2,40,-1
 1141 53 l 2,41,42
 1147 38 1147 38 1147 29 c 0,43,44
 1147 -4 1147 -4 1065 -4 c 2,45,-1
 1051 -4 l 2,46,47
 984 -4 984 -4 973 27 c 2,48,-1
 860 340 l 1,49,-1
 299 340 l 1,50,-1
 190 27 l 2,51,52
 179 -4 179 -4 115 -4 c 2,53,-1
 104 -4 l 2,30,31
352 485 m 1,54,-1
 809 485 l 1,55,-1
 608 1053 l 2,56,57
 599 1084 599 1084 586 1165 c 1,58,-1
 582 1165 l 1,59,60
 572 1103 572 1103 553 1053 c 2,61,-1
 352 485 l 1,54,-1
EndSplineSet
Position2: "'cpsp' Capital Spacing lookup 0 subtable" dx=20 dy=0 dh=41 dv=0
EndChar

StartChar: Amacron
Encoding: 256 256 20
Width: 1171
VWidth: 1908
GlyphClass: 2
Flags: MW
HStem: -4 86G<76 104 104 115 1031 1051 1051 1065> 340 145<352 809 352 860 299 809> 1165 174<582 586 582 582> 1505 135<359 799 373 799>
VStem: 334 502<1563 1583 1543 1603>
AnchorPoint: "Anchor-1" 586 1335 basechar 0
AnchorPoint: "Anchor-0" 594 0 basechar 0
LayerCount: 2
Back
Fore
SplineSet
373 1505 m 2,0,1
 334 1505 334 1505 334 1563 c 2,2,-1
 334 1583 l 2,3,4
 334 1640 334 1640 373 1640 c 2,5,-1
 799 1640 l 2,6,7
 836 1640 836 1640 836 1583 c 2,8,-1
 836 1563 l 2,9,10
 836 1505 836 1505 799 1505 c 2,11,-1
 373 1505 l 2,0,1
104 -4 m 2,12,13
 23 -4 23 -4 23 29 c 0,14,15
 23 37 23 37 29 55 c 2,16,-1
 481 1309 l 2,17,18
 491 1339 491 1339 557 1339 c 2,19,-1
 612 1339 l 2,20,21
 681 1339 681 1339 688 1309 c 2,22,-1
 1141 53 l 2,23,24
 1147 38 1147 38 1147 29 c 0,25,26
 1147 -4 1147 -4 1065 -4 c 2,27,-1
 1051 -4 l 2,28,29
 984 -4 984 -4 973 27 c 2,30,-1
 860 340 l 1,31,-1
 299 340 l 1,32,-1
 190 27 l 2,33,34
 179 -4 179 -4 115 -4 c 2,35,-1
 104 -4 l 2,12,13
352 485 m 1,36,-1
 809 485 l 1,37,-1
 608 1053 l 2,38,39
 599 1084 599 1084 586 1165 c 1,40,-1
 582 1165 l 1,41,42
 572 1103 572 1103 553 1053 c 2,43,-1
 352 485 l 1,36,-1
EndSplineSet
Position2: "'cpsp' Capital Spacing lookup 0 subtable" dx=20 dy=0 dh=41 dv=0
EndChar

StartChar: Aogonek
Encoding: 260 260 21
Width: 1171
VWidth: 1908
GlyphClass: 2
Flags: MW
HStem: -350 135<1188 1225 1188 1236> -4 86G<76 104 104 115> -2 86G 0 86G 340 145<352 809 352 860 299 809> 1165 174<582 586 582 582>
VStem: 963 129<-165 -134>
AnchorPoint: "Anchor-1" 586 1335 basechar 0
AnchorPoint: "Anchor-0" 594 0 basechar 0
LayerCount: 2
Back
Fore
SplineSet
1309 -197 m 0,0,1
 1346 -197 1346 -197 1346 -244 c 0,2,3
 1346 -305 1346 -305 1306.5 -327.5 c 128,-1,4
 1267 -350 1267 -350 1188 -350 c 0,5,6
 1130 -350 1130 -350 1087 -334.5 c 128,-1,7
 1044 -319 1044 -319 1021 -297.5 c 128,-1,8
 998 -276 998 -276 984 -247 c 128,-1,9
 970 -218 970 -218 966.5 -196.5 c 128,-1,10
 963 -175 963 -175 963 -154 c 0,11,12
 963 -47 963 -47 1010 0 c 1,13,14
 979 7 979 7 973 27 c 2,15,-1
 860 340 l 1,16,-1
 299 340 l 1,17,-1
 190 27 l 2,18,19
 179 -4 179 -4 115 -4 c 2,20,-1
 104 -4 l 2,21,22
 23 -4 23 -4 23 29 c 0,23,24
 23 37 23 37 29 55 c 2,25,-1
 481 1309 l 2,26,27
 491 1339 491 1339 557 1339 c 2,28,-1
 612 1339 l 2,29,30
 681 1339 681 1339 688 1309 c 2,31,-1
 1141 53 l 2,32,33
 1147 38 1147 38 1147 29 c 0,34,35
 1147 9 1147 9 1114 -2 c 1,36,37
 1114 -13 1114 -13 1103 -53 c 128,-1,38
 1092 -93 1092 -93 1092 -119 c 0,39,40
 1092 -151 1092 -151 1103 -172 c 128,-1,41
 1114 -193 1114 -193 1135 -201.5 c 128,-1,42
 1156 -210 1156 -210 1172 -212.5 c 128,-1,43
 1188 -215 1188 -215 1210 -215 c 0,44,45
 1224 -215 1224 -215 1258.5 -206 c 128,-1,46
 1293 -197 1293 -197 1309 -197 c 0,0,1
352 485 m 1,47,-1
 809 485 l 1,48,-1
 608 1053 l 2,49,50
 599 1084 599 1084 586 1165 c 1,51,-1
 582 1165 l 1,52,53
 572 1103 572 1103 553 1053 c 2,54,-1
 352 485 l 1,47,-1
EndSplineSet
Position2: "'cpsp' Capital Spacing lookup 0 subtable" dx=20 dy=0 dh=41 dv=0
EndChar

StartChar: Aring
Encoding: 197 197 22
Width: 1171
VWidth: 1908
GlyphClass: 2
Flags: MW
HStem: -4 86G<76 104 104 115 1031 1051 1051 1065> 340 145<352 809 352 860 299 809> 1165 174<582 586 582 582> 1415 66<557 610 557 629> 1671 66<557 610>
VStem: 424 66<1548 1602 1548 1620> 680 66<1548 1602>
AnchorPoint: "Anchor-1" 586 1335 basechar 0
AnchorPoint: "Anchor-0" 594 0 basechar 0
LayerCount: 2
Back
Fore
SplineSet
584 1415 m 128,-1,1
 516 1415 516 1415 470 1461.5 c 128,-1,2
 424 1508 424 1508 424 1575 c 0,3,4
 424 1643 424 1643 470.5 1690 c 128,-1,5
 517 1737 517 1737 584 1737 c 128,-1,6
 651 1737 651 1737 698 1690 c 128,-1,7
 745 1643 745 1643 745 1575 c 0,8,9
 745 1508 745 1508 698.5 1461.5 c 128,-1,0
 652 1415 652 1415 584 1415 c 128,-1,1
584 1481 m 128,-1,11
 624 1481 624 1481 652 1508 c 128,-1,12
 680 1535 680 1535 680 1575 c 128,-1,13
 680 1615 680 1615 652 1643 c 128,-1,14
 624 1671 624 1671 584 1671 c 128,-1,15
 544 1671 544 1671 516.5 1643 c 128,-1,16
 489 1615 489 1615 489 1575 c 128,-1,17
 489 1535 489 1535 516.5 1508 c 128,-1,10
 544 1481 544 1481 584 1481 c 128,-1,11
104 -4 m 2,18,19
 23 -4 23 -4 23 29 c 0,20,21
 23 37 23 37 29 55 c 2,22,-1
 481 1309 l 2,23,24
 491 1339 491 1339 557 1339 c 2,25,-1
 612 1339 l 2,26,27
 681 1339 681 1339 688 1309 c 2,28,-1
 1141 53 l 2,29,30
 1147 38 1147 38 1147 29 c 0,31,32
 1147 -4 1147 -4 1065 -4 c 2,33,-1
 1051 -4 l 2,34,35
 984 -4 984 -4 973 27 c 2,36,-1
 860 340 l 1,37,-1
 299 340 l 1,38,-1
 190 27 l 2,39,40
 179 -4 179 -4 115 -4 c 2,41,-1
 104 -4 l 2,18,19
352 485 m 1,42,-1
 809 485 l 1,43,-1
 608 1053 l 2,44,45
 599 1084 599 1084 586 1165 c 1,46,-1
 582 1165 l 1,47,48
 572 1103 572 1103 553 1053 c 2,49,-1
 352 485 l 1,42,-1
EndSplineSet
Position2: "'cpsp' Capital Spacing lookup 0 subtable" dx=20 dy=0 dh=41 dv=0
EndChar

StartChar: Aringacute
Encoding: 506 506 23
Width: 1171
VWidth: 1908
GlyphClass: 2
Flags: MW
HStem: -4 86G<76 104 104 115 1031 1051 1051 1065> 340 145<352 809 352 860 299 809> 1165 92<582 586 582 582> 1448 66<559 612> 1569 205<538 729>
VStem: 426 66<1332 1378 1325 1397> 682 66<1332 1378>
LayerCount: 2
Back
Fore
SplineSet
553 1569 m 0,0,1
 510 1569 510 1569 510 1587 c 1,2,3
 557 1681 557 1681 580 1724 c 0,4,5
 597 1751 597 1751 624.5 1762.5 c 128,-1,6
 652 1774 652 1774 698 1774 c 0,7,8
 791 1774 791 1774 791 1749 c 0,9,10
 791 1746 791 1746 790 1743 c 128,-1,11
 789 1740 789 1740 784.5 1735.5 c 128,-1,12
 780 1731 780 1731 774 1725 c 128,-1,13
 768 1719 768 1719 756.5 1708 c 128,-1,14
 745 1697 745 1697 732 1684.5 c 128,-1,15
 719 1672 719 1672 697 1650 c 128,-1,16
 675 1628 675 1628 651 1604 c 0,17,18
 621 1569 621 1569 553 1569 c 0,0,1
1141 53 m 2,19,20
 1147 38 1147 38 1147 29 c 0,21,22
 1147 -4 1147 -4 1065 -4 c 2,23,-1
 1051 -4 l 2,24,25
 984 -4 984 -4 973 27 c 2,26,-1
 860 340 l 1,27,-1
 299 340 l 1,28,-1
 190 27 l 2,29,30
 179 -4 179 -4 115 -4 c 2,31,-1
 104 -4 l 2,32,33
 23 -4 23 -4 23 29 c 0,34,35
 23 37 23 37 29 55 c 2,36,-1
 461 1251 l 1,37,38
 426 1292 426 1292 426 1352 c 0,39,40
 426 1420 426 1420 472.5 1466.5 c 128,-1,41
 519 1513 519 1513 586 1513 c 0,42,43
 654 1513 654 1513 701 1466 c 128,-1,44
 748 1419 748 1419 748 1352 c 0,45,46
 748 1294 748 1294 711 1247 c 1,47,-1
 1141 53 l 2,19,20
586 1448 m 128,-1,49
 546 1448 546 1448 519 1420 c 128,-1,50
 492 1392 492 1392 492 1352 c 128,-1,51
 492 1312 492 1312 519 1284.5 c 128,-1,52
 546 1257 546 1257 586 1257 c 128,-1,53
 626 1257 626 1257 654 1284.5 c 128,-1,54
 682 1312 682 1312 682 1352 c 128,-1,55
 682 1392 682 1392 654 1420 c 128,-1,48
 626 1448 626 1448 586 1448 c 128,-1,49
352 485 m 1,56,-1
 809 485 l 1,57,-1
 608 1053 l 2,58,59
 599 1084 599 1084 586 1165 c 1,60,-1
 582 1165 l 1,61,62
 572 1103 572 1103 553 1053 c 2,63,-1
 352 485 l 1,56,-1
EndSplineSet
Position2: "'cpsp' Capital Spacing lookup 0 subtable" dx=20 dy=0 dh=41 dv=0
EndChar

StartChar: Atilde
Encoding: 195 195 24
Width: 1171
VWidth: 1908
GlyphClass: 2
Flags: MW
HStem: -4 86G<76 104 104 115 1031 1051 1051 1065> 340 145<352 809 352 860 299 809> 1165 174<582 586 582 582> 1466 106<723 785 723 803> 1548 106<411 471>
VStem: 23 1124<19 33 19 33>
AnchorPoint: "Anchor-1" 586 1335 basechar 0
AnchorPoint: "Anchor-0" 594 0 basechar 0
LayerCount: 2
Back
Fore
SplineSet
293 1468 m 1,0,-1
 272 1475 l 2,1,2
 256 1483 256 1483 256 1499 c 0,3,4
 256 1509 256 1509 262 1524 c 0,5,6
 292 1594 292 1594 334 1624.5 c 128,-1,7
 376 1655 376 1655 438 1655 c 0,8,9
 496 1655 496 1655 611 1614 c 128,-1,10
 726 1573 726 1573 768 1573 c 0,11,12
 794 1573 794 1573 813 1585 c 128,-1,13
 832 1597 832 1597 852 1628 c 0,14,15
 872 1657 872 1657 891 1657 c 0,16,17
 896 1657 896 1657 911 1651 c 2,18,-1
 924 1645 l 1,19,20
 946 1640 946 1640 946 1622 c 0,21,22
 946 1613 946 1613 940 1595 c 0,23,24
 908 1526 908 1526 866 1496 c 128,-1,25
 824 1466 824 1466 764 1466 c 0,26,27
 702 1466 702 1466 585 1507 c 128,-1,28
 468 1548 468 1548 426 1548 c 0,29,30
 403 1548 403 1548 386 1535 c 128,-1,31
 369 1522 369 1522 348 1491 c 0,32,33
 328 1462 328 1462 311 1462 c 0,34,35
 305 1462 305 1462 293 1468 c 1,0,-1
104 -4 m 2,36,37
 23 -4 23 -4 23 29 c 0,38,39
 23 37 23 37 29 55 c 2,40,-1
 481 1309 l 2,41,42
 491 1339 491 1339 557 1339 c 2,43,-1
 612 1339 l 2,44,45
 681 1339 681 1339 688 1309 c 2,46,-1
 1141 53 l 2,47,48
 1147 38 1147 38 1147 29 c 0,49,50
 1147 -4 1147 -4 1065 -4 c 2,51,-1
 1051 -4 l 2,52,53
 984 -4 984 -4 973 27 c 2,54,-1
 860 340 l 1,55,-1
 299 340 l 1,56,-1
 190 27 l 2,57,58
 179 -4 179 -4 115 -4 c 2,59,-1
 104 -4 l 2,36,37
352 485 m 1,60,-1
 809 485 l 1,61,-1
 608 1053 l 2,62,63
 599 1084 599 1084 586 1165 c 1,64,-1
 582 1165 l 1,65,66
 572 1103 572 1103 553 1053 c 2,67,-1
 352 485 l 1,60,-1
EndSplineSet
Position2: "'cpsp' Capital Spacing lookup 0 subtable" dx=20 dy=0 dh=41 dv=0
EndChar

StartChar: AE
Encoding: 198 198 25
Width: 1748
VWidth: 1908
GlyphClass: 2
Flags: MW
HStem: 0 145<965 1532 1067 1532 1067 1532> 340 143<367 823 367 856 293 823> 610 145<967 1475 967 967> 1165 170<688 692 688 688> 1192 143<840 1530 840 840>
VStem: -20 1591<18 57>
AnchorPoint: "Anchor-1" 877 1335 basechar 0
AnchorPoint: "Anchor-0" 0 0 basechar 0
LayerCount: 2
Back
Fore
SplineSet
53 -4 m 2,0,1
 -20 -4 -20 -4 -20 29 c 0,2,3
 -20 41 -20 41 -14 59 c 2,4,-1
 600 1284 l 2,5,6
 622 1335 622 1335 682 1335 c 2,7,-1
 1530 1335 l 2,8,9
 1552 1335 1552 1335 1560.5 1322 c 128,-1,10
 1569 1309 1569 1309 1569 1278 c 2,11,-1
 1569 1249 l 2,12,13
 1569 1218 1569 1218 1560.5 1205 c 128,-1,14
 1552 1192 1552 1192 1530 1192 c 2,15,-1
 840 1192 l 1,16,-1
 936 756 l 1,17,-1
 1475 756 l 2,18,19
 1495 756 1495 756 1503 742.5 c 128,-1,20
 1511 729 1511 729 1511 698 c 2,21,-1
 1511 668 l 2,22,23
 1511 610 1511 610 1475 610 c 2,24,-1
 967 610 l 1,25,-1
 1067 145 l 1,26,-1
 1532 145 l 2,27,28
 1571 145 1571 145 1571 88 c 2,29,-1
 1571 57 l 2,30,31
 1571 0 1571 0 1532 0 c 2,32,-1
 985 0 l 2,33,34
 926 0 926 0 915 55 c 2,35,-1
 856 340 l 1,36,-1
 293 340 l 1,37,-1
 139 27 l 2,38,39
 120 -4 120 -4 63 -4 c 2,40,-1
 53 -4 l 2,0,1
367 483 m 1,41,-1
 823 483 l 1,42,-1
 700 1053 l 1,43,-1
 692 1165 l 1,44,-1
 688 1165 l 1,45,-1
 649 1053 l 1,46,-1
 367 483 l 1,41,-1
EndSplineSet
Position2: "'cpsp' Capital Spacing lookup 0 subtable" dx=20 dy=0 dh=41 dv=0
EndChar

StartChar: AEacute
Encoding: 508 508 26
Width: 1748
VWidth: 1908
GlyphClass: 2
Flags: MW
HStem: 0 145<965 1532 1067 1532 1067 1532> 340 143<367 823 367 856 293 823> 610 145<967 1475 967 967> 1165 170<688 692 688 688> 1192 143<840 1530 840 840> 1454 281<826 1059>
VStem: -20 1591<18 57>
AnchorPoint: "Anchor-1" 877 1335 basechar 0
AnchorPoint: "Anchor-0" 0 0 basechar 0
LayerCount: 2
Back
Fore
SplineSet
842 1454 m 0,0,1
 799 1454 799 1454 799 1475 c 0,2,3
 799 1488 799 1488 818.5 1525 c 128,-1,4
 838 1562 838 1562 909 1686 c 0,5,6
 935 1735 935 1735 1028 1735 c 0,7,8
 1120 1735 1120 1735 1120 1710 c 0,9,10
 1120 1698 1120 1698 1099 1671.5 c 128,-1,11
 1078 1645 1078 1645 1005 1562 c 0,12,13
 965 1517 965 1517 940 1489 c 0,14,15
 910 1454 910 1454 842 1454 c 0,0,1
53 -4 m 2,16,17
 -20 -4 -20 -4 -20 29 c 0,18,19
 -20 41 -20 41 -14 59 c 2,20,-1
 600 1284 l 2,21,22
 622 1335 622 1335 682 1335 c 2,23,-1
 1530 1335 l 2,24,25
 1552 1335 1552 1335 1560.5 1322 c 128,-1,26
 1569 1309 1569 1309 1569 1278 c 2,27,-1
 1569 1249 l 2,28,29
 1569 1218 1569 1218 1560.5 1205 c 128,-1,30
 1552 1192 1552 1192 1530 1192 c 2,31,-1
 840 1192 l 1,32,-1
 936 756 l 1,33,-1
 1475 756 l 2,34,35
 1495 756 1495 756 1503 742.5 c 128,-1,36
 1511 729 1511 729 1511 698 c 2,37,-1
 1511 668 l 2,38,39
 1511 610 1511 610 1475 610 c 2,40,-1
 967 610 l 1,41,-1
 1067 145 l 1,42,-1
 1532 145 l 2,43,44
 1571 145 1571 145 1571 88 c 2,45,-1
 1571 57 l 2,46,47
 1571 0 1571 0 1532 0 c 2,48,-1
 985 0 l 2,49,50
 926 0 926 0 915 55 c 2,51,-1
 856 340 l 1,52,-1
 293 340 l 1,53,-1
 139 27 l 2,54,55
 120 -4 120 -4 63 -4 c 2,56,-1
 53 -4 l 2,16,17
367 483 m 1,57,-1
 823 483 l 1,58,-1
 700 1053 l 1,59,-1
 692 1165 l 1,60,-1
 688 1165 l 1,61,-1
 649 1053 l 1,62,-1
 367 483 l 1,57,-1
EndSplineSet
Position2: "'cpsp' Capital Spacing lookup 0 subtable" dx=20 dy=0 dh=41 dv=0
EndChar

StartChar: B
Encoding: 66 66 27
Width: 1134
VWidth: 1908
GlyphClass: 2
Flags: MW
HStem: 0 145<222 631 352 571> 614 145<352 575 575 600 352 575> 1192 143<352 567 352 352>
VStem: 184 168<145 145 145 614 760 1192> 838 174<934 1054> 895 174<315 461>
LayerCount: 2
Back
Fore
SplineSet
242 0 m 2,0,1
 184 0 184 0 184 57 c 2,2,-1
 184 1278 l 2,3,4
 184 1335 184 1335 242 1335 c 2,5,-1
 584 1335 l 2,6,7
 792 1335 792 1335 902 1243.5 c 128,-1,8
 1012 1152 1012 1152 1012 997 c 0,9,10
 1012 903 1012 903 948.5 818 c 128,-1,11
 885 733 885 733 801 709 c 1,12,-1
 801 700 l 1,13,14
 812 697 812 697 830 691.5 c 128,-1,15
 848 686 848 686 894 661 c 128,-1,16
 940 636 940 636 975.5 603.5 c 128,-1,17
 1011 571 1011 571 1040 512.5 c 128,-1,18
 1069 454 1069 454 1069 383 c 0,19,20
 1069 0 1069 0 571 0 c 2,21,-1
 242 0 l 2,0,1
352 760 m 1,22,-1
 575 760 l 2,23,24
 689 760 689 760 763.5 824 c 128,-1,25
 838 888 838 888 838 983 c 0,26,27
 838 1090 838 1090 773 1141 c 128,-1,28
 708 1192 708 1192 567 1192 c 2,29,-1
 352 1192 l 1,30,-1
 352 760 l 1,22,-1
352 145 m 1,31,-1
 631 145 l 2,32,33
 757 145 757 145 826 210.5 c 128,-1,34
 895 276 895 276 895 391 c 0,35,36
 895 497 895 497 820 555.5 c 128,-1,37
 745 614 745 614 600 614 c 2,38,-1
 352 614 l 1,39,-1
 352 145 l 1,31,-1
EndSplineSet
Position2: "'cpsp' Capital Spacing lookup 0 subtable" dx=20 dy=0 dh=41 dv=0
EndChar

StartChar: C
Encoding: 67 67 28
Width: 1183
VWidth: 1908
GlyphClass: 2
Flags: MW
HStem: -12 145<573 821 573 835> 1202 145<579 821 523 822>
VStem: 109 174<482 854 482 896>
AnchorPoint: "Anchor-1" 680 1335 basechar 0
AnchorPoint: "Anchor-0" 688 0 basechar 0
LayerCount: 2
Back
Fore
SplineSet
723 -12 m 0,0,1
 409 -12 409 -12 259 154 c 128,-1,2
 109 320 109 320 109 668 c 0,3,4
 109 1348 109 1348 727 1348 c 0,5,6
 863 1348 863 1348 977.5 1308.5 c 128,-1,7
 1092 1269 1092 1269 1092 1229 c 0,8,9
 1092 1202 1092 1202 1068.5 1160 c 128,-1,10
 1045 1118 1045 1118 1026 1118 c 0,11,12
 1022 1118 1022 1118 985 1139 c 128,-1,13
 948 1160 948 1160 879.5 1181 c 128,-1,14
 811 1202 811 1202 731 1202 c 0,15,16
 500 1202 500 1202 391.5 1074 c 128,-1,17
 283 946 283 946 283 666 c 0,18,19
 283 392 283 392 390.5 262.5 c 128,-1,20
 498 133 498 133 723 133 c 0,21,22
 790 133 790 133 853 148 c 128,-1,23
 916 163 916 163 952.5 181 c 128,-1,24
 989 199 989 199 1017.5 214 c 128,-1,25
 1046 229 1046 229 1053 229 c 0,26,27
 1070 229 1070 229 1094 188 c 128,-1,28
 1118 147 1118 147 1118 127 c 0,29,30
 1118 100 1118 100 1067.5 68 c 128,-1,31
 1017 36 1017 36 922.5 12 c 128,-1,32
 828 -12 828 -12 723 -12 c 0,0,1
EndSplineSet
Position2: "'cpsp' Capital Spacing lookup 0 subtable" dx=20 dy=0 dh=41 dv=0
EndChar

StartChar: Cacute
Encoding: 262 262 29
Width: 1183
VWidth: 1908
GlyphClass: 2
Flags: MW
HStem: -12 145<573 821 573 835> 1202 145<579 821 523 822> 1454 281<630 862>
VStem: 109 174<482 854 482 896>
AnchorPoint: "Anchor-1" 680 1335 basechar 0
AnchorPoint: "Anchor-0" 688 0 basechar 0
LayerCount: 2
Back
Fore
SplineSet
645 1454 m 0,0,1
 602 1454 602 1454 602 1475 c 0,2,3
 602 1488 602 1488 620.5 1522 c 128,-1,4
 639 1556 639 1556 713 1686 c 0,5,6
 739 1735 739 1735 831 1735 c 0,7,8
 924 1735 924 1735 924 1710 c 0,9,10
 924 1694 924 1694 820 1577 c 0,11,12
 774 1524 774 1524 743 1489 c 0,13,14
 713 1454 713 1454 645 1454 c 0,0,1
723 -12 m 0,15,16
 409 -12 409 -12 259 154 c 128,-1,17
 109 320 109 320 109 668 c 0,18,19
 109 1348 109 1348 727 1348 c 0,20,21
 863 1348 863 1348 977.5 1308.5 c 128,-1,22
 1092 1269 1092 1269 1092 1229 c 0,23,24
 1092 1202 1092 1202 1068.5 1160 c 128,-1,25
 1045 1118 1045 1118 1026 1118 c 0,26,27
 1022 1118 1022 1118 985 1139 c 128,-1,28
 948 1160 948 1160 879.5 1181 c 128,-1,29
 811 1202 811 1202 731 1202 c 0,30,31
 500 1202 500 1202 391.5 1074 c 128,-1,32
 283 946 283 946 283 666 c 0,33,34
 283 392 283 392 390.5 262.5 c 128,-1,35
 498 133 498 133 723 133 c 0,36,37
 790 133 790 133 853 148 c 128,-1,38
 916 163 916 163 952.5 181 c 128,-1,39
 989 199 989 199 1017.5 214 c 128,-1,40
 1046 229 1046 229 1053 229 c 0,41,42
 1070 229 1070 229 1094 188 c 128,-1,43
 1118 147 1118 147 1118 127 c 0,44,45
 1118 100 1118 100 1067.5 68 c 128,-1,46
 1017 36 1017 36 922.5 12 c 128,-1,47
 828 -12 828 -12 723 -12 c 0,15,16
EndSplineSet
Substitution2: "'locl' Localized Forms in Latin lookup 14 subtable" Cacute.loclPLK
Substitution2: "'aalt' Access All Alternates lookup 0 subtable" Cacute.loclPLK
Position2: "'cpsp' Capital Spacing lookup 0 subtable" dx=20 dy=0 dh=41 dv=0
EndChar

StartChar: Ccaron
Encoding: 268 268 30
Width: 1183
VWidth: 1908
GlyphClass: 2
Flags: MW
HStem: -12 145<573 821 573 835> 1202 145<579 821 523 822> 1448 106<635 676 676 676 676 702>
VStem: 109 174<482 854 482 896>
AnchorPoint: "Anchor-1" 680 1335 basechar 0
AnchorPoint: "Anchor-0" 688 0 basechar 0
LayerCount: 2
Back
Fore
SplineSet
653 1448 m 2,0,1
 595 1448 595 1448 565 1491 c 2,2,-1
 459 1659 l 2,3,4
 449 1674 449 1674 449 1694 c 0,5,6
 449 1720 449 1720 492 1720 c 2,7,-1
 496 1720 l 2,8,9
 531 1720 531 1720 561 1696 c 1,10,-1
 676 1554 l 1,11,-1
 797 1696 l 1,12,13
 824 1720 824 1720 860 1720 c 2,14,-1
 864 1720 l 2,15,16
 909 1720 909 1720 909 1692 c 0,17,18
 909 1679 909 1679 899 1659 c 2,19,-1
 788 1491 l 2,20,21
 761 1448 761 1448 702 1448 c 2,22,-1
 653 1448 l 2,0,1
723 -12 m 0,23,24
 409 -12 409 -12 259 154 c 128,-1,25
 109 320 109 320 109 668 c 0,26,27
 109 1348 109 1348 727 1348 c 0,28,29
 863 1348 863 1348 977.5 1308.5 c 128,-1,30
 1092 1269 1092 1269 1092 1229 c 0,31,32
 1092 1202 1092 1202 1068.5 1160 c 128,-1,33
 1045 1118 1045 1118 1026 1118 c 0,34,35
 1022 1118 1022 1118 985 1139 c 128,-1,36
 948 1160 948 1160 879.5 1181 c 128,-1,37
 811 1202 811 1202 731 1202 c 0,38,39
 500 1202 500 1202 391.5 1074 c 128,-1,40
 283 946 283 946 283 666 c 0,41,42
 283 392 283 392 390.5 262.5 c 128,-1,43
 498 133 498 133 723 133 c 0,44,45
 790 133 790 133 853 148 c 128,-1,46
 916 163 916 163 952.5 181 c 128,-1,47
 989 199 989 199 1017.5 214 c 128,-1,48
 1046 229 1046 229 1053 229 c 0,49,50
 1070 229 1070 229 1094 188 c 128,-1,51
 1118 147 1118 147 1118 127 c 0,52,53
 1118 100 1118 100 1067.5 68 c 128,-1,54
 1017 36 1017 36 922.5 12 c 128,-1,55
 828 -12 828 -12 723 -12 c 0,23,24
EndSplineSet
Position2: "'cpsp' Capital Spacing lookup 0 subtable" dx=20 dy=0 dh=41 dv=0
EndChar

StartChar: Ccedilla
Encoding: 199 199 31
Width: 1183
VWidth: 1908
GlyphClass: 2
Flags: MW
HStem: -401 94<614 655 597 706> -12 145<729 729> -10 143 1202 145<579 821 523 822>
VStem: 109 174<482 854 482 896> 741 135<-269 -197>
AnchorPoint: "Anchor-1" 680 1335 basechar 0
AnchorPoint: "Anchor-0" 688 0 basechar 0
LayerCount: 2
Back
Fore
SplineSet
1118 127 m 0,0,1
 1118 100 1118 100 1068.5 68.5 c 128,-1,2
 1019 37 1019 37 926 13 c 128,-1,3
 833 -11 833 -11 729 -12 c 1,4,-1
 707 -94 l 1,5,-1
 715 -94 l 2,6,7
 737 -94 737 -94 759.5 -98.5 c 128,-1,8
 782 -103 782 -103 811 -115 c 128,-1,9
 840 -127 840 -127 858.5 -157 c 128,-1,10
 877 -187 877 -187 877 -231 c 0,11,12
 877 -401 877 -401 657 -401 c 0,13,14
 583 -401 583 -401 510.5 -377.5 c 128,-1,15
 438 -354 438 -354 438 -319 c 0,16,17
 438 -268 438 -268 475 -268 c 0,18,19
 485 -268 485 -268 538.5 -287.5 c 128,-1,20
 592 -307 592 -307 633 -307 c 0,21,22
 741 -307 741 -307 741 -240 c 0,23,24
 741 -211 741 -211 721.5 -194 c 128,-1,25
 702 -177 702 -177 678.5 -172 c 128,-1,26
 655 -167 655 -167 635.5 -156.5 c 128,-1,27
 616 -146 616 -146 616 -129 c 0,28,29
 616 -106 616 -106 647 -10 c 1,30,31
 373 9 373 9 241 175 c 128,-1,32
 109 341 109 341 109 668 c 0,33,34
 109 1348 109 1348 727 1348 c 0,35,36
 863 1348 863 1348 977.5 1308.5 c 128,-1,37
 1092 1269 1092 1269 1092 1229 c 0,38,39
 1092 1202 1092 1202 1068.5 1160 c 128,-1,40
 1045 1118 1045 1118 1026 1118 c 0,41,42
 1022 1118 1022 1118 985 1139 c 128,-1,43
 948 1160 948 1160 879.5 1181 c 128,-1,44
 811 1202 811 1202 731 1202 c 0,45,46
 500 1202 500 1202 391.5 1074 c 128,-1,47
 283 946 283 946 283 666 c 0,48,49
 283 392 283 392 390.5 262.5 c 128,-1,50
 498 133 498 133 723 133 c 0,51,52
 790 133 790 133 853 148 c 128,-1,53
 916 163 916 163 952.5 181 c 128,-1,54
 989 199 989 199 1017.5 214 c 128,-1,55
 1046 229 1046 229 1053 229 c 0,56,57
 1070 229 1070 229 1094 188 c 128,-1,58
 1118 147 1118 147 1118 127 c 0,0,1
EndSplineSet
Position2: "'cpsp' Capital Spacing lookup 0 subtable" dx=20 dy=0 dh=41 dv=0
EndChar

StartChar: Ccircumflex
Encoding: 264 264 32
Width: 1183
VWidth: 1908
GlyphClass: 2
Flags: MW
HStem: -12 145<573 821 573 835> 1202 145<579 821 523 822> 1604 104<676 676>
VStem: 109 174<482 854 482 896>
AnchorPoint: "Anchor-1" 991 1528 basechar 0
AnchorPoint: "Anchor-0" 688 0 basechar 0
LayerCount: 2
Back
Fore
SplineSet
492 1438 m 2,0,1
 449 1438 449 1438 449 1464 c 0,2,3
 449 1482 449 1482 459 1499 c 2,4,-1
 565 1667 l 2,5,6
 593 1708 593 1708 653 1708 c 2,7,-1
 702 1708 l 2,8,9
 763 1708 763 1708 788 1667 c 2,10,-1
 899 1499 l 2,11,12
 909 1479 909 1479 909 1466 c 0,13,14
 909 1438 909 1438 864 1438 c 2,15,-1
 860 1438 l 2,16,17
 824 1438 824 1438 797 1462 c 1,18,-1
 676 1604 l 1,19,-1
 561 1462 l 1,20,21
 531 1438 531 1438 496 1438 c 2,22,-1
 492 1438 l 2,0,1
723 -12 m 0,23,24
 409 -12 409 -12 259 154 c 128,-1,25
 109 320 109 320 109 668 c 0,26,27
 109 1348 109 1348 727 1348 c 0,28,29
 863 1348 863 1348 977.5 1308.5 c 128,-1,30
 1092 1269 1092 1269 1092 1229 c 0,31,32
 1092 1202 1092 1202 1068.5 1160 c 128,-1,33
 1045 1118 1045 1118 1026 1118 c 0,34,35
 1022 1118 1022 1118 985 1139 c 128,-1,36
 948 1160 948 1160 879.5 1181 c 128,-1,37
 811 1202 811 1202 731 1202 c 0,38,39
 500 1202 500 1202 391.5 1074 c 128,-1,40
 283 946 283 946 283 666 c 0,41,42
 283 392 283 392 390.5 262.5 c 128,-1,43
 498 133 498 133 723 133 c 0,44,45
 790 133 790 133 853 148 c 128,-1,46
 916 163 916 163 952.5 181 c 128,-1,47
 989 199 989 199 1017.5 214 c 128,-1,48
 1046 229 1046 229 1053 229 c 0,49,50
 1070 229 1070 229 1094 188 c 128,-1,51
 1118 147 1118 147 1118 127 c 0,52,53
 1118 100 1118 100 1067.5 68 c 128,-1,54
 1017 36 1017 36 922.5 12 c 128,-1,55
 828 -12 828 -12 723 -12 c 0,23,24
EndSplineSet
Position2: "'cpsp' Capital Spacing lookup 0 subtable" dx=20 dy=0 dh=41 dv=0
EndChar

StartChar: Cdotaccent
Encoding: 266 266 33
Width: 1183
VWidth: 1908
GlyphClass: 2
Flags: MW
HStem: -12 145<573 821 573 835> 1202 145<579 821 523 822> 1497 139<598 705>
VStem: 109 174<482 854 482 896> 598 160<1538 1636 1526 1649>
AnchorPoint: "Anchor-1" 680 1335 basechar 0
AnchorPoint: "Anchor-0" 688 0 basechar 0
LayerCount: 2
Back
Fore
SplineSet
674 1497 m 0,0,1
 598 1497 598 1497 598 1538 c 2,2,-1
 598 1636 l 2,3,4
 598 1677 598 1677 682 1677 c 0,5,6
 758 1677 758 1677 758 1636 c 2,7,-1
 758 1538 l 2,8,9
 758 1497 758 1497 674 1497 c 0,0,1
723 -12 m 0,10,11
 409 -12 409 -12 259 154 c 128,-1,12
 109 320 109 320 109 668 c 0,13,14
 109 1348 109 1348 727 1348 c 0,15,16
 863 1348 863 1348 977.5 1308.5 c 128,-1,17
 1092 1269 1092 1269 1092 1229 c 0,18,19
 1092 1202 1092 1202 1068.5 1160 c 128,-1,20
 1045 1118 1045 1118 1026 1118 c 0,21,22
 1022 1118 1022 1118 985 1139 c 128,-1,23
 948 1160 948 1160 879.5 1181 c 128,-1,24
 811 1202 811 1202 731 1202 c 0,25,26
 500 1202 500 1202 391.5 1074 c 128,-1,27
 283 946 283 946 283 666 c 0,28,29
 283 392 283 392 390.5 262.5 c 128,-1,30
 498 133 498 133 723 133 c 0,31,32
 790 133 790 133 853 148 c 128,-1,33
 916 163 916 163 952.5 181 c 128,-1,34
 989 199 989 199 1017.5 214 c 128,-1,35
 1046 229 1046 229 1053 229 c 0,36,37
 1070 229 1070 229 1094 188 c 128,-1,38
 1118 147 1118 147 1118 127 c 0,39,40
 1118 100 1118 100 1067.5 68 c 128,-1,41
 1017 36 1017 36 922.5 12 c 128,-1,42
 828 -12 828 -12 723 -12 c 0,10,11
EndSplineSet
Position2: "'cpsp' Capital Spacing lookup 0 subtable" dx=20 dy=0 dh=41 dv=0
EndChar

StartChar: D
Encoding: 68 68 34
Width: 1327
VWidth: 1908
GlyphClass: 2
Flags: MW
HStem: 0 145<222 614 352 614 614 629> 1192 143<352 614 352 352>
VStem: 184 168<145 145 145 1192> 1044 174<477 858>
AnchorPoint: "Anchor-1" 598 1335 basechar 0
AnchorPoint: "Anchor-0" 627 0 basechar 0
LayerCount: 2
Back
Fore
SplineSet
242 0 m 2,0,1
 184 0 184 0 184 57 c 2,2,-1
 184 1278 l 2,3,4
 184 1335 184 1335 242 1335 c 2,5,-1
 629 1335 l 2,6,7
 731 1335 731 1335 817 1313.5 c 128,-1,8
 903 1292 903 1292 978.5 1242.5 c 128,-1,9
 1054 1193 1054 1193 1106.5 1117.5 c 128,-1,10
 1159 1042 1159 1042 1189 927.5 c 128,-1,11
 1219 813 1219 813 1219 668 c 0,12,13
 1219 547 1219 547 1198.5 447 c 128,-1,14
 1178 347 1178 347 1139 274.5 c 128,-1,15
 1100 202 1100 202 1047.5 148.5 c 128,-1,16
 995 95 995 95 927.5 63 c 128,-1,17
 860 31 860 31 786.5 15.5 c 128,-1,18
 713 0 713 0 629 0 c 2,19,-1
 242 0 l 2,0,1
352 145 m 1,20,-1
 614 145 l 2,21,22
 707 145 707 145 783 174 c 128,-1,23
 859 203 859 203 918.5 263 c 128,-1,24
 978 323 978 323 1011 426 c 128,-1,25
 1044 529 1044 529 1044 668 c 128,-1,26
 1044 807 1044 807 1011 910 c 128,-1,27
 978 1013 978 1013 918.5 1073.5 c 128,-1,28
 859 1134 859 1134 783 1163 c 128,-1,29
 707 1192 707 1192 614 1192 c 2,30,-1
 352 1192 l 1,31,-1
 352 145 l 1,20,-1
EndSplineSet
Position2: "'cpsp' Capital Spacing lookup 0 subtable" dx=20 dy=0 dh=41 dv=0
EndChar

StartChar: uni01F1
Encoding: 497 497 35
Width: 2502
VWidth: 1908
GlyphClass: 2
Flags: MW
HStem: 0 145<222 614 352 614 614 629 1628 2376> 1192 143<352 614 352 352 1501 2187>
VStem: 184 168<145 145 145 1192> 1044 174<477 858>
AnchorPoint: "Anchor-1" 1917 1335 basechar 0
AnchorPoint: "Anchor-0" 1933 0 basechar 0
LayerCount: 2
Back
Fore
SplineSet
242 0 m 2,0,1
 184 0 184 0 184 57 c 2,2,-1
 184 1278 l 2,3,4
 184 1335 184 1335 242 1335 c 2,5,-1
 629 1335 l 2,6,7
 731 1335 731 1335 817 1313.5 c 128,-1,8
 903 1292 903 1292 978.5 1242.5 c 128,-1,9
 1054 1193 1054 1193 1106.5 1117.5 c 128,-1,10
 1159 1042 1159 1042 1189 927.5 c 128,-1,11
 1219 813 1219 813 1219 668 c 0,12,13
 1219 547 1219 547 1198.5 447 c 128,-1,14
 1178 347 1178 347 1139 274.5 c 128,-1,15
 1100 202 1100 202 1047.5 148.5 c 128,-1,16
 995 95 995 95 927.5 63 c 128,-1,17
 860 31 860 31 786.5 15.5 c 128,-1,18
 713 0 713 0 629 0 c 2,19,-1
 242 0 l 2,0,1
1446 0 m 2,20,21
 1431 0 1431 0 1415 35.5 c 128,-1,22
 1399 71 1399 71 1399 100 c 0,23,24
 1399 116 1399 116 1405 125 c 2,25,-1
 2187 1192 l 1,26,-1
 1501 1192 l 2,27,28
 1462 1192 1462 1192 1462 1255 c 2,29,-1
 1462 1272 l 2,30,31
 1462 1335 1462 1335 1501 1335 c 2,32,-1
 2376 1335 l 2,33,34
 2386 1335 2386 1335 2401.5 1299.5 c 128,-1,35
 2417 1264 2417 1264 2417 1235 c 0,36,37
 2417 1222 2417 1222 2410 1212 c 2,38,-1
 1628 145 l 1,39,-1
 2376 145 l 2,40,41
 2396 145 2396 145 2404.5 130 c 128,-1,42
 2413 115 2413 115 2413 80 c 2,43,-1
 2413 66 l 2,44,45
 2413 31 2413 31 2404.5 15.5 c 128,-1,46
 2396 0 2396 0 2376 0 c 2,47,-1
 1446 0 l 2,20,21
352 145 m 1,48,-1
 614 145 l 2,49,50
 707 145 707 145 783 174 c 128,-1,51
 859 203 859 203 918.5 263 c 128,-1,52
 978 323 978 323 1011 426 c 128,-1,53
 1044 529 1044 529 1044 668 c 128,-1,54
 1044 807 1044 807 1011 910 c 128,-1,55
 978 1013 978 1013 918.5 1073.5 c 128,-1,56
 859 1134 859 1134 783 1163 c 128,-1,57
 707 1192 707 1192 614 1192 c 2,58,-1
 352 1192 l 1,59,-1
 352 145 l 1,48,-1
EndSplineSet
Position2: "'cpsp' Capital Spacing lookup 0 subtable" dx=20 dy=0 dh=41 dv=0
EndChar

StartChar: uni01C4
Encoding: 452 452 36
Width: 2502
VWidth: 1908
GlyphClass: 2
Flags: MW
HStem: 0 145<222 614 352 614 614 629 1628 2376> 1192 143<352 614 352 352 1501 2187> 1448 106<1872 1913 1913 1913 1913 1939>
VStem: 184 168<145 145 145 1192> 1044 174<477 858>
AnchorPoint: "Anchor-1" 1917 1335 basechar 0
AnchorPoint: "Anchor-0" 1933 0 basechar 0
LayerCount: 2
Back
Fore
SplineSet
1890 1448 m 2,0,1
 1832 1448 1832 1448 1802 1491 c 2,2,-1
 1696 1659 l 2,3,4
 1686 1674 1686 1674 1686 1694 c 0,5,6
 1686 1720 1686 1720 1729 1720 c 2,7,-1
 1733 1720 l 2,8,9
 1768 1720 1768 1720 1798 1696 c 1,10,-1
 1913 1554 l 1,11,-1
 2034 1696 l 1,12,13
 2061 1720 2061 1720 2097 1720 c 2,14,-1
 2101 1720 l 2,15,16
 2146 1720 2146 1720 2146 1692 c 0,17,18
 2146 1679 2146 1679 2136 1659 c 2,19,-1
 2025 1491 l 2,20,21
 1998 1448 1998 1448 1939 1448 c 2,22,-1
 1890 1448 l 2,0,1
242 0 m 2,23,24
 184 0 184 0 184 57 c 2,25,-1
 184 1278 l 2,26,27
 184 1335 184 1335 242 1335 c 2,28,-1
 629 1335 l 2,29,30
 731 1335 731 1335 817 1313.5 c 128,-1,31
 903 1292 903 1292 978.5 1242.5 c 128,-1,32
 1054 1193 1054 1193 1106.5 1117.5 c 128,-1,33
 1159 1042 1159 1042 1189 927.5 c 128,-1,34
 1219 813 1219 813 1219 668 c 0,35,36
 1219 547 1219 547 1198.5 447 c 128,-1,37
 1178 347 1178 347 1139 274.5 c 128,-1,38
 1100 202 1100 202 1047.5 148.5 c 128,-1,39
 995 95 995 95 927.5 63 c 128,-1,40
 860 31 860 31 786.5 15.5 c 128,-1,41
 713 0 713 0 629 0 c 2,42,-1
 242 0 l 2,23,24
1446 0 m 2,43,44
 1431 0 1431 0 1415 35.5 c 128,-1,45
 1399 71 1399 71 1399 100 c 0,46,47
 1399 116 1399 116 1405 125 c 2,48,-1
 2187 1192 l 1,49,-1
 1501 1192 l 2,50,51
 1462 1192 1462 1192 1462 1255 c 2,52,-1
 1462 1272 l 2,53,54
 1462 1335 1462 1335 1501 1335 c 2,55,-1
 2376 1335 l 2,56,57
 2386 1335 2386 1335 2401.5 1299.5 c 128,-1,58
 2417 1264 2417 1264 2417 1235 c 0,59,60
 2417 1222 2417 1222 2410 1212 c 2,61,-1
 1628 145 l 1,62,-1
 2376 145 l 2,63,64
 2396 145 2396 145 2404.5 130 c 128,-1,65
 2413 115 2413 115 2413 80 c 2,66,-1
 2413 66 l 2,67,68
 2413 31 2413 31 2404.5 15.5 c 128,-1,69
 2396 0 2396 0 2376 0 c 2,70,-1
 1446 0 l 2,43,44
352 145 m 1,71,-1
 614 145 l 2,72,73
 707 145 707 145 783 174 c 128,-1,74
 859 203 859 203 918.5 263 c 128,-1,75
 978 323 978 323 1011 426 c 128,-1,76
 1044 529 1044 529 1044 668 c 128,-1,77
 1044 807 1044 807 1011 910 c 128,-1,78
 978 1013 978 1013 918.5 1073.5 c 128,-1,79
 859 1134 859 1134 783 1163 c 128,-1,80
 707 1192 707 1192 614 1192 c 2,81,-1
 352 1192 l 1,82,-1
 352 145 l 1,71,-1
EndSplineSet
Position2: "'cpsp' Capital Spacing lookup 0 subtable" dx=20 dy=0 dh=41 dv=0
EndChar

StartChar: Eth
Encoding: 208 208 37
Width: 1331
VWidth: 1908
GlyphClass: 2
Flags: MW
HStem: 0 145<200 616 330 616 616 631> 610 145<26 162 39 162 330 541> 1192 143<330 616 330 330>
VStem: 162 168<145 145 145 610 756 1192> 1051 172<477 858>
LayerCount: 2
Back
Fore
SplineSet
219 0 m 2,0,1
 189 0 189 0 175.5 13.5 c 128,-1,2
 162 27 162 27 162 57 c 2,3,-1
 162 610 l 1,4,-1
 39 610 l 2,5,6
 0 610 0 610 0 668 c 2,7,-1
 0 698 l 2,8,9
 0 756 0 756 39 756 c 2,10,-1
 162 756 l 1,11,-1
 162 1278 l 2,12,13
 162 1308 162 1308 175.5 1321.5 c 128,-1,14
 189 1335 189 1335 219 1335 c 2,15,-1
 631 1335 l 2,16,17
 733 1335 733 1335 819 1313.5 c 128,-1,18
 905 1292 905 1292 981 1242.5 c 128,-1,19
 1057 1193 1057 1193 1109.5 1117.5 c 128,-1,20
 1162 1042 1162 1042 1192.5 927.5 c 128,-1,21
 1223 813 1223 813 1223 668 c 128,-1,22
 1223 523 1223 523 1192.5 408.5 c 128,-1,23
 1162 294 1162 294 1109.5 218 c 128,-1,24
 1057 142 1057 142 981 92.5 c 128,-1,25
 905 43 905 43 819 21.5 c 128,-1,26
 733 0 733 0 631 0 c 2,27,-1
 219 0 l 2,0,1
330 145 m 1,28,-1
 616 145 l 2,29,30
 709 145 709 145 785.5 174 c 128,-1,31
 862 203 862 203 923 263 c 128,-1,32
 984 323 984 323 1017.5 426 c 128,-1,33
 1051 529 1051 529 1051 668 c 128,-1,34
 1051 807 1051 807 1017.5 910 c 128,-1,35
 984 1013 984 1013 923 1073.5 c 128,-1,36
 862 1134 862 1134 785.5 1163 c 128,-1,37
 709 1192 709 1192 616 1192 c 2,38,-1
 330 1192 l 1,39,-1
 330 756 l 1,40,-1
 541 756 l 2,41,42
 561 756 561 756 569.5 742.5 c 128,-1,43
 578 729 578 729 578 698 c 2,44,-1
 578 668 l 2,45,46
 578 610 578 610 541 610 c 2,47,-1
 330 610 l 1,48,-1
 330 145 l 1,28,-1
EndSplineSet
Position2: "'cpsp' Capital Spacing lookup 0 subtable" dx=20 dy=0 dh=41 dv=0
EndChar

StartChar: Dcaron
Encoding: 270 270 38
Width: 1327
VWidth: 1908
GlyphClass: 2
Flags: MW
HStem: 0 145<222 614 352 614 614 629> 1192 143<352 614 352 352> 1448 106<553 594 594 594 594 621>
VStem: 184 168<145 145 145 1192> 1044 174<477 858>
AnchorPoint: "Anchor-1" 598 1335 basechar 0
AnchorPoint: "Anchor-0" 627 0 basechar 0
LayerCount: 2
Back
Fore
SplineSet
571 1448 m 2,0,1
 513 1448 513 1448 483 1491 c 2,2,-1
 377 1659 l 2,3,4
 367 1674 367 1674 367 1694 c 0,5,6
 367 1720 367 1720 410 1720 c 2,7,-1
 414 1720 l 2,8,9
 449 1720 449 1720 479 1696 c 1,10,-1
 594 1554 l 1,11,-1
 715 1696 l 1,12,13
 742 1720 742 1720 778 1720 c 2,14,-1
 782 1720 l 2,15,16
 827 1720 827 1720 827 1692 c 0,17,18
 827 1679 827 1679 817 1659 c 2,19,-1
 707 1491 l 2,20,21
 680 1448 680 1448 621 1448 c 2,22,-1
 571 1448 l 2,0,1
242 0 m 2,23,24
 184 0 184 0 184 57 c 2,25,-1
 184 1278 l 2,26,27
 184 1335 184 1335 242 1335 c 2,28,-1
 629 1335 l 2,29,30
 731 1335 731 1335 817 1313.5 c 128,-1,31
 903 1292 903 1292 978.5 1242.5 c 128,-1,32
 1054 1193 1054 1193 1106.5 1117.5 c 128,-1,33
 1159 1042 1159 1042 1189 927.5 c 128,-1,34
 1219 813 1219 813 1219 668 c 0,35,36
 1219 547 1219 547 1198.5 447 c 128,-1,37
 1178 347 1178 347 1139 274.5 c 128,-1,38
 1100 202 1100 202 1047.5 148.5 c 128,-1,39
 995 95 995 95 927.5 63 c 128,-1,40
 860 31 860 31 786.5 15.5 c 128,-1,41
 713 0 713 0 629 0 c 2,42,-1
 242 0 l 2,23,24
352 145 m 1,43,-1
 614 145 l 2,44,45
 707 145 707 145 783 174 c 128,-1,46
 859 203 859 203 918.5 263 c 128,-1,47
 978 323 978 323 1011 426 c 128,-1,48
 1044 529 1044 529 1044 668 c 128,-1,49
 1044 807 1044 807 1011 910 c 128,-1,50
 978 1013 978 1013 918.5 1073.5 c 128,-1,51
 859 1134 859 1134 783 1163 c 128,-1,52
 707 1192 707 1192 614 1192 c 2,53,-1
 352 1192 l 1,54,-1
 352 145 l 1,43,-1
EndSplineSet
Position2: "'cpsp' Capital Spacing lookup 0 subtable" dx=20 dy=0 dh=41 dv=0
EndChar

StartChar: Dcroat
Encoding: 272 272 39
Width: 1331
VWidth: 1908
GlyphClass: 2
Flags: MW
HStem: 0 145<200 616 330 616 616 631> 610 145<26 162 39 162 330 541> 1192 143<330 616 330 330>
VStem: 162 168<145 145 145 610 756 1192> 1051 172<477 858>
LayerCount: 2
Back
Fore
SplineSet
219 0 m 2,0,1
 189 0 189 0 175.5 13.5 c 128,-1,2
 162 27 162 27 162 57 c 2,3,-1
 162 610 l 1,4,-1
 39 610 l 2,5,6
 0 610 0 610 0 668 c 2,7,-1
 0 698 l 2,8,9
 0 756 0 756 39 756 c 2,10,-1
 162 756 l 1,11,-1
 162 1278 l 2,12,13
 162 1308 162 1308 175.5 1321.5 c 128,-1,14
 189 1335 189 1335 219 1335 c 2,15,-1
 631 1335 l 2,16,17
 733 1335 733 1335 819 1313.5 c 128,-1,18
 905 1292 905 1292 981 1242.5 c 128,-1,19
 1057 1193 1057 1193 1109.5 1117.5 c 128,-1,20
 1162 1042 1162 1042 1192.5 927.5 c 128,-1,21
 1223 813 1223 813 1223 668 c 128,-1,22
 1223 523 1223 523 1192.5 408.5 c 128,-1,23
 1162 294 1162 294 1109.5 218 c 128,-1,24
 1057 142 1057 142 981 92.5 c 128,-1,25
 905 43 905 43 819 21.5 c 128,-1,26
 733 0 733 0 631 0 c 2,27,-1
 219 0 l 2,0,1
330 145 m 1,28,-1
 616 145 l 2,29,30
 709 145 709 145 785.5 174 c 128,-1,31
 862 203 862 203 923 263 c 128,-1,32
 984 323 984 323 1017.5 426 c 128,-1,33
 1051 529 1051 529 1051 668 c 128,-1,34
 1051 807 1051 807 1017.5 910 c 128,-1,35
 984 1013 984 1013 923 1073.5 c 128,-1,36
 862 1134 862 1134 785.5 1163 c 128,-1,37
 709 1192 709 1192 616 1192 c 2,38,-1
 330 1192 l 1,39,-1
 330 756 l 1,40,-1
 541 756 l 2,41,42
 561 756 561 756 569.5 742.5 c 128,-1,43
 578 729 578 729 578 698 c 2,44,-1
 578 668 l 2,45,46
 578 610 578 610 541 610 c 2,47,-1
 330 610 l 1,48,-1
 330 145 l 1,28,-1
EndSplineSet
Position2: "'cpsp' Capital Spacing lookup 0 subtable" dx=20 dy=0 dh=41 dv=0
EndChar

StartChar: uni1E0C
Encoding: 7692 7692 40
Width: 1327
VWidth: 1908
GlyphClass: 2
Flags: MW
HStem: -334 139<549 655> 0 145<222 614 352 614 614 629> 1192 143<352 614 352 352>
VStem: 184 168<145 145 145 1192> 549 160<-293 -195 -305 -182> 1044 174<477 858>
AnchorPoint: "Anchor-1" 598 1335 basechar 0
AnchorPoint: "Anchor-0" 627 -389 basechar 0
LayerCount: 2
Back
Fore
SplineSet
242 0 m 2,0,1
 184 0 184 0 184 57 c 2,2,-1
 184 1278 l 2,3,4
 184 1335 184 1335 242 1335 c 2,5,-1
 629 1335 l 2,6,7
 731 1335 731 1335 817 1313.5 c 128,-1,8
 903 1292 903 1292 978.5 1242.5 c 128,-1,9
 1054 1193 1054 1193 1106.5 1117.5 c 128,-1,10
 1159 1042 1159 1042 1189 927.5 c 128,-1,11
 1219 813 1219 813 1219 668 c 0,12,13
 1219 547 1219 547 1198.5 447 c 128,-1,14
 1178 347 1178 347 1139 274.5 c 128,-1,15
 1100 202 1100 202 1047.5 148.5 c 128,-1,16
 995 95 995 95 927.5 63 c 128,-1,17
 860 31 860 31 786.5 15.5 c 128,-1,18
 713 0 713 0 629 0 c 2,19,-1
 242 0 l 2,0,1
352 145 m 1,20,-1
 614 145 l 2,21,22
 707 145 707 145 783 174 c 128,-1,23
 859 203 859 203 918.5 263 c 128,-1,24
 978 323 978 323 1011 426 c 128,-1,25
 1044 529 1044 529 1044 668 c 128,-1,26
 1044 807 1044 807 1011 910 c 128,-1,27
 978 1013 978 1013 918.5 1073.5 c 128,-1,28
 859 1134 859 1134 783 1163 c 128,-1,29
 707 1192 707 1192 614 1192 c 2,30,-1
 352 1192 l 1,31,-1
 352 145 l 1,20,-1
625 -334 m 0,32,33
 549 -334 549 -334 549 -293 c 2,34,-1
 549 -195 l 2,35,36
 549 -154 549 -154 633 -154 c 0,37,38
 709 -154 709 -154 709 -195 c 2,39,-1
 709 -293 l 2,40,41
 709 -334 709 -334 625 -334 c 0,32,33
EndSplineSet
Position2: "'cpsp' Capital Spacing lookup 0 subtable" dx=20 dy=0 dh=41 dv=0
EndChar

StartChar: uni01F2
Encoding: 498 498 41
Width: 2260
VWidth: 1908
GlyphClass: 2
Flags: MW
HStem: 0 137<1622 2146 1622 2146> 860 137<1461 2144 1475 1962> 1192 143<352 614 352 352>
VStem: 184 168<145 145 145 1192> 1044 174<477 858>
AnchorPoint: "Anchor-1" 1794 999 basechar 0
AnchorPoint: "Anchor-0" 1782 0 basechar 0
LayerCount: 2
Back
Fore
SplineSet
242 0 m 2,0,1
 184 0 184 0 184 57 c 2,2,-1
 184 1278 l 2,3,4
 184 1335 184 1335 242 1335 c 2,5,-1
 629 1335 l 2,6,7
 731 1335 731 1335 817 1313.5 c 128,-1,8
 903 1292 903 1292 978.5 1242.5 c 128,-1,9
 1054 1193 1054 1193 1106.5 1117.5 c 128,-1,10
 1159 1042 1159 1042 1189 927.5 c 128,-1,11
 1219 813 1219 813 1219 668 c 0,12,13
 1219 547 1219 547 1198.5 447 c 128,-1,14
 1178 347 1178 347 1139 274.5 c 128,-1,15
 1100 202 1100 202 1047.5 148.5 c 128,-1,16
 995 95 995 95 927.5 63 c 128,-1,17
 860 31 860 31 786.5 15.5 c 128,-1,18
 713 0 713 0 629 0 c 2,19,-1
 242 0 l 2,0,1
352 145 m 1,20,-1
 614 145 l 2,21,22
 707 145 707 145 783 174 c 128,-1,23
 859 203 859 203 918.5 263 c 128,-1,24
 978 323 978 323 1011 426 c 128,-1,25
 1044 529 1044 529 1044 668 c 128,-1,26
 1044 807 1044 807 1011 910 c 128,-1,27
 978 1013 978 1013 918.5 1073.5 c 128,-1,28
 859 1134 859 1134 783 1163 c 128,-1,29
 707 1192 707 1192 614 1192 c 2,30,-1
 352 1192 l 1,31,-1
 352 145 l 1,20,-1
1440 0 m 2,32,33
 1429 0 1429 0 1413 35 c 128,-1,34
 1397 70 1397 70 1397 98 c 0,35,36
 1397 110 1397 110 1403 119 c 2,37,-1
 1962 860 l 1,38,-1
 1475 860 l 2,39,40
 1436 860 1436 860 1436 918 c 2,41,-1
 1436 940 l 2,42,43
 1436 997 1436 997 1475 997 c 2,44,-1
 2144 997 l 2,45,46
 2157 997 2157 997 2170 962 c 128,-1,47
 2183 927 2183 927 2183 899 c 0,48,49
 2183 889 2183 889 2179 881 c 2,50,-1
 1622 137 l 1,51,-1
 2146 137 l 2,52,53
 2166 137 2166 137 2174.5 124 c 128,-1,54
 2183 111 2183 111 2183 80 c 2,55,-1
 2183 57 l 2,56,57
 2183 26 2183 26 2174.5 13 c 128,-1,58
 2166 0 2166 0 2146 0 c 2,59,-1
 1440 0 l 2,32,33
EndSplineSet
Position2: "'cpsp' Capital Spacing lookup 0 subtable" dx=20 dy=0 dh=41 dv=0
EndChar

StartChar: uni01C5
Encoding: 453 453 42
Width: 2260
VWidth: 1908
GlyphClass: 2
Flags: MW
HStem: 0 137<1622 2146 1622 2146> 860 137<1461 2144 1475 1962> 1110 106<1751 1792 1792 1792 1792 1819> 1192 143<352 614 352 352>
VStem: 184 168<145 145 145 1192> 1044 174<477 858>
AnchorPoint: "Anchor-1" 1794 999 basechar 0
AnchorPoint: "Anchor-0" 1782 0 basechar 0
LayerCount: 2
Back
Fore
SplineSet
1769 1110 m 2,0,1
 1711 1110 1711 1110 1681 1153 c 2,2,-1
 1575 1321 l 2,3,4
 1565 1336 1565 1336 1565 1356 c 0,5,6
 1565 1382 1565 1382 1608 1382 c 2,7,-1
 1612 1382 l 2,8,9
 1647 1382 1647 1382 1677 1358 c 1,10,-1
 1792 1217 l 1,11,-1
 1913 1358 l 1,12,13
 1940 1382 1940 1382 1976 1382 c 2,14,-1
 1980 1382 l 2,15,16
 2025 1382 2025 1382 2025 1354 c 0,17,18
 2025 1341 2025 1341 2015 1321 c 2,19,-1
 1905 1153 l 2,20,21
 1878 1110 1878 1110 1819 1110 c 2,22,-1
 1769 1110 l 2,0,1
242 0 m 2,23,24
 184 0 184 0 184 57 c 2,25,-1
 184 1278 l 2,26,27
 184 1335 184 1335 242 1335 c 2,28,-1
 629 1335 l 2,29,30
 731 1335 731 1335 817 1313.5 c 128,-1,31
 903 1292 903 1292 978.5 1242.5 c 128,-1,32
 1054 1193 1054 1193 1106.5 1117.5 c 128,-1,33
 1159 1042 1159 1042 1189 927.5 c 128,-1,34
 1219 813 1219 813 1219 668 c 0,35,36
 1219 547 1219 547 1198.5 447 c 128,-1,37
 1178 347 1178 347 1139 274.5 c 128,-1,38
 1100 202 1100 202 1047.5 148.5 c 128,-1,39
 995 95 995 95 927.5 63 c 128,-1,40
 860 31 860 31 786.5 15.5 c 128,-1,41
 713 0 713 0 629 0 c 2,42,-1
 242 0 l 2,23,24
352 145 m 1,43,-1
 614 145 l 2,44,45
 707 145 707 145 783 174 c 128,-1,46
 859 203 859 203 918.5 263 c 128,-1,47
 978 323 978 323 1011 426 c 128,-1,48
 1044 529 1044 529 1044 668 c 128,-1,49
 1044 807 1044 807 1011 910 c 128,-1,50
 978 1013 978 1013 918.5 1073.5 c 128,-1,51
 859 1134 859 1134 783 1163 c 128,-1,52
 707 1192 707 1192 614 1192 c 2,53,-1
 352 1192 l 1,54,-1
 352 145 l 1,43,-1
1440 0 m 2,55,56
 1429 0 1429 0 1413 35 c 128,-1,57
 1397 70 1397 70 1397 98 c 0,58,59
 1397 110 1397 110 1403 119 c 2,60,-1
 1962 860 l 1,61,-1
 1475 860 l 2,62,63
 1436 860 1436 860 1436 918 c 2,64,-1
 1436 940 l 2,65,66
 1436 997 1436 997 1475 997 c 2,67,-1
 2144 997 l 2,68,69
 2157 997 2157 997 2170 962 c 128,-1,70
 2183 927 2183 927 2183 899 c 0,71,72
 2183 889 2183 889 2179 881 c 2,73,-1
 1622 137 l 1,74,-1
 2146 137 l 2,75,76
 2166 137 2166 137 2174.5 124 c 128,-1,77
 2183 111 2183 111 2183 80 c 2,78,-1
 2183 57 l 2,79,80
 2183 26 2183 26 2174.5 13 c 128,-1,81
 2166 0 2166 0 2146 0 c 2,82,-1
 1440 0 l 2,55,56
EndSplineSet
Position2: "'cpsp' Capital Spacing lookup 0 subtable" dx=20 dy=0 dh=41 dv=0
EndChar

StartChar: E
Encoding: 69 69 43
Width: 1044
VWidth: 1908
GlyphClass: 2
Flags: MW
HStem: 0 145<222 911 352 911 352 911> 610 145<352 852 352 852> 1192 143<352 909 352 352>
VStem: 184 168<145 610 756 1192>
AnchorPoint: "Anchor-1" 565 1335 basechar 0
AnchorPoint: "Anchor-0" 573 0 basechar 0
LayerCount: 2
Back
Fore
SplineSet
242 0 m 2,0,1
 184 0 184 0 184 57 c 2,2,-1
 184 1278 l 2,3,4
 184 1335 184 1335 242 1335 c 2,5,-1
 909 1335 l 2,6,7
 929 1335 929 1335 937.5 1322 c 128,-1,8
 946 1309 946 1309 946 1278 c 2,9,-1
 946 1249 l 2,10,11
 946 1218 946 1218 937.5 1205 c 128,-1,12
 929 1192 929 1192 909 1192 c 2,13,-1
 352 1192 l 1,14,-1
 352 756 l 1,15,-1
 852 756 l 2,16,17
 872 756 872 756 880.5 742.5 c 128,-1,18
 889 729 889 729 889 698 c 2,19,-1
 889 668 l 2,20,21
 889 610 889 610 852 610 c 2,22,-1
 352 610 l 1,23,-1
 352 145 l 1,24,-1
 911 145 l 2,25,26
 948 145 948 145 948 88 c 2,27,-1
 948 57 l 2,28,29
 948 26 948 26 939.5 13 c 128,-1,30
 931 0 931 0 911 0 c 2,31,-1
 242 0 l 2,0,1
EndSplineSet
Position2: "'cpsp' Capital Spacing lookup 0 subtable" dx=20 dy=0 dh=41 dv=0
EndChar

StartChar: Eacute
Encoding: 201 201 44
Width: 1044
VWidth: 1908
GlyphClass: 2
Flags: MW
HStem: 0 145<222 911 352 911 352 911> 610 145<352 852 352 852> 1192 143<352 909 352 352> 1454 281<517 750>
VStem: 184 168<145 610 756 1192>
AnchorPoint: "Anchor-1" 565 1335 basechar 0
AnchorPoint: "Anchor-0" 573 0 basechar 0
LayerCount: 2
Back
Fore
SplineSet
532 1454 m 0,0,1
 489 1454 489 1454 489 1475 c 0,2,3
 489 1488 489 1488 507.5 1522 c 128,-1,4
 526 1556 526 1556 600 1686 c 0,5,6
 626 1735 626 1735 719 1735 c 0,7,8
 811 1735 811 1735 811 1710 c 0,9,10
 811 1698 811 1698 790 1671.5 c 128,-1,11
 769 1645 769 1645 696 1562 c 0,12,13
 656 1517 656 1517 631 1489 c 0,14,15
 601 1454 601 1454 532 1454 c 0,0,1
242 0 m 2,16,17
 184 0 184 0 184 57 c 2,18,-1
 184 1278 l 2,19,20
 184 1335 184 1335 242 1335 c 2,21,-1
 909 1335 l 2,22,23
 929 1335 929 1335 937.5 1322 c 128,-1,24
 946 1309 946 1309 946 1278 c 2,25,-1
 946 1249 l 2,26,27
 946 1218 946 1218 937.5 1205 c 128,-1,28
 929 1192 929 1192 909 1192 c 2,29,-1
 352 1192 l 1,30,-1
 352 756 l 1,31,-1
 852 756 l 2,32,33
 872 756 872 756 880.5 742.5 c 128,-1,34
 889 729 889 729 889 698 c 2,35,-1
 889 668 l 2,36,37
 889 610 889 610 852 610 c 2,38,-1
 352 610 l 1,39,-1
 352 145 l 1,40,-1
 911 145 l 2,41,42
 948 145 948 145 948 88 c 2,43,-1
 948 57 l 2,44,45
 948 26 948 26 939.5 13 c 128,-1,46
 931 0 931 0 911 0 c 2,47,-1
 242 0 l 2,16,17
EndSplineSet
Position2: "'cpsp' Capital Spacing lookup 0 subtable" dx=20 dy=0 dh=41 dv=0
EndChar

StartChar: Ebreve
Encoding: 276 276 45
Width: 1044
VWidth: 1908
GlyphClass: 2
Flags: MW
HStem: 0 145<222 911 352 911 352 911> 610 145<352 852 352 852> 1192 143<352 909 352 352> 1454 201
VStem: 184 168<145 610 756 1192> 289 551<1601 1683>
AnchorPoint: "Anchor-1" 565 1618 basechar 0
AnchorPoint: "Anchor-0" 573 0 basechar 0
LayerCount: 2
Back
Fore
SplineSet
565 1454 m 0,0,1
 454 1454 454 1454 371.5 1512 c 128,-1,2
 289 1570 289 1570 289 1673 c 0,3,4
 289 1702 289 1702 317 1702 c 0,5,6
 329 1702 329 1702 335.5 1698.5 c 128,-1,7
 342 1695 342 1695 344.5 1690.5 c 128,-1,8
 347 1686 347 1686 351.5 1674.5 c 128,-1,9
 356 1663 356 1663 360 1655 c 0,10,11
 400 1581 400 1581 565 1581 c 128,-1,12
 730 1581 730 1581 770 1655 c 0,13,14
 773 1662 773 1662 777.5 1674.5 c 128,-1,15
 782 1687 782 1687 784.5 1691 c 128,-1,16
 787 1695 787 1695 793.5 1698.5 c 128,-1,17
 800 1702 800 1702 811 1702 c 0,18,19
 828 1702 828 1702 834 1695.5 c 128,-1,20
 840 1689 840 1689 840 1673 c 0,21,22
 840 1604 840 1604 798.5 1552.5 c 128,-1,23
 757 1501 757 1501 696 1477.5 c 128,-1,24
 635 1454 635 1454 565 1454 c 0,0,1
242 0 m 2,25,26
 184 0 184 0 184 57 c 2,27,-1
 184 1278 l 2,28,29
 184 1335 184 1335 242 1335 c 2,30,-1
 909 1335 l 2,31,32
 929 1335 929 1335 937.5 1322 c 128,-1,33
 946 1309 946 1309 946 1278 c 2,34,-1
 946 1249 l 2,35,36
 946 1218 946 1218 937.5 1205 c 128,-1,37
 929 1192 929 1192 909 1192 c 2,38,-1
 352 1192 l 1,39,-1
 352 756 l 1,40,-1
 852 756 l 2,41,42
 872 756 872 756 880.5 742.5 c 128,-1,43
 889 729 889 729 889 698 c 2,44,-1
 889 668 l 2,45,46
 889 610 889 610 852 610 c 2,47,-1
 352 610 l 1,48,-1
 352 145 l 1,49,-1
 911 145 l 2,50,51
 948 145 948 145 948 88 c 2,52,-1
 948 57 l 2,53,54
 948 26 948 26 939.5 13 c 128,-1,55
 931 0 931 0 911 0 c 2,56,-1
 242 0 l 2,25,26
EndSplineSet
Position2: "'cpsp' Capital Spacing lookup 0 subtable" dx=20 dy=0 dh=41 dv=0
EndChar

StartChar: Ecaron
Encoding: 282 282 46
Width: 1044
VWidth: 1908
GlyphClass: 2
Flags: MW
HStem: 0 145<222 911 352 911 352 911> 610 145<352 852 352 852> 1192 143<352 909 352 352> 1448 106<522 563 563 563 563 590>
VStem: 184 168<145 610 756 1192>
AnchorPoint: "Anchor-1" 565 1335 basechar 0
AnchorPoint: "Anchor-0" 573 0 basechar 0
LayerCount: 2
Back
Fore
SplineSet
541 1448 m 2,0,1
 483 1448 483 1448 453 1491 c 2,2,-1
 346 1659 l 2,3,4
 336 1674 336 1674 336 1694 c 0,5,6
 336 1720 336 1720 379 1720 c 2,7,-1
 383 1720 l 2,8,9
 419 1720 419 1720 449 1696 c 1,10,-1
 563 1554 l 1,11,-1
 684 1696 l 1,12,13
 711 1720 711 1720 748 1720 c 2,14,-1
 752 1720 l 2,15,16
 797 1720 797 1720 797 1692 c 0,17,18
 797 1681 797 1681 786 1659 c 2,19,-1
 676 1491 l 2,20,21
 649 1448 649 1448 590 1448 c 2,22,-1
 541 1448 l 2,0,1
242 0 m 2,23,24
 184 0 184 0 184 57 c 2,25,-1
 184 1278 l 2,26,27
 184 1335 184 1335 242 1335 c 2,28,-1
 909 1335 l 2,29,30
 929 1335 929 1335 937.5 1322 c 128,-1,31
 946 1309 946 1309 946 1278 c 2,32,-1
 946 1249 l 2,33,34
 946 1218 946 1218 937.5 1205 c 128,-1,35
 929 1192 929 1192 909 1192 c 2,36,-1
 352 1192 l 1,37,-1
 352 756 l 1,38,-1
 852 756 l 2,39,40
 872 756 872 756 880.5 742.5 c 128,-1,41
 889 729 889 729 889 698 c 2,42,-1
 889 668 l 2,43,44
 889 610 889 610 852 610 c 2,45,-1
 352 610 l 1,46,-1
 352 145 l 1,47,-1
 911 145 l 2,48,49
 948 145 948 145 948 88 c 2,50,-1
 948 57 l 2,51,52
 948 26 948 26 939.5 13 c 128,-1,53
 931 0 931 0 911 0 c 2,54,-1
 242 0 l 2,23,24
EndSplineSet
Position2: "'cpsp' Capital Spacing lookup 0 subtable" dx=20 dy=0 dh=41 dv=0
EndChar

StartChar: Ecircumflex
Encoding: 202 202 47
Width: 1044
VWidth: 1908
GlyphClass: 2
Flags: MW
HStem: 0 145<222 911 352 911 352 911> 610 145<352 852 352 852> 1192 143<352 909 352 352> 1604 104<563 563>
VStem: 184 168<145 610 756 1192>
AnchorPoint: "Anchor-1" 877 1528 basechar 0
AnchorPoint: "Anchor-0" 573 0 basechar 0
LayerCount: 2
Back
Fore
SplineSet
379 1438 m 2,0,1
 336 1438 336 1438 336 1464 c 0,2,3
 336 1482 336 1482 346 1499 c 2,4,-1
 453 1667 l 2,5,6
 481 1708 481 1708 541 1708 c 2,7,-1
 590 1708 l 2,8,9
 651 1708 651 1708 676 1667 c 2,10,-1
 786 1499 l 2,11,12
 797 1477 797 1477 797 1466 c 0,13,14
 797 1438 797 1438 752 1438 c 2,15,-1
 748 1438 l 2,16,17
 711 1438 711 1438 684 1462 c 1,18,-1
 563 1604 l 1,19,-1
 449 1462 l 1,20,21
 419 1438 419 1438 383 1438 c 2,22,-1
 379 1438 l 2,0,1
242 0 m 2,23,24
 184 0 184 0 184 57 c 2,25,-1
 184 1278 l 2,26,27
 184 1335 184 1335 242 1335 c 2,28,-1
 909 1335 l 2,29,30
 929 1335 929 1335 937.5 1322 c 128,-1,31
 946 1309 946 1309 946 1278 c 2,32,-1
 946 1249 l 2,33,34
 946 1218 946 1218 937.5 1205 c 128,-1,35
 929 1192 929 1192 909 1192 c 2,36,-1
 352 1192 l 1,37,-1
 352 756 l 1,38,-1
 852 756 l 2,39,40
 872 756 872 756 880.5 742.5 c 128,-1,41
 889 729 889 729 889 698 c 2,42,-1
 889 668 l 2,43,44
 889 610 889 610 852 610 c 2,45,-1
 352 610 l 1,46,-1
 352 145 l 1,47,-1
 911 145 l 2,48,49
 948 145 948 145 948 88 c 2,50,-1
 948 57 l 2,51,52
 948 26 948 26 939.5 13 c 128,-1,53
 931 0 931 0 911 0 c 2,54,-1
 242 0 l 2,23,24
EndSplineSet
Position2: "'cpsp' Capital Spacing lookup 0 subtable" dx=20 dy=0 dh=41 dv=0
EndChar

StartChar: uni1EBE
Encoding: 7870 7870 48
Width: 1044
VWidth: 1908
GlyphClass: 2
Flags: MW
HStem: 0 145<222 911 352 911 352 911> 610 145<352 852 352 852> 1192 143<352 909 352 352> 1573 135
VStem: 184 168<145 610 756 1192>
AnchorPoint: "Anchor-1" 836 1581 basechar 0
AnchorPoint: "Anchor-0" 573 0 basechar 0
LayerCount: 2
Back
Fore
SplineSet
815 1573 m 0,0,1
 770 1573 770 1573 770 1591 c 0,2,3
 770 1607 770 1607 838 1737 c 0,4,5
 853 1767 853 1767 862 1784 c 0,6,7
 890 1835 890 1835 965 1835 c 0,8,9
 997 1835 997 1835 1010.5 1829 c 128,-1,10
 1024 1823 1024 1823 1024 1808 c 0,11,12
 1024 1798 1024 1798 1009 1775.5 c 128,-1,13
 994 1753 994 1753 946 1690 c 0,14,15
 934 1675 934 1675 927 1665.5 c 128,-1,16
 920 1656 920 1656 907.5 1639.5 c 128,-1,17
 895 1623 895 1623 883 1608 c 0,18,19
 859 1573 859 1573 815 1573 c 0,0,1
385 1438 m 2,20,21
 342 1438 342 1438 342 1464 c 0,22,23
 342 1482 342 1482 352 1499 c 2,24,-1
 459 1667 l 2,25,26
 487 1708 487 1708 547 1708 c 2,27,-1
 596 1708 l 2,28,29
 641 1708 641 1708 664 1667 c 2,30,-1
 764 1499 l 2,31,32
 774 1479 774 1479 774 1466 c 0,33,34
 774 1438 774 1438 729 1438 c 2,35,-1
 725 1438 l 2,36,37
 680 1438 680 1438 662 1462 c 2,38,-1
 569 1604 l 1,39,-1
 455 1462 l 1,40,41
 425 1438 425 1438 389 1438 c 2,42,-1
 385 1438 l 2,20,21
242 0 m 2,43,44
 184 0 184 0 184 57 c 2,45,-1
 184 1278 l 2,46,47
 184 1335 184 1335 242 1335 c 2,48,-1
 909 1335 l 2,49,50
 929 1335 929 1335 937.5 1322 c 128,-1,51
 946 1309 946 1309 946 1278 c 2,52,-1
 946 1249 l 2,53,54
 946 1218 946 1218 937.5 1205 c 128,-1,55
 929 1192 929 1192 909 1192 c 2,56,-1
 352 1192 l 1,57,-1
 352 756 l 1,58,-1
 852 756 l 2,59,60
 872 756 872 756 880.5 742.5 c 128,-1,61
 889 729 889 729 889 698 c 2,62,-1
 889 668 l 2,63,64
 889 610 889 610 852 610 c 2,65,-1
 352 610 l 1,66,-1
 352 145 l 1,67,-1
 911 145 l 2,68,69
 948 145 948 145 948 88 c 2,70,-1
 948 57 l 2,71,72
 948 26 948 26 939.5 13 c 128,-1,73
 931 0 931 0 911 0 c 2,74,-1
 242 0 l 2,43,44
EndSplineSet
Position2: "'cpsp' Capital Spacing lookup 0 subtable" dx=20 dy=0 dh=41 dv=0
EndChar

StartChar: uni1EC6
Encoding: 7878 7878 49
Width: 1044
VWidth: 1908
GlyphClass: 2
Flags: MW
HStem: -334 139<498 604> 0 145<222 911 352 911 352 911> 610 145<352 852 352 852> 1192 143<352 909 352 352> 1604 104<563 563>
VStem: 184 168<145 610 756 1192> 498 160<-293 -195 -305 -182>
AnchorPoint: "Anchor-1" 877 1528 basechar 0
AnchorPoint: "Anchor-0" 573 -389 basechar 0
LayerCount: 2
Back
Fore
SplineSet
379 1438 m 2,0,1
 336 1438 336 1438 336 1464 c 0,2,3
 336 1482 336 1482 346 1499 c 2,4,-1
 453 1667 l 2,5,6
 481 1708 481 1708 541 1708 c 2,7,-1
 590 1708 l 2,8,9
 651 1708 651 1708 676 1667 c 2,10,-1
 786 1499 l 2,11,12
 797 1477 797 1477 797 1466 c 0,13,14
 797 1438 797 1438 752 1438 c 2,15,-1
 748 1438 l 2,16,17
 711 1438 711 1438 684 1462 c 1,18,-1
 563 1604 l 1,19,-1
 449 1462 l 1,20,21
 419 1438 419 1438 383 1438 c 2,22,-1
 379 1438 l 2,0,1
242 0 m 2,23,24
 184 0 184 0 184 57 c 2,25,-1
 184 1278 l 2,26,27
 184 1335 184 1335 242 1335 c 2,28,-1
 909 1335 l 2,29,30
 929 1335 929 1335 937.5 1322 c 128,-1,31
 946 1309 946 1309 946 1278 c 2,32,-1
 946 1249 l 2,33,34
 946 1218 946 1218 937.5 1205 c 128,-1,35
 929 1192 929 1192 909 1192 c 2,36,-1
 352 1192 l 1,37,-1
 352 756 l 1,38,-1
 852 756 l 2,39,40
 872 756 872 756 880.5 742.5 c 128,-1,41
 889 729 889 729 889 698 c 2,42,-1
 889 668 l 2,43,44
 889 610 889 610 852 610 c 2,45,-1
 352 610 l 1,46,-1
 352 145 l 1,47,-1
 911 145 l 2,48,49
 948 145 948 145 948 88 c 2,50,-1
 948 57 l 2,51,52
 948 26 948 26 939.5 13 c 128,-1,53
 931 0 931 0 911 0 c 2,54,-1
 242 0 l 2,23,24
573 -334 m 0,55,56
 498 -334 498 -334 498 -293 c 2,57,-1
 498 -195 l 2,58,59
 498 -154 498 -154 582 -154 c 0,60,61
 657 -154 657 -154 657 -195 c 2,62,-1
 657 -293 l 2,63,64
 657 -334 657 -334 573 -334 c 0,55,56
EndSplineSet
Position2: "'cpsp' Capital Spacing lookup 0 subtable" dx=20 dy=0 dh=41 dv=0
EndChar

StartChar: uni1EC0
Encoding: 7872 7872 50
Width: 1044
VWidth: 1908
GlyphClass: 2
Flags: MW
HStem: 0 145<222 911 352 911 352 911> 610 145<352 852 352 852> 1192 143<352 909 352 352> 1573 262<722 888> 1604 104<569 569>
VStem: 184 168<145 610 756 1192>
AnchorPoint: "Anchor-1" 836 1581 basechar 0
AnchorPoint: "Anchor-0" 573 0 basechar 0
LayerCount: 2
Back
Fore
SplineSet
872 1573 m 128,-1,1
 826 1573 826 1573 805 1608 c 0,2,3
 788 1633 788 1633 772 1658 c 128,-1,4
 756 1683 756 1683 745.5 1699 c 128,-1,5
 735 1715 735 1715 725 1730.5 c 128,-1,6
 715 1746 715 1746 709 1755 c 128,-1,7
 703 1764 703 1764 697.5 1772.5 c 128,-1,8
 692 1781 692 1781 689.5 1785.5 c 128,-1,9
 687 1790 687 1790 685 1794.5 c 128,-1,10
 683 1799 683 1799 682.5 1802 c 128,-1,11
 682 1805 682 1805 682 1808 c 0,12,13
 682 1823 682 1823 696 1829 c 128,-1,14
 710 1835 710 1835 750 1835 c 0,15,16
 781 1835 781 1835 807.5 1822.5 c 128,-1,17
 834 1810 834 1810 844 1784 c 0,18,19
 918 1610 918 1610 918 1591 c 0,20,0
 918 1573 918 1573 872 1573 c 128,-1,1
385 1438 m 2,21,22
 342 1438 342 1438 342 1464 c 0,23,24
 342 1482 342 1482 352 1499 c 2,25,-1
 459 1667 l 2,26,27
 487 1708 487 1708 547 1708 c 2,28,-1
 596 1708 l 2,29,30
 641 1708 641 1708 664 1667 c 2,31,-1
 764 1499 l 2,32,33
 774 1479 774 1479 774 1466 c 0,34,35
 774 1438 774 1438 729 1438 c 2,36,-1
 725 1438 l 2,37,38
 680 1438 680 1438 662 1462 c 2,39,-1
 569 1604 l 1,40,-1
 455 1462 l 1,41,42
 425 1438 425 1438 389 1438 c 2,43,-1
 385 1438 l 2,21,22
242 0 m 2,44,45
 184 0 184 0 184 57 c 2,46,-1
 184 1278 l 2,47,48
 184 1335 184 1335 242 1335 c 2,49,-1
 909 1335 l 2,50,51
 929 1335 929 1335 937.5 1322 c 128,-1,52
 946 1309 946 1309 946 1278 c 2,53,-1
 946 1249 l 2,54,55
 946 1218 946 1218 937.5 1205 c 128,-1,56
 929 1192 929 1192 909 1192 c 2,57,-1
 352 1192 l 1,58,-1
 352 756 l 1,59,-1
 852 756 l 2,60,61
 872 756 872 756 880.5 742.5 c 128,-1,62
 889 729 889 729 889 698 c 2,63,-1
 889 668 l 2,64,65
 889 610 889 610 852 610 c 2,66,-1
 352 610 l 1,67,-1
 352 145 l 1,68,-1
 911 145 l 2,69,70
 948 145 948 145 948 88 c 2,71,-1
 948 57 l 2,72,73
 948 26 948 26 939.5 13 c 128,-1,74
 931 0 931 0 911 0 c 2,75,-1
 242 0 l 2,44,45
EndSplineSet
Position2: "'cpsp' Capital Spacing lookup 0 subtable" dx=20 dy=0 dh=41 dv=0
EndChar

StartChar: uni1EC2
Encoding: 7874 7874 51
Width: 1044
VWidth: 1908
GlyphClass: 2
Flags: MW
HStem: 0 145<222 911 352 911 352 911> 610 145<352 852 352 852> 1192 143<352 909 352 352> 1604 104<569 569> 1778 92<788 826>
VStem: 184 168<145 610 756 1192> 877 111<1713 1743>
AnchorPoint: "Anchor-1" 836 1847 basechar 0
AnchorPoint: "Anchor-0" 573 0 basechar 0
LayerCount: 2
Back
Fore
SplineSet
842 1575 m 0,0,1
 813 1575 813 1575 791.5 1587.5 c 128,-1,2
 770 1600 770 1600 770 1614 c 0,3,4
 770 1630 770 1630 819 1655 c 0,5,6
 877 1686 877 1686 877 1726 c 0,7,8
 877 1750 877 1750 857 1764 c 128,-1,9
 837 1778 837 1778 807 1778 c 0,10,11
 781 1778 781 1778 761.5 1772 c 128,-1,12
 742 1766 742 1766 732 1759.5 c 128,-1,13
 722 1753 722 1753 719 1753 c 0,14,15
 709 1753 709 1753 691.5 1777 c 128,-1,16
 674 1801 674 1801 674 1815 c 0,17,18
 674 1835 674 1835 722 1852.5 c 128,-1,19
 770 1870 770 1870 821 1870 c 0,20,21
 859 1870 859 1870 894 1859 c 128,-1,22
 929 1848 929 1848 958 1817 c 128,-1,23
 987 1786 987 1786 987 1739 c 0,24,25
 987 1673 987 1673 920 1618 c 0,26,27
 902 1601 902 1601 876.5 1588 c 128,-1,28
 851 1575 851 1575 842 1575 c 0,0,1
385 1438 m 2,29,30
 342 1438 342 1438 342 1464 c 0,31,32
 342 1482 342 1482 352 1499 c 2,33,-1
 459 1667 l 2,34,35
 487 1708 487 1708 547 1708 c 2,36,-1
 596 1708 l 2,37,38
 641 1708 641 1708 664 1667 c 2,39,-1
 764 1499 l 2,40,41
 774 1479 774 1479 774 1466 c 0,42,43
 774 1438 774 1438 729 1438 c 2,44,-1
 725 1438 l 2,45,46
 680 1438 680 1438 662 1462 c 2,47,-1
 569 1604 l 1,48,-1
 455 1462 l 1,49,50
 425 1438 425 1438 389 1438 c 2,51,-1
 385 1438 l 2,29,30
242 0 m 2,52,53
 184 0 184 0 184 57 c 2,54,-1
 184 1278 l 2,55,56
 184 1335 184 1335 242 1335 c 2,57,-1
 909 1335 l 2,58,59
 929 1335 929 1335 937.5 1322 c 128,-1,60
 946 1309 946 1309 946 1278 c 2,61,-1
 946 1249 l 2,62,63
 946 1218 946 1218 937.5 1205 c 128,-1,64
 929 1192 929 1192 909 1192 c 2,65,-1
 352 1192 l 1,66,-1
 352 756 l 1,67,-1
 852 756 l 2,68,69
 872 756 872 756 880.5 742.5 c 128,-1,70
 889 729 889 729 889 698 c 2,71,-1
 889 668 l 2,72,73
 889 610 889 610 852 610 c 2,74,-1
 352 610 l 1,75,-1
 352 145 l 1,76,-1
 911 145 l 2,77,78
 948 145 948 145 948 88 c 2,79,-1
 948 57 l 2,80,81
 948 26 948 26 939.5 13 c 128,-1,82
 931 0 931 0 911 0 c 2,83,-1
 242 0 l 2,52,53
EndSplineSet
Position2: "'cpsp' Capital Spacing lookup 0 subtable" dx=20 dy=0 dh=41 dv=0
EndChar

StartChar: uni1EC4
Encoding: 7876 7876 52
Width: 1044
VWidth: 1908
GlyphClass: 2
Flags: MW
HStem: 0 145<222 911 352 911 352 911> 610 145<352 852 352 852> 1192 143<352 909 352 352> 1559 104<563 563> 1735 106<684 740 684 756> 1817 106<399 455>
VStem: 184 168<145 610 756 1192>
AnchorPoint: "Anchor-1" 565 1335 basechar 0
AnchorPoint: "Anchor-0" 573 0 basechar 0
LayerCount: 2
Back
Fore
SplineSet
293 1737 m 1,0,-1
 274 1743 l 2,1,2
 258 1751 258 1751 258 1767 c 0,3,4
 258 1777 258 1777 264 1792 c 0,5,6
 291 1862 291 1862 329.5 1892.5 c 128,-1,7
 368 1923 368 1923 424 1923 c 0,8,9
 476 1923 476 1923 581 1882 c 128,-1,10
 686 1841 686 1841 725 1841 c 0,11,12
 748 1841 748 1841 765 1853 c 128,-1,13
 782 1865 782 1865 801 1896 c 0,14,15
 818 1925 818 1925 836 1925 c 0,16,17
 842 1925 842 1925 854 1919 c 2,18,-1
 866 1913 l 1,19,20
 887 1907 887 1907 887 1890 c 0,21,22
 887 1882 887 1882 881 1864 c 0,23,24
 852 1795 852 1795 813.5 1765 c 128,-1,25
 775 1735 775 1735 721 1735 c 0,26,27
 665 1735 665 1735 558.5 1776 c 128,-1,28
 452 1817 452 1817 414 1817 c 0,29,30
 393 1817 393 1817 377 1804 c 128,-1,31
 361 1791 361 1791 342 1759 c 0,32,33
 325 1731 325 1731 309 1731 c 0,34,35
 302 1731 302 1731 293 1737 c 1,0,-1
379 1438 m 2,36,37
 336 1438 336 1438 336 1464 c 0,38,39
 336 1482 336 1482 346 1499 c 2,40,-1
 453 1620 l 1,41,42
 499 1663 499 1663 541 1663 c 2,43,-1
 590 1663 l 2,44,45
 633 1663 633 1663 676 1620 c 2,46,-1
 786 1499 l 1,47,48
 797 1477 797 1477 797 1466 c 0,49,50
 797 1438 797 1438 752 1438 c 2,51,-1
 748 1438 l 2,52,53
 718 1438 718 1438 684 1462 c 2,54,-1
 563 1559 l 1,55,-1
 449 1462 l 2,56,57
 415 1438 415 1438 383 1438 c 2,58,-1
 379 1438 l 2,36,37
242 0 m 2,59,60
 184 0 184 0 184 57 c 2,61,-1
 184 1278 l 2,62,63
 184 1335 184 1335 242 1335 c 2,64,-1
 909 1335 l 2,65,66
 929 1335 929 1335 937.5 1322 c 128,-1,67
 946 1309 946 1309 946 1278 c 2,68,-1
 946 1249 l 2,69,70
 946 1218 946 1218 937.5 1205 c 128,-1,71
 929 1192 929 1192 909 1192 c 2,72,-1
 352 1192 l 1,73,-1
 352 756 l 1,74,-1
 852 756 l 2,75,76
 872 756 872 756 880.5 742.5 c 128,-1,77
 889 729 889 729 889 698 c 2,78,-1
 889 668 l 2,79,80
 889 610 889 610 852 610 c 2,81,-1
 352 610 l 1,82,-1
 352 145 l 1,83,-1
 911 145 l 2,84,85
 948 145 948 145 948 88 c 2,86,-1
 948 57 l 2,87,88
 948 26 948 26 939.5 13 c 128,-1,89
 931 0 931 0 911 0 c 2,90,-1
 242 0 l 2,59,60
EndSplineSet
Position2: "'cpsp' Capital Spacing lookup 0 subtable" dx=20 dy=0 dh=41 dv=0
EndChar

StartChar: Edieresis
Encoding: 203 203 53
Width: 1044
VWidth: 1908
GlyphClass: 2
Flags: MW
HStem: 0 145<222 911 352 911 352 911> 610 145<352 852 352 852> 1192 143<352 909 352 352> 1497 139<348 455>
VStem: 184 168<145 610 756 1192> 348 160<1538 1636 1526 1649> 623 160<1538 1636 1526 1649>
AnchorPoint: "Anchor-1" 565 1335 basechar 0
AnchorPoint: "Anchor-0" 573 0 basechar 0
LayerCount: 2
Back
Fore
SplineSet
424 1497 m 0,0,1
 348 1497 348 1497 348 1538 c 2,2,-1
 348 1636 l 2,3,4
 348 1677 348 1677 432 1677 c 0,5,6
 508 1677 508 1677 508 1636 c 2,7,-1
 508 1538 l 2,8,9
 508 1497 508 1497 424 1497 c 0,0,1
698 1497 m 0,10,11
 623 1497 623 1497 623 1538 c 2,12,-1
 623 1636 l 2,13,14
 623 1677 623 1677 707 1677 c 0,15,16
 782 1677 782 1677 782 1636 c 2,17,-1
 782 1538 l 2,18,19
 782 1497 782 1497 698 1497 c 0,10,11
242 0 m 2,20,21
 184 0 184 0 184 57 c 2,22,-1
 184 1278 l 2,23,24
 184 1335 184 1335 242 1335 c 2,25,-1
 909 1335 l 2,26,27
 929 1335 929 1335 937.5 1322 c 128,-1,28
 946 1309 946 1309 946 1278 c 2,29,-1
 946 1249 l 2,30,31
 946 1218 946 1218 937.5 1205 c 128,-1,32
 929 1192 929 1192 909 1192 c 2,33,-1
 352 1192 l 1,34,-1
 352 756 l 1,35,-1
 852 756 l 2,36,37
 872 756 872 756 880.5 742.5 c 128,-1,38
 889 729 889 729 889 698 c 2,39,-1
 889 668 l 2,40,41
 889 610 889 610 852 610 c 2,42,-1
 352 610 l 1,43,-1
 352 145 l 1,44,-1
 911 145 l 2,45,46
 948 145 948 145 948 88 c 2,47,-1
 948 57 l 2,48,49
 948 26 948 26 939.5 13 c 128,-1,50
 931 0 931 0 911 0 c 2,51,-1
 242 0 l 2,20,21
EndSplineSet
Position2: "'cpsp' Capital Spacing lookup 0 subtable" dx=20 dy=0 dh=41 dv=0
EndChar

StartChar: Edotaccent
Encoding: 278 278 54
Width: 1044
VWidth: 1908
GlyphClass: 2
Flags: MW
HStem: 0 145<222 911 352 911 352 911> 610 145<352 852 352 852> 1192 143<352 909 352 352> 1497 139<485 592>
VStem: 184 168<145 610 756 1192> 485 160<1538 1636 1526 1649>
AnchorPoint: "Anchor-1" 565 1335 basechar 0
AnchorPoint: "Anchor-0" 573 0 basechar 0
LayerCount: 2
Back
Fore
SplineSet
561 1497 m 0,0,1
 485 1497 485 1497 485 1538 c 2,2,-1
 485 1636 l 2,3,4
 485 1677 485 1677 569 1677 c 0,5,6
 645 1677 645 1677 645 1636 c 2,7,-1
 645 1538 l 2,8,9
 645 1497 645 1497 561 1497 c 0,0,1
242 0 m 2,10,11
 184 0 184 0 184 57 c 2,12,-1
 184 1278 l 2,13,14
 184 1335 184 1335 242 1335 c 2,15,-1
 909 1335 l 2,16,17
 929 1335 929 1335 937.5 1322 c 128,-1,18
 946 1309 946 1309 946 1278 c 2,19,-1
 946 1249 l 2,20,21
 946 1218 946 1218 937.5 1205 c 128,-1,22
 929 1192 929 1192 909 1192 c 2,23,-1
 352 1192 l 1,24,-1
 352 756 l 1,25,-1
 852 756 l 2,26,27
 872 756 872 756 880.5 742.5 c 128,-1,28
 889 729 889 729 889 698 c 2,29,-1
 889 668 l 2,30,31
 889 610 889 610 852 610 c 2,32,-1
 352 610 l 1,33,-1
 352 145 l 1,34,-1
 911 145 l 2,35,36
 948 145 948 145 948 88 c 2,37,-1
 948 57 l 2,38,39
 948 26 948 26 939.5 13 c 128,-1,40
 931 0 931 0 911 0 c 2,41,-1
 242 0 l 2,10,11
EndSplineSet
Position2: "'cpsp' Capital Spacing lookup 0 subtable" dx=20 dy=0 dh=41 dv=0
EndChar

StartChar: uni1EB8
Encoding: 7864 7864 55
Width: 1044
VWidth: 1908
GlyphClass: 2
Flags: MW
HStem: -334 139<498 604> 0 145<222 911 352 911 352 911> 610 145<352 852 352 852> 1192 143<352 909 352 352>
VStem: 184 168<145 610 756 1192> 498 160<-293 -195 -305 -182>
AnchorPoint: "Anchor-1" 565 1335 basechar 0
AnchorPoint: "Anchor-0" 573 -389 basechar 0
LayerCount: 2
Back
Fore
SplineSet
242 0 m 2,0,1
 184 0 184 0 184 57 c 2,2,-1
 184 1278 l 2,3,4
 184 1335 184 1335 242 1335 c 2,5,-1
 909 1335 l 2,6,7
 929 1335 929 1335 937.5 1322 c 128,-1,8
 946 1309 946 1309 946 1278 c 2,9,-1
 946 1249 l 2,10,11
 946 1218 946 1218 937.5 1205 c 128,-1,12
 929 1192 929 1192 909 1192 c 2,13,-1
 352 1192 l 1,14,-1
 352 756 l 1,15,-1
 852 756 l 2,16,17
 872 756 872 756 880.5 742.5 c 128,-1,18
 889 729 889 729 889 698 c 2,19,-1
 889 668 l 2,20,21
 889 610 889 610 852 610 c 2,22,-1
 352 610 l 1,23,-1
 352 145 l 1,24,-1
 911 145 l 2,25,26
 948 145 948 145 948 88 c 2,27,-1
 948 57 l 2,28,29
 948 26 948 26 939.5 13 c 128,-1,30
 931 0 931 0 911 0 c 2,31,-1
 242 0 l 2,0,1
573 -334 m 0,32,33
 498 -334 498 -334 498 -293 c 2,34,-1
 498 -195 l 2,35,36
 498 -154 498 -154 582 -154 c 0,37,38
 657 -154 657 -154 657 -195 c 2,39,-1
 657 -293 l 2,40,41
 657 -334 657 -334 573 -334 c 0,32,33
EndSplineSet
Position2: "'cpsp' Capital Spacing lookup 0 subtable" dx=20 dy=0 dh=41 dv=0
EndChar

StartChar: Egrave
Encoding: 200 200 56
Width: 1044
VWidth: 1908
GlyphClass: 2
Flags: MW
HStem: 0 145<222 911 352 911 352 911> 610 145<352 852 352 852> 1192 143<352 909 352 352> 1454 281<401 632>
VStem: 184 168<145 610 756 1192>
AnchorPoint: "Anchor-1" 565 1335 basechar 0
AnchorPoint: "Anchor-0" 573 0 basechar 0
LayerCount: 2
Back
Fore
SplineSet
616 1454 m 0,0,1
 550 1454 550 1454 520 1489 c 0,2,3
 391 1634 391 1634 365.5 1665 c 128,-1,4
 340 1696 340 1696 340 1710 c 0,5,6
 340 1735 340 1735 432 1735 c 0,7,8
 523 1735 523 1735 549 1686 c 0,9,10
 652 1505 652 1505 658 1490 c 0,11,12
 662 1480 662 1480 662 1475 c 0,13,14
 662 1454 662 1454 616 1454 c 0,0,1
242 0 m 2,15,16
 184 0 184 0 184 57 c 2,17,-1
 184 1278 l 2,18,19
 184 1335 184 1335 242 1335 c 2,20,-1
 909 1335 l 2,21,22
 929 1335 929 1335 937.5 1322 c 128,-1,23
 946 1309 946 1309 946 1278 c 2,24,-1
 946 1249 l 2,25,26
 946 1218 946 1218 937.5 1205 c 128,-1,27
 929 1192 929 1192 909 1192 c 2,28,-1
 352 1192 l 1,29,-1
 352 756 l 1,30,-1
 852 756 l 2,31,32
 872 756 872 756 880.5 742.5 c 128,-1,33
 889 729 889 729 889 698 c 2,34,-1
 889 668 l 2,35,36
 889 610 889 610 852 610 c 2,37,-1
 352 610 l 1,38,-1
 352 145 l 1,39,-1
 911 145 l 2,40,41
 948 145 948 145 948 88 c 2,42,-1
 948 57 l 2,43,44
 948 26 948 26 939.5 13 c 128,-1,45
 931 0 931 0 911 0 c 2,46,-1
 242 0 l 2,15,16
EndSplineSet
Position2: "'cpsp' Capital Spacing lookup 0 subtable" dx=20 dy=0 dh=41 dv=0
EndChar

StartChar: uni1EBA
Encoding: 7866 7866 57
Width: 1044
VWidth: 1908
GlyphClass: 2
Flags: MW
HStem: 0 145<222 911 352 911 352 911> 610 145<352 852 352 852> 1192 143<352 909 352 352> 1671 98<546 583>
VStem: 184 168<145 610 756 1192> 635 117<1573 1637>
AnchorPoint: "Anchor-1" 565 1675 basechar 0
AnchorPoint: "Anchor-0" 573 0 basechar 0
LayerCount: 2
Back
Fore
SplineSet
580 1413 m 0,0,1
 564 1413 564 1413 540 1423.5 c 128,-1,2
 516 1434 516 1434 516 1446 c 0,3,4
 516 1464 516 1464 534.5 1483.5 c 128,-1,5
 553 1503 553 1503 575.5 1518.5 c 128,-1,6
 598 1534 598 1534 616.5 1561 c 128,-1,7
 635 1588 635 1588 635 1620 c 0,8,9
 635 1645 635 1645 614.5 1658 c 128,-1,10
 594 1671 594 1671 563 1671 c 0,11,12
 537 1671 537 1671 517.5 1665 c 128,-1,13
 498 1659 498 1659 488 1653 c 128,-1,14
 478 1647 478 1647 475 1647 c 0,15,16
 465 1647 465 1647 447.5 1671.5 c 128,-1,17
 430 1696 430 1696 430 1710 c 0,18,19
 430 1729 430 1729 480 1749 c 128,-1,20
 530 1769 530 1769 580 1769 c 0,21,22
 617 1769 617 1769 653.5 1758 c 128,-1,23
 690 1747 690 1747 721 1714.5 c 128,-1,24
 752 1682 752 1682 752 1634 c 0,25,26
 752 1590 752 1590 728.5 1546.5 c 128,-1,27
 705 1503 705 1503 674.5 1475.5 c 128,-1,28
 644 1448 644 1448 617 1430.5 c 128,-1,29
 590 1413 590 1413 580 1413 c 0,0,1
242 0 m 2,30,31
 184 0 184 0 184 57 c 2,32,-1
 184 1278 l 2,33,34
 184 1335 184 1335 242 1335 c 2,35,-1
 909 1335 l 2,36,37
 929 1335 929 1335 937.5 1322 c 128,-1,38
 946 1309 946 1309 946 1278 c 2,39,-1
 946 1249 l 2,40,41
 946 1218 946 1218 937.5 1205 c 128,-1,42
 929 1192 929 1192 909 1192 c 2,43,-1
 352 1192 l 1,44,-1
 352 756 l 1,45,-1
 852 756 l 2,46,47
 872 756 872 756 880.5 742.5 c 128,-1,48
 889 729 889 729 889 698 c 2,49,-1
 889 668 l 2,50,51
 889 610 889 610 852 610 c 2,52,-1
 352 610 l 1,53,-1
 352 145 l 1,54,-1
 911 145 l 2,55,56
 948 145 948 145 948 88 c 2,57,-1
 948 57 l 2,58,59
 948 26 948 26 939.5 13 c 128,-1,60
 931 0 931 0 911 0 c 2,61,-1
 242 0 l 2,30,31
EndSplineSet
Position2: "'cpsp' Capital Spacing lookup 0 subtable" dx=20 dy=0 dh=41 dv=0
EndChar

StartChar: Emacron
Encoding: 274 274 58
Width: 1044
VWidth: 1908
GlyphClass: 2
Flags: MW
HStem: 0 145<222 911 352 911 352 911> 610 145<352 852 352 852> 1192 143<352 909 352 352> 1505 135<339 778 352 778>
VStem: 184 168<145 610 756 1192> 313 502<1563 1583 1543 1603>
AnchorPoint: "Anchor-1" 565 1335 basechar 0
AnchorPoint: "Anchor-0" 573 0 basechar 0
LayerCount: 2
Back
Fore
SplineSet
352 1505 m 2,0,1
 313 1505 313 1505 313 1563 c 2,2,-1
 313 1583 l 2,3,4
 313 1640 313 1640 352 1640 c 2,5,-1
 778 1640 l 2,6,7
 815 1640 815 1640 815 1583 c 2,8,-1
 815 1563 l 2,9,10
 815 1505 815 1505 778 1505 c 2,11,-1
 352 1505 l 2,0,1
242 0 m 2,12,13
 184 0 184 0 184 57 c 2,14,-1
 184 1278 l 2,15,16
 184 1335 184 1335 242 1335 c 2,17,-1
 909 1335 l 2,18,19
 929 1335 929 1335 937.5 1322 c 128,-1,20
 946 1309 946 1309 946 1278 c 2,21,-1
 946 1249 l 2,22,23
 946 1218 946 1218 937.5 1205 c 128,-1,24
 929 1192 929 1192 909 1192 c 2,25,-1
 352 1192 l 1,26,-1
 352 756 l 1,27,-1
 852 756 l 2,28,29
 872 756 872 756 880.5 742.5 c 128,-1,30
 889 729 889 729 889 698 c 2,31,-1
 889 668 l 2,32,33
 889 610 889 610 852 610 c 2,34,-1
 352 610 l 1,35,-1
 352 145 l 1,36,-1
 911 145 l 2,37,38
 948 145 948 145 948 88 c 2,39,-1
 948 57 l 2,40,41
 948 26 948 26 939.5 13 c 128,-1,42
 931 0 931 0 911 0 c 2,43,-1
 242 0 l 2,12,13
EndSplineSet
Position2: "'cpsp' Capital Spacing lookup 0 subtable" dx=20 dy=0 dh=41 dv=0
EndChar

StartChar: Eogonek
Encoding: 280 280 59
Width: 1044
VWidth: 1908
GlyphClass: 2
Flags: MW
HStem: -350 135<985 1022 985 1033> -2 147<909 909> 0 145<222 911 352 807> 610 145<352 852 352 852> 1192 143<352 909 352 352>
VStem: 184 168<145 610 756 1192> 760 129<-165 -134>
AnchorPoint: "Anchor-1" 565 1335 basechar 0
AnchorPoint: "Anchor-0" 573 0 basechar 0
LayerCount: 2
Back
Fore
SplineSet
1106 -197 m 0,0,1
 1143 -197 1143 -197 1143 -244 c 0,2,3
 1143 -305 1143 -305 1103.5 -327.5 c 128,-1,4
 1064 -350 1064 -350 985 -350 c 0,5,6
 927 -350 927 -350 884 -334.5 c 128,-1,7
 841 -319 841 -319 818 -297.5 c 128,-1,8
 795 -276 795 -276 781 -247 c 128,-1,9
 767 -218 767 -218 763.5 -196.5 c 128,-1,10
 760 -175 760 -175 760 -154 c 0,11,12
 760 -47 760 -47 807 0 c 1,13,-1
 242 0 l 2,14,15
 184 0 184 0 184 57 c 2,16,-1
 184 1278 l 2,17,18
 184 1335 184 1335 242 1335 c 2,19,-1
 909 1335 l 2,20,21
 929 1335 929 1335 937.5 1322 c 128,-1,22
 946 1309 946 1309 946 1278 c 2,23,-1
 946 1249 l 2,24,25
 946 1218 946 1218 937.5 1205 c 128,-1,26
 929 1192 929 1192 909 1192 c 2,27,-1
 352 1192 l 1,28,-1
 352 756 l 1,29,-1
 852 756 l 2,30,31
 872 756 872 756 880.5 742.5 c 128,-1,32
 889 729 889 729 889 698 c 2,33,-1
 889 668 l 2,34,35
 889 610 889 610 852 610 c 2,36,-1
 352 610 l 1,37,-1
 352 145 l 1,38,-1
 911 145 l 2,39,40
 948 145 948 145 948 88 c 2,41,-1
 948 57 l 2,42,43
 948 26 948 26 939.5 12.5 c 128,-1,44
 931 -1 931 -1 911 -2 c 1,45,46
 911 -13 911 -13 900 -53 c 128,-1,47
 889 -93 889 -93 889 -119 c 0,48,49
 889 -151 889 -151 900.5 -172 c 128,-1,50
 912 -193 912 -193 932.5 -201.5 c 128,-1,51
 953 -210 953 -210 969.5 -212.5 c 128,-1,52
 986 -215 986 -215 1008 -215 c 0,53,54
 1022 -215 1022 -215 1056 -206 c 128,-1,55
 1090 -197 1090 -197 1106 -197 c 0,0,1
EndSplineSet
Position2: "'cpsp' Capital Spacing lookup 0 subtable" dx=20 dy=0 dh=41 dv=0
EndChar

StartChar: uni1EBC
Encoding: 7868 7868 60
Width: 1044
VWidth: 1908
GlyphClass: 2
Flags: MW
HStem: 0 145<222 911 352 911 352 911> 610 145<352 852 352 852> 1192 143<352 909 352 352> 1466 106<702 765 702 782> 1548 106<390 451>
VStem: 184 168<145 610 756 1192>
AnchorPoint: "Anchor-1" 565 1335 basechar 0
AnchorPoint: "Anchor-0" 573 0 basechar 0
LayerCount: 2
Back
Fore
SplineSet
272 1468 m 1,0,-1
 252 1475 l 2,1,2
 236 1483 236 1483 236 1499 c 0,3,4
 236 1509 236 1509 242 1524 c 0,5,6
 272 1594 272 1594 314 1624.5 c 128,-1,7
 356 1655 356 1655 418 1655 c 0,8,9
 476 1655 476 1655 591 1614 c 128,-1,10
 706 1573 706 1573 748 1573 c 0,11,12
 774 1573 774 1573 792.5 1585 c 128,-1,13
 811 1597 811 1597 831 1628 c 0,14,15
 851 1657 851 1657 870 1657 c 0,16,17
 876 1657 876 1657 891 1651 c 2,18,-1
 903 1645 l 1,19,20
 926 1639 926 1639 926 1622 c 0,21,22
 926 1613 926 1613 920 1595 c 0,23,24
 888 1526 888 1526 845.5 1496 c 128,-1,25
 803 1466 803 1466 743 1466 c 0,26,27
 681 1466 681 1466 564.5 1507 c 128,-1,28
 448 1548 448 1548 406 1548 c 0,29,30
 383 1548 383 1548 366 1535 c 128,-1,31
 349 1522 349 1522 328 1491 c 0,32,33
 308 1462 308 1462 291 1462 c 0,34,35
 284 1462 284 1462 272 1468 c 1,0,-1
242 0 m 2,36,37
 184 0 184 0 184 57 c 2,38,-1
 184 1278 l 2,39,40
 184 1335 184 1335 242 1335 c 2,41,-1
 909 1335 l 2,42,43
 929 1335 929 1335 937.5 1322 c 128,-1,44
 946 1309 946 1309 946 1278 c 2,45,-1
 946 1249 l 2,46,47
 946 1218 946 1218 937.5 1205 c 128,-1,48
 929 1192 929 1192 909 1192 c 2,49,-1
 352 1192 l 1,50,-1
 352 756 l 1,51,-1
 852 756 l 2,52,53
 872 756 872 756 880.5 742.5 c 128,-1,54
 889 729 889 729 889 698 c 2,55,-1
 889 668 l 2,56,57
 889 610 889 610 852 610 c 2,58,-1
 352 610 l 1,59,-1
 352 145 l 1,60,-1
 911 145 l 2,61,62
 948 145 948 145 948 88 c 2,63,-1
 948 57 l 2,64,65
 948 26 948 26 939.5 13 c 128,-1,66
 931 0 931 0 911 0 c 2,67,-1
 242 0 l 2,36,37
EndSplineSet
Position2: "'cpsp' Capital Spacing lookup 0 subtable" dx=20 dy=0 dh=41 dv=0
EndChar

StartChar: F
Encoding: 70 70 61
Width: 962
VWidth: 1908
GlyphClass: 2
Flags: MW
HStem: -4 86G<236 262 262 276> 610 145<352 809 352 809> 1192 143<352 844 352 352>
VStem: 184 168<39 610 756 1192>
LayerCount: 2
Back
Fore
SplineSet
262 -4 m 2,0,1
 184 -4 184 -4 184 39 c 2,2,-1
 184 1278 l 2,3,4
 184 1335 184 1335 242 1335 c 2,5,-1
 844 1335 l 2,6,7
 883 1335 883 1335 883 1278 c 2,8,-1
 883 1249 l 2,9,10
 883 1192 883 1192 844 1192 c 2,11,-1
 352 1192 l 1,12,-1
 352 756 l 1,13,-1
 809 756 l 2,14,15
 848 756 848 756 848 698 c 2,16,-1
 848 668 l 2,17,18
 848 610 848 610 809 610 c 2,19,-1
 352 610 l 1,20,-1
 352 39 l 2,21,22
 352 -4 352 -4 276 -4 c 2,23,-1
 262 -4 l 2,0,1
EndSplineSet
Position2: "'cpsp' Capital Spacing lookup 0 subtable" dx=20 dy=0 dh=41 dv=0
EndChar

StartChar: G
Encoding: 71 71 62
Width: 1282
VWidth: 1908
GlyphClass: 2
Flags: MW
HStem: -12 145<541 760 541 807> 545 143<720 1067 733 956> 1202 145<562 821 527 822>
VStem: 109 174<527 840 527 895> 956 168<158 545 545 545>
AnchorPoint: "Anchor-1" 643 1335 basechar 0
AnchorPoint: "Anchor-0" 741 0 basechar 0
LayerCount: 2
Back
Fore
SplineSet
698 -12 m 0,0,1
 410 -12 410 -12 259.5 154 c 128,-1,2
 109 320 109 320 109 657 c 0,3,4
 109 1348 109 1348 727 1348 c 0,5,6
 863 1348 863 1348 977.5 1308.5 c 128,-1,7
 1092 1269 1092 1269 1092 1229 c 0,8,9
 1092 1202 1092 1202 1068.5 1160 c 128,-1,10
 1045 1118 1045 1118 1026 1118 c 0,11,12
 1022 1118 1022 1118 985 1139 c 128,-1,13
 948 1160 948 1160 879.5 1181 c 128,-1,14
 811 1202 811 1202 731 1202 c 0,15,16
 606 1202 606 1202 518.5 1167 c 128,-1,17
 431 1132 431 1132 380 1062 c 128,-1,18
 329 992 329 992 306 897.5 c 128,-1,19
 283 803 283 803 283 674 c 0,20,21
 283 581 283 581 294.5 504.5 c 128,-1,22
 306 428 306 428 336 357.5 c 128,-1,23
 366 287 366 287 413.5 238.5 c 128,-1,24
 461 190 461 190 536.5 161.5 c 128,-1,25
 612 133 612 133 711 133 c 0,26,27
 850 133 850 133 956 158 c 1,28,-1
 956 545 l 1,29,-1
 733 545 l 2,30,31
 694 545 694 545 694 602 c 2,32,-1
 694 631 l 2,33,34
 694 688 694 688 733 688 c 2,35,-1
 1067 688 l 2,36,37
 1098 688 1098 688 1111 675 c 128,-1,38
 1124 662 1124 662 1124 631 c 2,39,-1
 1124 127 l 2,40,41
 1124 -12 1124 -12 698 -12 c 0,0,1
EndSplineSet
Position2: "'cpsp' Capital Spacing lookup 0 subtable" dx=20 dy=0 dh=41 dv=0
EndChar

StartChar: Gbreve
Encoding: 286 286 63
Width: 1282
VWidth: 1908
GlyphClass: 2
Flags: MW
HStem: -12 145<541 760 541 807> 545 143<720 1067 733 956> 1202 145<562 821 527 822> 1454 201
VStem: 109 174<527 840 527 895> 365 551<1601 1683> 956 168<158 545 545 545>
AnchorPoint: "Anchor-1" 643 1618 basechar 0
AnchorPoint: "Anchor-0" 741 0 basechar 0
LayerCount: 2
Back
Fore
SplineSet
641 1454 m 0,0,1
 530 1454 530 1454 447.5 1512 c 128,-1,2
 365 1570 365 1570 365 1673 c 0,3,4
 365 1702 365 1702 393 1702 c 0,5,6
 405 1702 405 1702 411.5 1698.5 c 128,-1,7
 418 1695 418 1695 420.5 1690.5 c 128,-1,8
 423 1686 423 1686 427.5 1674.5 c 128,-1,9
 432 1663 432 1663 436 1655 c 0,10,11
 476 1581 476 1581 641 1581 c 128,-1,12
 806 1581 806 1581 846 1655 c 0,13,14
 849 1662 849 1662 853.5 1674.5 c 128,-1,15
 858 1687 858 1687 860.5 1691 c 128,-1,16
 863 1695 863 1695 869.5 1698.5 c 128,-1,17
 876 1702 876 1702 887 1702 c 0,18,19
 904 1702 904 1702 909.5 1695.5 c 128,-1,20
 915 1689 915 1689 915 1673 c 0,21,22
 915 1604 915 1604 874 1552.5 c 128,-1,23
 833 1501 833 1501 772 1477.5 c 128,-1,24
 711 1454 711 1454 641 1454 c 0,0,1
698 -12 m 0,25,26
 410 -12 410 -12 259.5 154 c 128,-1,27
 109 320 109 320 109 657 c 0,28,29
 109 1348 109 1348 727 1348 c 0,30,31
 863 1348 863 1348 977.5 1308.5 c 128,-1,32
 1092 1269 1092 1269 1092 1229 c 0,33,34
 1092 1202 1092 1202 1068.5 1160 c 128,-1,35
 1045 1118 1045 1118 1026 1118 c 0,36,37
 1022 1118 1022 1118 985 1139 c 128,-1,38
 948 1160 948 1160 879.5 1181 c 128,-1,39
 811 1202 811 1202 731 1202 c 0,40,41
 606 1202 606 1202 518.5 1167 c 128,-1,42
 431 1132 431 1132 380 1062 c 128,-1,43
 329 992 329 992 306 897.5 c 128,-1,44
 283 803 283 803 283 674 c 0,45,46
 283 581 283 581 294.5 504.5 c 128,-1,47
 306 428 306 428 336 357.5 c 128,-1,48
 366 287 366 287 413.5 238.5 c 128,-1,49
 461 190 461 190 536.5 161.5 c 128,-1,50
 612 133 612 133 711 133 c 0,51,52
 850 133 850 133 956 158 c 1,53,-1
 956 545 l 1,54,-1
 733 545 l 2,55,56
 694 545 694 545 694 602 c 2,57,-1
 694 631 l 2,58,59
 694 688 694 688 733 688 c 2,60,-1
 1067 688 l 2,61,62
 1098 688 1098 688 1111 675 c 128,-1,63
 1124 662 1124 662 1124 631 c 2,64,-1
 1124 127 l 2,65,66
 1124 -12 1124 -12 698 -12 c 0,25,26
EndSplineSet
Position2: "'cpsp' Capital Spacing lookup 0 subtable" dx=20 dy=0 dh=41 dv=0
EndChar

StartChar: Gcircumflex
Encoding: 284 284 64
Width: 1282
VWidth: 1908
GlyphClass: 2
Flags: MW
HStem: -12 145<541 760 541 807> 545 143<720 1067 733 956> 1202 145<562 821 527 822> 1604 104<639 639>
VStem: 109 174<527 840 527 895> 956 168<158 545 545 545>
AnchorPoint: "Anchor-1" 954 1528 basechar 0
AnchorPoint: "Anchor-0" 741 0 basechar 0
LayerCount: 2
Back
Fore
SplineSet
455 1438 m 2,0,1
 412 1438 412 1438 412 1464 c 0,2,3
 412 1482 412 1482 422 1499 c 2,4,-1
 528 1667 l 2,5,6
 556 1708 556 1708 616 1708 c 2,7,-1
 666 1708 l 2,8,9
 727 1708 727 1708 752 1667 c 2,10,-1
 862 1499 l 2,11,12
 872 1479 872 1479 872 1466 c 0,13,14
 872 1438 872 1438 827 1438 c 2,15,-1
 823 1438 l 2,16,17
 787 1438 787 1438 760 1462 c 1,18,-1
 639 1604 l 1,19,-1
 524 1462 l 1,20,21
 494 1438 494 1438 459 1438 c 2,22,-1
 455 1438 l 2,0,1
698 -12 m 0,23,24
 410 -12 410 -12 259.5 154 c 128,-1,25
 109 320 109 320 109 657 c 0,26,27
 109 1348 109 1348 727 1348 c 0,28,29
 863 1348 863 1348 977.5 1308.5 c 128,-1,30
 1092 1269 1092 1269 1092 1229 c 0,31,32
 1092 1202 1092 1202 1068.5 1160 c 128,-1,33
 1045 1118 1045 1118 1026 1118 c 0,34,35
 1022 1118 1022 1118 985 1139 c 128,-1,36
 948 1160 948 1160 879.5 1181 c 128,-1,37
 811 1202 811 1202 731 1202 c 0,38,39
 606 1202 606 1202 518.5 1167 c 128,-1,40
 431 1132 431 1132 380 1062 c 128,-1,41
 329 992 329 992 306 897.5 c 128,-1,42
 283 803 283 803 283 674 c 0,43,44
 283 581 283 581 294.5 504.5 c 128,-1,45
 306 428 306 428 336 357.5 c 128,-1,46
 366 287 366 287 413.5 238.5 c 128,-1,47
 461 190 461 190 536.5 161.5 c 128,-1,48
 612 133 612 133 711 133 c 0,49,50
 850 133 850 133 956 158 c 1,51,-1
 956 545 l 1,52,-1
 733 545 l 2,53,54
 694 545 694 545 694 602 c 2,55,-1
 694 631 l 2,56,57
 694 688 694 688 733 688 c 2,58,-1
 1067 688 l 2,59,60
 1098 688 1098 688 1111 675 c 128,-1,61
 1124 662 1124 662 1124 631 c 2,62,-1
 1124 127 l 2,63,64
 1124 -12 1124 -12 698 -12 c 0,23,24
EndSplineSet
Position2: "'cpsp' Capital Spacing lookup 0 subtable" dx=20 dy=0 dh=41 dv=0
EndChar

StartChar: Gcommaaccent
Encoding: 290 290 65
Width: 1282
VWidth: 1908
GlyphClass: 2
Flags: MW
HStem: -449 86G<616 658> -12 145<541 760 541 807> 545 143<720 1067 733 956> 1202 145<562 821 527 822>
VStem: 109 174<527 840 527 895> 653 170<-230 -140> 956 168<158 545 545 545>
AnchorPoint: "Anchor-1" 643 1335 basechar 0
AnchorPoint: "Anchor-0" 733 -389 basechar 0
LayerCount: 2
Back
Fore
SplineSet
698 -12 m 0,0,1
 410 -12 410 -12 259.5 154 c 128,-1,2
 109 320 109 320 109 657 c 0,3,4
 109 1348 109 1348 727 1348 c 0,5,6
 863 1348 863 1348 977.5 1308.5 c 128,-1,7
 1092 1269 1092 1269 1092 1229 c 0,8,9
 1092 1202 1092 1202 1068.5 1160 c 128,-1,10
 1045 1118 1045 1118 1026 1118 c 0,11,12
 1022 1118 1022 1118 985 1139 c 128,-1,13
 948 1160 948 1160 879.5 1181 c 128,-1,14
 811 1202 811 1202 731 1202 c 0,15,16
 606 1202 606 1202 518.5 1167 c 128,-1,17
 431 1132 431 1132 380 1062 c 128,-1,18
 329 992 329 992 306 897.5 c 128,-1,19
 283 803 283 803 283 674 c 0,20,21
 283 581 283 581 294.5 504.5 c 128,-1,22
 306 428 306 428 336 357.5 c 128,-1,23
 366 287 366 287 413.5 238.5 c 128,-1,24
 461 190 461 190 536.5 161.5 c 128,-1,25
 612 133 612 133 711 133 c 0,26,27
 850 133 850 133 956 158 c 1,28,-1
 956 545 l 1,29,-1
 733 545 l 2,30,31
 694 545 694 545 694 602 c 2,32,-1
 694 631 l 2,33,34
 694 688 694 688 733 688 c 2,35,-1
 1067 688 l 2,36,37
 1098 688 1098 688 1111 675 c 128,-1,38
 1124 662 1124 662 1124 631 c 2,39,-1
 1124 127 l 2,40,41
 1124 -12 1124 -12 698 -12 c 0,0,1
627 -449 m 0,42,43
 607 -449 607 -449 589 -442 c 128,-1,44
 571 -435 571 -435 571 -420 c 128,-1,45
 571 -405 571 -405 591.5 -369 c 128,-1,46
 612 -333 612 -333 632.5 -277 c 128,-1,47
 653 -221 653 -221 653 -158 c 0,48,49
 653 -131 653 -131 672.5 -114.5 c 128,-1,50
 692 -98 692 -98 729 -98 c 2,51,-1
 748 -98 l 2,52,53
 783 -98 783 -98 803 -112.5 c 128,-1,54
 823 -127 823 -127 823 -152 c 0,55,56
 823 -216 823 -216 801.5 -274.5 c 128,-1,57
 780 -333 780 -333 748.5 -369.5 c 128,-1,58
 717 -406 717 -406 684.5 -427.5 c 128,-1,59
 652 -449 652 -449 627 -449 c 0,42,43
EndSplineSet
Position2: "'cpsp' Capital Spacing lookup 0 subtable" dx=20 dy=0 dh=41 dv=0
EndChar

StartChar: Gdotaccent
Encoding: 288 288 66
Width: 1282
VWidth: 1908
GlyphClass: 2
Flags: MW
HStem: -12 145<541 760 541 807> 545 143<720 1067 733 956> 1202 145<562 821 527 822> 1497 139<561 668>
VStem: 109 174<527 840 527 895> 561 160<1538 1636 1526 1649> 956 168<158 545 545 545>
AnchorPoint: "Anchor-1" 643 1335 basechar 0
AnchorPoint: "Anchor-0" 741 0 basechar 0
LayerCount: 2
Back
Fore
SplineSet
637 1497 m 0,0,1
 561 1497 561 1497 561 1538 c 2,2,-1
 561 1636 l 2,3,4
 561 1677 561 1677 645 1677 c 0,5,6
 721 1677 721 1677 721 1636 c 2,7,-1
 721 1538 l 2,8,9
 721 1497 721 1497 637 1497 c 0,0,1
698 -12 m 0,10,11
 410 -12 410 -12 259.5 154 c 128,-1,12
 109 320 109 320 109 657 c 0,13,14
 109 1348 109 1348 727 1348 c 0,15,16
 863 1348 863 1348 977.5 1308.5 c 128,-1,17
 1092 1269 1092 1269 1092 1229 c 0,18,19
 1092 1202 1092 1202 1068.5 1160 c 128,-1,20
 1045 1118 1045 1118 1026 1118 c 0,21,22
 1022 1118 1022 1118 985 1139 c 128,-1,23
 948 1160 948 1160 879.5 1181 c 128,-1,24
 811 1202 811 1202 731 1202 c 0,25,26
 606 1202 606 1202 518.5 1167 c 128,-1,27
 431 1132 431 1132 380 1062 c 128,-1,28
 329 992 329 992 306 897.5 c 128,-1,29
 283 803 283 803 283 674 c 0,30,31
 283 581 283 581 294.5 504.5 c 128,-1,32
 306 428 306 428 336 357.5 c 128,-1,33
 366 287 366 287 413.5 238.5 c 128,-1,34
 461 190 461 190 536.5 161.5 c 128,-1,35
 612 133 612 133 711 133 c 0,36,37
 850 133 850 133 956 158 c 1,38,-1
 956 545 l 1,39,-1
 733 545 l 2,40,41
 694 545 694 545 694 602 c 2,42,-1
 694 631 l 2,43,44
 694 688 694 688 733 688 c 2,45,-1
 1067 688 l 2,46,47
 1098 688 1098 688 1111 675 c 128,-1,48
 1124 662 1124 662 1124 631 c 2,49,-1
 1124 127 l 2,50,51
 1124 -12 1124 -12 698 -12 c 0,10,11
EndSplineSet
Position2: "'cpsp' Capital Spacing lookup 0 subtable" dx=20 dy=0 dh=41 dv=0
EndChar

StartChar: H
Encoding: 72 72 67
Width: 1400
VWidth: 1908
GlyphClass: 2
Flags: MW
HStem: -4 86G<236 262 262 276 1094 1120 1120 1137> 612 145<352 1044 352 1044> 1257 82G<262 276 276 303 1120 1137 1137 1163>
VStem: 184 168<39 612 758 1298> 1044 168<39 612 612 612 758 1298>
AnchorPoint: "Anchor-1" 700 1335 basechar 0
AnchorPoint: "Anchor-0" 717 0 basechar 0
LayerCount: 2
Back
Fore
SplineSet
262 -4 m 2,0,1
 184 -4 184 -4 184 39 c 2,2,-1
 184 1298 l 2,3,4
 184 1339 184 1339 262 1339 c 2,5,-1
 276 1339 l 2,6,7
 352 1339 352 1339 352 1298 c 2,8,-1
 352 758 l 1,9,-1
 1044 758 l 1,10,-1
 1044 1298 l 2,11,12
 1044 1339 1044 1339 1120 1339 c 2,13,-1
 1137 1339 l 2,14,15
 1212 1339 1212 1339 1212 1298 c 2,16,-1
 1212 39 l 2,17,18
 1212 -4 1212 -4 1137 -4 c 2,19,-1
 1120 -4 l 2,20,21
 1044 -4 1044 -4 1044 39 c 2,22,-1
 1044 612 l 1,23,-1
 352 612 l 1,24,-1
 352 39 l 2,25,26
 352 -4 352 -4 276 -4 c 2,27,-1
 262 -4 l 2,0,1
EndSplineSet
Position2: "'cpsp' Capital Spacing lookup 0 subtable" dx=20 dy=0 dh=41 dv=0
EndChar

StartChar: Hbar
Encoding: 294 294 68
Width: 1400
VWidth: 1908
GlyphClass: 2
Flags: MW
HStem: -4 86G<236 262 262 276 1094 1120 1120 1137> 612 145<352 1044 352 1044> 938 133<126 184 139 184 352 1044 1212 1253> 938 401<126 276 139 276 262 352 262 1044>
VStem: 184 168<39 612 758 938 1071 1298> 1044 168<39 612 612 612 758 938 1071 1298>
AnchorPoint: "Anchor-1" 700 1335 basechar 0
AnchorPoint: "Anchor-0" 717 0 basechar 0
LayerCount: 2
Back
Fore
SplineSet
1253 1071 m 2,0,1
 1290 1071 1290 1071 1290 1014 c 2,2,-1
 1290 995 l 2,3,4
 1290 964 1290 964 1281.5 951 c 128,-1,5
 1273 938 1273 938 1253 938 c 2,6,-1
 1212 938 l 1,7,-1
 1212 39 l 2,8,9
 1212 -4 1212 -4 1137 -4 c 2,10,-1
 1120 -4 l 2,11,12
 1044 -4 1044 -4 1044 39 c 2,13,-1
 1044 612 l 1,14,-1
 352 612 l 1,15,-1
 352 39 l 2,16,17
 352 -4 352 -4 276 -4 c 2,18,-1
 262 -4 l 2,19,20
 184 -4 184 -4 184 39 c 2,21,-1
 184 938 l 1,22,-1
 139 938 l 2,23,24
 119 938 119 938 110.5 951 c 128,-1,25
 102 964 102 964 102 995 c 2,26,-1
 102 1014 l 2,27,28
 102 1071 102 1071 139 1071 c 2,29,-1
 184 1071 l 1,30,-1
 184 1298 l 2,31,32
 184 1339 184 1339 262 1339 c 2,33,-1
 276 1339 l 2,34,35
 352 1339 352 1339 352 1298 c 2,36,-1
 352 1071 l 1,37,-1
 1044 1071 l 1,38,-1
 1044 1298 l 2,39,40
 1044 1339 1044 1339 1120 1339 c 2,41,-1
 1137 1339 l 2,42,43
 1212 1339 1212 1339 1212 1298 c 2,44,-1
 1212 1071 l 1,45,-1
 1253 1071 l 2,0,1
1044 758 m 1,46,-1
 1044 938 l 1,47,-1
 352 938 l 1,48,-1
 352 758 l 1,49,-1
 1044 758 l 1,46,-1
EndSplineSet
Position2: "'cpsp' Capital Spacing lookup 0 subtable" dx=20 dy=0 dh=41 dv=0
EndChar

StartChar: Hcircumflex
Encoding: 292 292 69
Width: 1400
VWidth: 1908
GlyphClass: 2
Flags: MW
HStem: -4 86G<236 262 262 276 1094 1120 1120 1137> 612 145<352 1044 352 1044> 1257 82G<262 276 276 303 1120 1137 1137 1163> 1604 104<698 698>
VStem: 184 168<39 612 758 1298> 1044 168<39 612 612 612 758 1298>
AnchorPoint: "Anchor-1" 1012 1528 basechar 0
AnchorPoint: "Anchor-0" 717 0 basechar 0
LayerCount: 2
Back
Fore
SplineSet
514 1438 m 2,0,1
 471 1438 471 1438 471 1464 c 0,2,3
 471 1482 471 1482 481 1499 c 2,4,-1
 588 1667 l 2,5,6
 616 1708 616 1708 676 1708 c 2,7,-1
 725 1708 l 2,8,9
 786 1708 786 1708 811 1667 c 2,10,-1
 922 1499 l 2,11,12
 932 1479 932 1479 932 1466 c 0,13,14
 932 1438 932 1438 887 1438 c 2,15,-1
 883 1438 l 2,16,17
 846 1438 846 1438 819 1462 c 1,18,-1
 698 1604 l 1,19,-1
 584 1462 l 1,20,21
 554 1438 554 1438 518 1438 c 2,22,-1
 514 1438 l 2,0,1
262 -4 m 2,23,24
 184 -4 184 -4 184 39 c 2,25,-1
 184 1298 l 2,26,27
 184 1339 184 1339 262 1339 c 2,28,-1
 276 1339 l 2,29,30
 352 1339 352 1339 352 1298 c 2,31,-1
 352 758 l 1,32,-1
 1044 758 l 1,33,-1
 1044 1298 l 2,34,35
 1044 1339 1044 1339 1120 1339 c 2,36,-1
 1137 1339 l 2,37,38
 1212 1339 1212 1339 1212 1298 c 2,39,-1
 1212 39 l 2,40,41
 1212 -4 1212 -4 1137 -4 c 2,42,-1
 1120 -4 l 2,43,44
 1044 -4 1044 -4 1044 39 c 2,45,-1
 1044 612 l 1,46,-1
 352 612 l 1,47,-1
 352 39 l 2,48,49
 352 -4 352 -4 276 -4 c 2,50,-1
 262 -4 l 2,23,24
EndSplineSet
Position2: "'cpsp' Capital Spacing lookup 0 subtable" dx=20 dy=0 dh=41 dv=0
EndChar

StartChar: uni1E24
Encoding: 7716 7716 70
Width: 1400
VWidth: 1908
GlyphClass: 2
Flags: MW
HStem: -334 139<641 748> -4 86G<236 262 262 276 1094 1120 1120 1137> 612 145<352 1044 352 1044> 1257 82G<262 276 276 303 1120 1137 1137 1163>
VStem: 184 168<39 612 758 1298> 641 160<-293 -195 -305 -182> 1044 168<39 612 612 612 758 1298>
AnchorPoint: "Anchor-1" 700 1335 basechar 0
AnchorPoint: "Anchor-0" 717 -389 basechar 0
LayerCount: 2
Back
Fore
SplineSet
262 -4 m 2,0,1
 184 -4 184 -4 184 39 c 2,2,-1
 184 1298 l 2,3,4
 184 1339 184 1339 262 1339 c 2,5,-1
 276 1339 l 2,6,7
 352 1339 352 1339 352 1298 c 2,8,-1
 352 758 l 1,9,-1
 1044 758 l 1,10,-1
 1044 1298 l 2,11,12
 1044 1339 1044 1339 1120 1339 c 2,13,-1
 1137 1339 l 2,14,15
 1212 1339 1212 1339 1212 1298 c 2,16,-1
 1212 39 l 2,17,18
 1212 -4 1212 -4 1137 -4 c 2,19,-1
 1120 -4 l 2,20,21
 1044 -4 1044 -4 1044 39 c 2,22,-1
 1044 612 l 1,23,-1
 352 612 l 1,24,-1
 352 39 l 2,25,26
 352 -4 352 -4 276 -4 c 2,27,-1
 262 -4 l 2,0,1
717 -334 m 0,28,29
 641 -334 641 -334 641 -293 c 2,30,-1
 641 -195 l 2,31,32
 641 -154 641 -154 725 -154 c 0,33,34
 801 -154 801 -154 801 -195 c 2,35,-1
 801 -293 l 2,36,37
 801 -334 801 -334 717 -334 c 0,28,29
EndSplineSet
Position2: "'cpsp' Capital Spacing lookup 0 subtable" dx=20 dy=0 dh=41 dv=0
EndChar

StartChar: I
Encoding: 73 73 71
Width: 540
VWidth: 1908
GlyphClass: 2
Flags: MW
HStem: -4 86G<236 262 262 276> 1257 82G<262 276 276 303>
VStem: 184 168<39 1298>
AnchorPoint: "Anchor-1" 270 1335 basechar 0
AnchorPoint: "Anchor-0" 266 0 basechar 0
LayerCount: 2
Back
Fore
SplineSet
262 -4 m 2,0,1
 184 -4 184 -4 184 39 c 2,2,-1
 184 1298 l 2,3,4
 184 1339 184 1339 262 1339 c 2,5,-1
 276 1339 l 2,6,7
 352 1339 352 1339 352 1298 c 2,8,-1
 352 39 l 2,9,10
 352 -4 352 -4 276 -4 c 2,11,-1
 262 -4 l 2,0,1
EndSplineSet
Position2: "'cpsp' Capital Spacing lookup 0 subtable" dx=20 dy=0 dh=41 dv=0
EndChar

StartChar: IJ
Encoding: 306 306 72
Width: 1306
VWidth: 1908
GlyphClass: 2
Flags: MW
HStem: -12 150<707 807 682 890> 1257 82G<262 276 276 303 1057 1071 1071 1098>
VStem: 184 168<39 1298> 979 168<373 391 391 1298>
AnchorPoint: "Anchor-1" 1057 1335 basechar 0
AnchorPoint: "Anchor-0" 266 0 basechar 0
LayerCount: 2
Back
Fore
SplineSet
262 -4 m 2,0,1
 184 -4 184 -4 184 39 c 2,2,-1
 184 1298 l 2,3,4
 184 1339 184 1339 262 1339 c 2,5,-1
 276 1339 l 2,6,7
 352 1339 352 1339 352 1298 c 2,8,-1
 352 39 l 2,9,10
 352 -4 352 -4 276 -4 c 2,11,-1
 262 -4 l 2,0,1
743 -12 m 0,12,13
 669 -12 669 -12 610 1.5 c 128,-1,14
 551 15 551 15 551 49 c 0,15,16
 551 69 551 69 561.5 111.5 c 128,-1,17
 572 154 572 154 592 154 c 0,18,19
 594 154 594 154 635.5 145.5 c 128,-1,20
 677 137 677 137 713 137 c 0,21,22
 853 137 853 137 916 193 c 128,-1,23
 979 249 979 249 979 373 c 2,24,-1
 979 1298 l 2,25,26
 979 1339 979 1339 1057 1339 c 2,27,-1
 1071 1339 l 2,28,29
 1147 1339 1147 1339 1147 1298 c 2,30,-1
 1147 391 l 2,31,32
 1147 201 1147 201 1050 94.5 c 128,-1,33
 953 -12 953 -12 743 -12 c 0,12,13
EndSplineSet
Position2: "'cpsp' Capital Spacing lookup 0 subtable" dx=20 dy=0 dh=41 dv=0
EndChar

StartChar: Iacute
Encoding: 205 205 73
Width: 540
VWidth: 1908
GlyphClass: 2
Flags: MW
HStem: -4 86G<236 262 262 276> 1257 82G<262 276 276 303> 1454 281<220 453>
VStem: 184 168<39 1298>
AnchorPoint: "Anchor-1" 270 1335 basechar 0
AnchorPoint: "Anchor-0" 266 0 basechar 0
LayerCount: 2
Back
Fore
SplineSet
236 1454 m 0,0,1
 193 1454 193 1454 193 1475 c 0,2,3
 193 1488 193 1488 212.5 1525 c 128,-1,4
 232 1562 232 1562 303 1686 c 0,5,6
 329 1735 329 1735 422 1735 c 0,7,8
 514 1735 514 1735 514 1710 c 0,9,10
 514 1698 514 1698 493 1671.5 c 128,-1,11
 472 1645 472 1645 399 1562 c 0,12,13
 359 1517 359 1517 334 1489 c 0,14,15
 304 1454 304 1454 236 1454 c 0,0,1
262 -4 m 2,16,17
 184 -4 184 -4 184 39 c 2,18,-1
 184 1298 l 2,19,20
 184 1339 184 1339 262 1339 c 2,21,-1
 276 1339 l 2,22,23
 352 1339 352 1339 352 1298 c 2,24,-1
 352 39 l 2,25,26
 352 -4 352 -4 276 -4 c 2,27,-1
 262 -4 l 2,16,17
EndSplineSet
Position2: "'cpsp' Capital Spacing lookup 0 subtable" dx=20 dy=0 dh=41 dv=0
EndChar

StartChar: Ibreve
Encoding: 300 300 74
Width: 540
VWidth: 1908
GlyphClass: 2
Flags: MW
HStem: -4 86G<236 262 262 276> 1257 82G<262 276 276 303> 1454 201
VStem: 184 168<39 1298>
AnchorPoint: "Anchor-1" 270 1618 basechar 0
AnchorPoint: "Anchor-0" 266 0 basechar 0
LayerCount: 2
Back
Fore
SplineSet
268 1454 m 0,0,1
 157 1454 157 1454 74.5 1512 c 128,-1,2
 -8 1570 -8 1570 -8 1673 c 0,3,4
 -8 1702 -8 1702 20 1702 c 0,5,6
 32 1702 32 1702 38.5 1698.5 c 128,-1,7
 45 1695 45 1695 47.5 1690.5 c 128,-1,8
 50 1686 50 1686 54.5 1674.5 c 128,-1,9
 59 1663 59 1663 63 1655 c 0,10,11
 103 1581 103 1581 268 1581 c 128,-1,12
 433 1581 433 1581 473 1655 c 0,13,14
 476 1662 476 1662 480.5 1674.5 c 128,-1,15
 485 1687 485 1687 487.5 1691 c 128,-1,16
 490 1695 490 1695 496.5 1698.5 c 128,-1,17
 503 1702 503 1702 514 1702 c 0,18,19
 531 1702 531 1702 537 1695.5 c 128,-1,20
 543 1689 543 1689 543 1673 c 0,21,22
 543 1604 543 1604 501.5 1552.5 c 128,-1,23
 460 1501 460 1501 399 1477.5 c 128,-1,24
 338 1454 338 1454 268 1454 c 0,0,1
262 -4 m 2,25,26
 184 -4 184 -4 184 39 c 2,27,-1
 184 1298 l 2,28,29
 184 1339 184 1339 262 1339 c 2,30,-1
 276 1339 l 2,31,32
 352 1339 352 1339 352 1298 c 2,33,-1
 352 39 l 2,34,35
 352 -4 352 -4 276 -4 c 2,36,-1
 262 -4 l 2,25,26
EndSplineSet
Position2: "'cpsp' Capital Spacing lookup 0 subtable" dx=20 dy=0 dh=41 dv=0
EndChar

StartChar: Icircumflex
Encoding: 206 206 75
Width: 540
VWidth: 1908
GlyphClass: 2
Flags: MW
HStem: -4 86G<236 262 262 276> 1257 82G<262 276 276 303> 1604 104<266 266>
VStem: 184 168<39 1298>
AnchorPoint: "Anchor-1" 582 1528 basechar 0
AnchorPoint: "Anchor-0" 266 0 basechar 0
LayerCount: 2
Back
Fore
SplineSet
82 1438 m 2,0,1
 39 1438 39 1438 39 1464 c 0,2,3
 39 1482 39 1482 49 1499 c 2,4,-1
 156 1667 l 2,5,6
 184 1708 184 1708 244 1708 c 2,7,-1
 293 1708 l 2,8,9
 354 1708 354 1708 379 1667 c 2,10,-1
 489 1499 l 2,11,12
 500 1477 500 1477 500 1466 c 0,13,14
 500 1438 500 1438 455 1438 c 2,15,-1
 451 1438 l 2,16,17
 414 1438 414 1438 387 1462 c 1,18,-1
 266 1604 l 1,19,-1
 152 1462 l 1,20,21
 122 1438 122 1438 86 1438 c 2,22,-1
 82 1438 l 2,0,1
262 -4 m 2,23,24
 184 -4 184 -4 184 39 c 2,25,-1
 184 1298 l 2,26,27
 184 1339 184 1339 262 1339 c 2,28,-1
 276 1339 l 2,29,30
 352 1339 352 1339 352 1298 c 2,31,-1
 352 39 l 2,32,33
 352 -4 352 -4 276 -4 c 2,34,-1
 262 -4 l 2,23,24
EndSplineSet
Position2: "'cpsp' Capital Spacing lookup 0 subtable" dx=20 dy=0 dh=41 dv=0
EndChar

StartChar: Idieresis
Encoding: 207 207 76
Width: 540
VWidth: 1908
GlyphClass: 2
Flags: MW
HStem: -4 86G<236 262 262 276> 1257 82G<262 276 276 303> 1497 139<51 158>
VStem: 51 160<1538 1636 1526 1649> 184 168<39 1298> 326 160<1538 1636 1526 1649>
AnchorPoint: "Anchor-1" 270 1335 basechar 0
AnchorPoint: "Anchor-0" 266 0 basechar 0
LayerCount: 2
Back
Fore
SplineSet
127 1497 m 0,0,1
 51 1497 51 1497 51 1538 c 2,2,-1
 51 1636 l 2,3,4
 51 1677 51 1677 135 1677 c 0,5,6
 211 1677 211 1677 211 1636 c 2,7,-1
 211 1538 l 2,8,9
 211 1497 211 1497 127 1497 c 0,0,1
401 1497 m 0,10,11
 326 1497 326 1497 326 1538 c 2,12,-1
 326 1636 l 2,13,14
 326 1677 326 1677 410 1677 c 0,15,16
 485 1677 485 1677 485 1636 c 2,17,-1
 485 1538 l 2,18,19
 485 1497 485 1497 401 1497 c 0,10,11
262 -4 m 2,20,21
 184 -4 184 -4 184 39 c 2,22,-1
 184 1298 l 2,23,24
 184 1339 184 1339 262 1339 c 2,25,-1
 276 1339 l 2,26,27
 352 1339 352 1339 352 1298 c 2,28,-1
 352 39 l 2,29,30
 352 -4 352 -4 276 -4 c 2,31,-1
 262 -4 l 2,20,21
EndSplineSet
Position2: "'cpsp' Capital Spacing lookup 0 subtable" dx=20 dy=0 dh=41 dv=0
EndChar

StartChar: Idotaccent
Encoding: 304 304 77
Width: 540
VWidth: 1908
GlyphClass: 2
Flags: MW
HStem: -4 86G<236 262 262 276> 1257 82G<262 276 276 303> 1497 139<188 295>
VStem: 184 168<39 1298>
AnchorPoint: "Anchor-1" 270 1335 basechar 0
AnchorPoint: "Anchor-0" 266 0 basechar 0
LayerCount: 2
Back
Fore
SplineSet
264 1497 m 0,0,1
 188 1497 188 1497 188 1538 c 2,2,-1
 188 1636 l 2,3,4
 188 1677 188 1677 272 1677 c 0,5,6
 348 1677 348 1677 348 1636 c 2,7,-1
 348 1538 l 2,8,9
 348 1497 348 1497 264 1497 c 0,0,1
262 -4 m 2,10,11
 184 -4 184 -4 184 39 c 2,12,-1
 184 1298 l 2,13,14
 184 1339 184 1339 262 1339 c 2,15,-1
 276 1339 l 2,16,17
 352 1339 352 1339 352 1298 c 2,18,-1
 352 39 l 2,19,20
 352 -4 352 -4 276 -4 c 2,21,-1
 262 -4 l 2,10,11
EndSplineSet
Position2: "'cpsp' Capital Spacing lookup 0 subtable" dx=20 dy=0 dh=41 dv=0
EndChar

StartChar: uni1ECA
Encoding: 7882 7882 78
Width: 540
VWidth: 1908
GlyphClass: 2
Flags: MW
HStem: -334 139<190 297> -4 86G<236 262 262 276> 1257 82G<262 276 276 303>
VStem: 184 168<39 1298>
AnchorPoint: "Anchor-1" 270 1335 basechar 0
AnchorPoint: "Anchor-0" 266 -389 basechar 0
LayerCount: 2
Back
Fore
SplineSet
262 -4 m 2,0,1
 184 -4 184 -4 184 39 c 2,2,-1
 184 1298 l 2,3,4
 184 1339 184 1339 262 1339 c 2,5,-1
 276 1339 l 2,6,7
 352 1339 352 1339 352 1298 c 2,8,-1
 352 39 l 2,9,10
 352 -4 352 -4 276 -4 c 2,11,-1
 262 -4 l 2,0,1
266 -334 m 0,12,13
 190 -334 190 -334 190 -293 c 2,14,-1
 190 -195 l 2,15,16
 190 -154 190 -154 274 -154 c 0,17,18
 350 -154 350 -154 350 -195 c 2,19,-1
 350 -293 l 2,20,21
 350 -334 350 -334 266 -334 c 0,12,13
EndSplineSet
Position2: "'cpsp' Capital Spacing lookup 0 subtable" dx=20 dy=0 dh=41 dv=0
EndChar

StartChar: Igrave
Encoding: 204 204 79
Width: 540
VWidth: 1908
GlyphClass: 2
Flags: MW
HStem: -4 86G<236 262 262 276> 1257 82G<262 276 276 303> 1454 281<104 335>
VStem: 184 168<39 1298>
AnchorPoint: "Anchor-1" 270 1335 basechar 0
AnchorPoint: "Anchor-0" 266 0 basechar 0
LayerCount: 2
Back
Fore
SplineSet
319 1454 m 0,0,1
 253 1454 253 1454 223 1489 c 0,2,3
 94 1634 94 1634 68.5 1665 c 128,-1,4
 43 1696 43 1696 43 1710 c 0,5,6
 43 1735 43 1735 135 1735 c 0,7,8
 226 1735 226 1735 252 1686 c 0,9,10
 355 1505 355 1505 361 1490 c 0,11,12
 365 1480 365 1480 365 1475 c 0,13,14
 365 1454 365 1454 319 1454 c 0,0,1
262 -4 m 2,15,16
 184 -4 184 -4 184 39 c 2,17,-1
 184 1298 l 2,18,19
 184 1339 184 1339 262 1339 c 2,20,-1
 276 1339 l 2,21,22
 352 1339 352 1339 352 1298 c 2,23,-1
 352 39 l 2,24,25
 352 -4 352 -4 276 -4 c 2,26,-1
 262 -4 l 2,15,16
EndSplineSet
Position2: "'cpsp' Capital Spacing lookup 0 subtable" dx=20 dy=0 dh=41 dv=0
EndChar

StartChar: uni1EC8
Encoding: 7880 7880 80
Width: 540
VWidth: 1908
GlyphClass: 2
Flags: MW
HStem: -4 86G<236 262 262 276> 1257 82G<262 276 276 303> 1671 98<249 286>
VStem: 184 168<39 1298> 338 117<1573 1637>
AnchorPoint: "Anchor-1" 270 1675 basechar 0
AnchorPoint: "Anchor-0" 266 0 basechar 0
LayerCount: 2
Back
Fore
SplineSet
283 1413 m 0,0,1
 267 1413 267 1413 243 1423.5 c 128,-1,2
 219 1434 219 1434 219 1446 c 0,3,4
 219 1464 219 1464 237.5 1483.5 c 128,-1,5
 256 1503 256 1503 278.5 1518.5 c 128,-1,6
 301 1534 301 1534 319.5 1561 c 128,-1,7
 338 1588 338 1588 338 1620 c 0,8,9
 338 1645 338 1645 317.5 1658 c 128,-1,10
 297 1671 297 1671 266 1671 c 0,11,12
 240 1671 240 1671 220.5 1665 c 128,-1,13
 201 1659 201 1659 191 1653 c 128,-1,14
 181 1647 181 1647 178 1647 c 0,15,16
 168 1647 168 1647 150.5 1671.5 c 128,-1,17
 133 1696 133 1696 133 1710 c 0,18,19
 133 1729 133 1729 183 1749 c 128,-1,20
 233 1769 233 1769 283 1769 c 0,21,22
 320 1769 320 1769 356.5 1758 c 128,-1,23
 393 1747 393 1747 424 1714.5 c 128,-1,24
 455 1682 455 1682 455 1634 c 0,25,26
 455 1590 455 1590 431.5 1546.5 c 128,-1,27
 408 1503 408 1503 377.5 1475.5 c 128,-1,28
 347 1448 347 1448 320 1430.5 c 128,-1,29
 293 1413 293 1413 283 1413 c 0,0,1
262 -4 m 2,30,31
 184 -4 184 -4 184 39 c 2,32,-1
 184 1298 l 2,33,34
 184 1339 184 1339 262 1339 c 2,35,-1
 276 1339 l 2,36,37
 352 1339 352 1339 352 1298 c 2,38,-1
 352 39 l 2,39,40
 352 -4 352 -4 276 -4 c 2,41,-1
 262 -4 l 2,30,31
EndSplineSet
Position2: "'cpsp' Capital Spacing lookup 0 subtable" dx=20 dy=0 dh=41 dv=0
EndChar

StartChar: Imacron
Encoding: 298 298 81
Width: 540
VWidth: 1908
GlyphClass: 2
Flags: MW
HStem: -4 86G<236 262 262 276> 1257 82G<262 276 276 303> 1505 135<42 481 55 481>
VStem: 184 168<39 1298>
AnchorPoint: "Anchor-1" 270 1335 basechar 0
AnchorPoint: "Anchor-0" 266 0 basechar 0
LayerCount: 2
Back
Fore
SplineSet
55 1505 m 2,0,1
 16 1505 16 1505 16 1563 c 2,2,-1
 16 1583 l 2,3,4
 16 1640 16 1640 55 1640 c 2,5,-1
 481 1640 l 2,6,7
 518 1640 518 1640 518 1583 c 2,8,-1
 518 1563 l 2,9,10
 518 1505 518 1505 481 1505 c 2,11,-1
 55 1505 l 2,0,1
262 -4 m 2,12,13
 184 -4 184 -4 184 39 c 2,14,-1
 184 1298 l 2,15,16
 184 1339 184 1339 262 1339 c 2,17,-1
 276 1339 l 2,18,19
 352 1339 352 1339 352 1298 c 2,20,-1
 352 39 l 2,21,22
 352 -4 352 -4 276 -4 c 2,23,-1
 262 -4 l 2,12,13
EndSplineSet
Position2: "'cpsp' Capital Spacing lookup 0 subtable" dx=20 dy=0 dh=41 dv=0
EndChar

StartChar: Iogonek
Encoding: 302 302 82
Width: 540
VWidth: 1908
GlyphClass: 2
Flags: MW
HStem: -350 135<391 428 391 439> -2 86G 2 86G 1257 82G<262 276 276 303>
VStem: 184 168<39 1298>
AnchorPoint: "Anchor-1" 270 1335 basechar 0
AnchorPoint: "Anchor-0" 266 0 basechar 0
LayerCount: 2
Back
Fore
SplineSet
512 -197 m 0,0,1
 549 -197 549 -197 549 -244 c 0,2,3
 549 -305 549 -305 509.5 -327.5 c 128,-1,4
 470 -350 470 -350 391 -350 c 0,5,6
 333 -350 333 -350 290 -334.5 c 128,-1,7
 247 -319 247 -319 224 -297.5 c 128,-1,8
 201 -276 201 -276 187 -247 c 128,-1,9
 173 -218 173 -218 169.5 -196.5 c 128,-1,10
 166 -175 166 -175 166 -154 c 0,11,12
 166 -42 166 -42 215 2 c 1,13,14
 184 11 184 11 184 39 c 2,15,-1
 184 1298 l 2,16,17
 184 1339 184 1339 262 1339 c 2,18,-1
 276 1339 l 2,19,20
 352 1339 352 1339 352 1298 c 2,21,-1
 352 39 l 2,22,23
 352 9 352 9 317 -2 c 1,24,25
 317 -13 317 -13 306 -53 c 128,-1,26
 295 -93 295 -93 295 -119 c 0,27,28
 295 -151 295 -151 306.5 -172 c 128,-1,29
 318 -193 318 -193 338.5 -201.5 c 128,-1,30
 359 -210 359 -210 375.5 -212.5 c 128,-1,31
 392 -215 392 -215 414 -215 c 0,32,33
 428 -215 428 -215 462 -206 c 128,-1,34
 496 -197 496 -197 512 -197 c 0,0,1
EndSplineSet
Position2: "'cpsp' Capital Spacing lookup 0 subtable" dx=20 dy=0 dh=41 dv=0
EndChar

StartChar: Itilde
Encoding: 296 296 83
Width: 540
VWidth: 1908
GlyphClass: 2
Flags: MW
HStem: -4 86G<236 262 262 276> 1257 82G<262 276 276 303>
VStem: 184 168<39 1298>
AnchorPoint: "Anchor-1" 270 1335 basechar 0
AnchorPoint: "Anchor-0" 266 0 basechar 0
LayerCount: 2
Back
Fore
SplineSet
276 1339 m 2,0,1
 352 1339 352 1339 352 1298 c 2,2,-1
 352 39 l 2,3,4
 352 -4 352 -4 276 -4 c 2,5,-1
 262 -4 l 2,6,7
 184 -4 184 -4 184 39 c 2,8,-1
 184 1298 l 2,9,10
 184 1339 184 1339 262 1339 c 2,11,-1
 276 1339 l 2,0,1
EndSplineSet
Position2: "'cpsp' Capital Spacing lookup 0 subtable" dx=20 dy=0 dh=41 dv=0
EndChar

StartChar: J
Encoding: 74 74 84
Width: 770
VWidth: 1908
GlyphClass: 2
Flags: MW
HStem: -12 150<168 268 143 351> 1257 82G<518 532 532 559>
VStem: 440 168<373 391 391 1298>
AnchorPoint: "Anchor-1" 520 1335 basechar 0
AnchorPoint: "Anchor-0" 0 0 basechar 0
LayerCount: 2
Back
Fore
SplineSet
205 -12 m 0,0,1
 131 -12 131 -12 71.5 1.5 c 128,-1,2
 12 15 12 15 12 49 c 0,3,4
 12 69 12 69 22.5 111.5 c 128,-1,5
 33 154 33 154 53 154 c 0,6,7
 55 154 55 154 96.5 145.5 c 128,-1,8
 138 137 138 137 174 137 c 0,9,10
 314 137 314 137 377 193 c 128,-1,11
 440 249 440 249 440 373 c 2,12,-1
 440 1298 l 2,13,14
 440 1339 440 1339 518 1339 c 2,15,-1
 532 1339 l 2,16,17
 608 1339 608 1339 608 1298 c 2,18,-1
 608 391 l 2,19,20
 608 -12 608 -12 205 -12 c 0,0,1
EndSplineSet
Position2: "'cpsp' Capital Spacing lookup 0 subtable" dx=20 dy=0 dh=41 dv=0
EndChar

StartChar: Jcircumflex
Encoding: 308 308 85
Width: 770
VWidth: 1908
GlyphClass: 2
Flags: MW
HStem: -12 150<168 268 143 351> 1257 82G<518 532 532 559> 1604 104<516 516>
VStem: 440 168<373 391 391 1298>
AnchorPoint: "Anchor-1" 831 1528 basechar 0
AnchorPoint: "Anchor-0" 0 0 basechar 0
LayerCount: 2
Back
Fore
SplineSet
332 1438 m 2,0,1
 289 1438 289 1438 289 1464 c 0,2,3
 289 1482 289 1482 299 1499 c 2,4,-1
 406 1667 l 2,5,6
 434 1708 434 1708 494 1708 c 2,7,-1
 543 1708 l 2,8,9
 604 1708 604 1708 629 1667 c 2,10,-1
 739 1499 l 2,11,12
 750 1477 750 1477 750 1466 c 0,13,14
 750 1438 750 1438 705 1438 c 2,15,-1
 700 1438 l 2,16,17
 664 1438 664 1438 637 1462 c 1,18,-1
 516 1604 l 1,19,-1
 401 1462 l 1,20,21
 371 1438 371 1438 336 1438 c 2,22,-1
 332 1438 l 2,0,1
205 -12 m 0,23,24
 131 -12 131 -12 71.5 1.5 c 128,-1,25
 12 15 12 15 12 49 c 0,26,27
 12 69 12 69 22.5 111.5 c 128,-1,28
 33 154 33 154 53 154 c 0,29,30
 55 154 55 154 96.5 145.5 c 128,-1,31
 138 137 138 137 174 137 c 0,32,33
 314 137 314 137 377 193 c 128,-1,34
 440 249 440 249 440 373 c 2,35,-1
 440 1298 l 2,36,37
 440 1339 440 1339 518 1339 c 2,38,-1
 532 1339 l 2,39,40
 608 1339 608 1339 608 1298 c 2,41,-1
 608 391 l 2,42,43
 608 -12 608 -12 205 -12 c 0,23,24
EndSplineSet
Position2: "'cpsp' Capital Spacing lookup 0 subtable" dx=20 dy=0 dh=41 dv=0
EndChar

StartChar: K
Encoding: 75 75 86
Width: 1101
VWidth: 1908
GlyphClass: 2
Flags: MW
HStem: -4 86G<236 262 262 276 990 1012 1012 1034> 1257 82G<262 276 276 303 934 952 952 975>
VStem: 184 168<39 635 715 1298>
AnchorPoint: "Anchor-1" 549 1335 basechar 0
AnchorPoint: "Anchor-0" 549 0 basechar 0
LayerCount: 2
Back
Fore
SplineSet
262 -4 m 2,0,1
 184 -4 184 -4 184 39 c 2,2,-1
 184 1298 l 2,3,4
 184 1339 184 1339 262 1339 c 2,5,-1
 276 1339 l 2,6,7
 352 1339 352 1339 352 1298 c 2,8,-1
 352 715 l 1,9,-1
 360 715 l 1,10,-1
 829 1313 l 2,11,12
 852 1339 852 1339 934 1339 c 2,13,-1
 952 1339 l 2,14,15
 1020 1339 1020 1339 1020 1315 c 0,16,17
 1020 1299 1020 1299 999 1278 c 2,18,-1
 522 682 l 1,19,-1
 1102 53 l 2,20,21
 1118 34 1118 34 1118 23 c 0,22,23
 1118 -4 1118 -4 1034 -4 c 2,24,-1
 1012 -4 l 2,25,26
 982 -4 982 -4 969 -3.5 c 128,-1,27
 956 -3 956 -3 937 2.5 c 128,-1,28
 918 8 918 8 907 20 c 2,29,-1
 360 635 l 1,30,-1
 352 635 l 1,31,-1
 352 39 l 2,32,33
 352 -4 352 -4 276 -4 c 2,34,-1
 262 -4 l 2,0,1
EndSplineSet
Position2: "'cpsp' Capital Spacing lookup 0 subtable" dx=20 dy=0 dh=41 dv=0
EndChar

StartChar: Kcommaaccent
Encoding: 310 310 87
Width: 1101
VWidth: 1908
GlyphClass: 2
Flags: MW
HStem: -449 86G<426 468> -4 86G<236 262 262 276 990 1012 1012 1034> 1257 82G<262 276 276 303 934 952 952 975>
VStem: 184 168<39 635 715 1298> 463 170<-230 -140>
AnchorPoint: "Anchor-1" 549 1335 basechar 0
AnchorPoint: "Anchor-0" 541 -389 basechar 0
LayerCount: 2
Back
Fore
SplineSet
262 -4 m 2,0,1
 184 -4 184 -4 184 39 c 2,2,-1
 184 1298 l 2,3,4
 184 1339 184 1339 262 1339 c 2,5,-1
 276 1339 l 2,6,7
 352 1339 352 1339 352 1298 c 2,8,-1
 352 715 l 1,9,-1
 360 715 l 1,10,-1
 829 1313 l 2,11,12
 852 1339 852 1339 934 1339 c 2,13,-1
 952 1339 l 2,14,15
 1020 1339 1020 1339 1020 1315 c 0,16,17
 1020 1299 1020 1299 999 1278 c 2,18,-1
 522 682 l 1,19,-1
 1102 53 l 2,20,21
 1118 34 1118 34 1118 23 c 0,22,23
 1118 -4 1118 -4 1034 -4 c 2,24,-1
 1012 -4 l 2,25,26
 982 -4 982 -4 969 -3.5 c 128,-1,27
 956 -3 956 -3 937 2.5 c 128,-1,28
 918 8 918 8 907 20 c 2,29,-1
 360 635 l 1,30,-1
 352 635 l 1,31,-1
 352 39 l 2,32,33
 352 -4 352 -4 276 -4 c 2,34,-1
 262 -4 l 2,0,1
436 -449 m 0,35,36
 416 -449 416 -449 398.5 -442 c 128,-1,37
 381 -435 381 -435 381 -420 c 128,-1,38
 381 -405 381 -405 401.5 -369 c 128,-1,39
 422 -333 422 -333 442.5 -277 c 128,-1,40
 463 -221 463 -221 463 -158 c 0,41,42
 463 -131 463 -131 482.5 -114.5 c 128,-1,43
 502 -98 502 -98 539 -98 c 2,44,-1
 557 -98 l 2,45,46
 592 -98 592 -98 612.5 -112.5 c 128,-1,47
 633 -127 633 -127 633 -152 c 0,48,49
 633 -216 633 -216 611 -274.5 c 128,-1,50
 589 -333 589 -333 557.5 -369.5 c 128,-1,51
 526 -406 526 -406 493.5 -427.5 c 128,-1,52
 461 -449 461 -449 436 -449 c 0,35,36
EndSplineSet
Position2: "'cpsp' Capital Spacing lookup 0 subtable" dx=20 dy=0 dh=41 dv=0
EndChar

StartChar: L
Encoding: 76 76 88
Width: 925
VWidth: 1908
GlyphClass: 2
Flags: MW
HStem: 0 145<222 879 352 879 352 879> 1257 82G<262 276 276 303>
VStem: 184 168<145 1298 145 1298 145 1312>
AnchorPoint: "Anchor-1" 279 1339 basechar 0
AnchorPoint: "Anchor-0" 541 0 basechar 0
LayerCount: 2
Back
Fore
SplineSet
242 0 m 2,0,1
 184 0 184 0 184 57 c 2,2,-1
 184 1298 l 2,3,4
 184 1339 184 1339 262 1339 c 2,5,-1
 276 1339 l 2,6,7
 352 1339 352 1339 352 1298 c 2,8,-1
 352 145 l 1,9,-1
 879 145 l 2,10,11
 899 145 899 145 907 131.5 c 128,-1,12
 915 118 915 118 915 88 c 2,13,-1
 915 57 l 2,14,15
 915 26 915 26 907 13 c 128,-1,16
 899 0 899 0 879 0 c 2,17,-1
 242 0 l 2,0,1
EndSplineSet
Position2: "'cpsp' Capital Spacing lookup 0 subtable" dx=20 dy=0 dh=41 dv=0
EndChar

StartChar: uni01C7
Encoding: 455 455 89
Width: 1372
VWidth: 1908
GlyphClass: 2
Flags: MW
HStem: -297 147<767 867 742 950> 0 145<222 743 352 743 352 743> 1257 82G<262 276 276 303 1116 1133 1133 1159>
VStem: 184 168<145 1298 145 1298 145 1312> 1040 168<86 104 104 1298>
LayerCount: 2
Back
Fore
SplineSet
242 0 m 2,0,1
 184 0 184 0 184 57 c 2,2,-1
 184 1298 l 2,3,4
 184 1339 184 1339 262 1339 c 2,5,-1
 276 1339 l 2,6,7
 352 1339 352 1339 352 1298 c 2,8,-1
 352 145 l 1,9,-1
 743 145 l 2,10,11
 764 145 764 145 773 131.5 c 128,-1,12
 782 118 782 118 782 88 c 2,13,-1
 782 57 l 2,14,15
 782 26 782 26 773.5 13 c 128,-1,16
 765 0 765 0 743 0 c 2,17,-1
 242 0 l 2,0,1
803 -297 m 0,18,19
 610 -297 610 -297 610 -238 c 0,20,21
 610 -218 610 -218 621.5 -174.5 c 128,-1,22
 633 -131 633 -131 653 -131 c 0,23,24
 654 -131 654 -131 695.5 -140.5 c 128,-1,25
 737 -150 737 -150 772 -150 c 0,26,27
 914 -150 914 -150 977 -94 c 128,-1,28
 1040 -38 1040 -38 1040 86 c 2,29,-1
 1040 1298 l 2,30,31
 1040 1339 1040 1339 1116 1339 c 2,32,-1
 1133 1339 l 2,33,34
 1208 1339 1208 1339 1208 1298 c 2,35,-1
 1208 104 l 2,36,37
 1208 -297 1208 -297 803 -297 c 0,18,19
EndSplineSet
Position2: "'cpsp' Capital Spacing lookup 0 subtable" dx=20 dy=0 dh=41 dv=0
EndChar

StartChar: Lacute
Encoding: 313 313 90
Width: 925
VWidth: 1908
GlyphClass: 2
Flags: MW
HStem: 0 145<222 879 352 879 352 879> 1257 82G<262 276 276 303> 1458 281<228 461>
VStem: 184 168<145 1298 145 1298 145 1312>
AnchorPoint: "Anchor-1" 279 1339 basechar 0
AnchorPoint: "Anchor-0" 541 0 basechar 0
LayerCount: 2
Back
Fore
SplineSet
244 1458 m 0,0,1
 201 1458 201 1458 201 1479 c 0,2,3
 201 1492 201 1492 220.5 1529 c 128,-1,4
 240 1566 240 1566 311 1690 c 0,5,6
 337 1739 337 1739 430 1739 c 0,7,8
 522 1739 522 1739 522 1714 c 0,9,10
 522 1702 522 1702 501 1675.5 c 128,-1,11
 480 1649 480 1649 407 1566 c 0,12,13
 367 1521 367 1521 342 1493 c 0,14,15
 312 1458 312 1458 244 1458 c 0,0,1
242 0 m 2,16,17
 184 0 184 0 184 57 c 2,18,-1
 184 1298 l 2,19,20
 184 1339 184 1339 262 1339 c 2,21,-1
 276 1339 l 2,22,23
 352 1339 352 1339 352 1298 c 2,24,-1
 352 145 l 1,25,-1
 879 145 l 2,26,27
 899 145 899 145 907 131.5 c 128,-1,28
 915 118 915 118 915 88 c 2,29,-1
 915 57 l 2,30,31
 915 26 915 26 907 13 c 128,-1,32
 899 0 899 0 879 0 c 2,33,-1
 242 0 l 2,16,17
EndSplineSet
Position2: "'cpsp' Capital Spacing lookup 0 subtable" dx=20 dy=0 dh=41 dv=0
EndChar

StartChar: Lcaron
Encoding: 317 317 91
Width: 925
VWidth: 1908
GlyphClass: 2
Flags: MW
HStem: 0 145<222 879 352 879 352 879> 1253 82G<662 680 680 703> 1257 82G<262 276 276 303>
VStem: 184 168<145 1298 145 1298 145 1312> 586 170<1207 1293>
AnchorPoint: "Anchor-1" 279 1339 basechar 0
AnchorPoint: "Anchor-0" 541 0 basechar 0
LayerCount: 2
Back
Fore
SplineSet
242 0 m 2,0,1
 184 0 184 0 184 57 c 2,2,-1
 184 1298 l 2,3,4
 184 1339 184 1339 262 1339 c 2,5,-1
 276 1339 l 2,6,7
 352 1339 352 1339 352 1298 c 2,8,-1
 352 145 l 1,9,-1
 879 145 l 2,10,11
 899 145 899 145 907 131.5 c 128,-1,12
 915 118 915 118 915 88 c 2,13,-1
 915 57 l 2,14,15
 915 26 915 26 907 13 c 128,-1,16
 899 0 899 0 879 0 c 2,17,-1
 242 0 l 2,0,1
616 1004 m 0,18,19
 561 1004 561 1004 561 1032 c 0,20,21
 561 1040 561 1040 573.5 1118 c 128,-1,22
 586 1196 586 1196 586 1276 c 0,23,24
 586 1303 586 1303 605.5 1319 c 128,-1,25
 625 1335 625 1335 662 1335 c 2,26,-1
 680 1335 l 2,27,28
 715 1335 715 1335 735.5 1321 c 128,-1,29
 756 1307 756 1307 756 1282 c 0,30,31
 756 1165 756 1165 706.5 1084.5 c 128,-1,32
 657 1004 657 1004 616 1004 c 0,18,19
EndSplineSet
Position2: "'cpsp' Capital Spacing lookup 0 subtable" dx=20 dy=0 dh=41 dv=0
EndChar

StartChar: Lcommaaccent
Encoding: 315 315 92
Width: 925
VWidth: 1908
GlyphClass: 2
Flags: MW
HStem: -449 86G<416 458> 0 145<222 879 352 879 352 879> 1257 82G<262 276 276 303>
VStem: 184 168<145 1298 145 1298 145 1312> 453 170<-230 -140>
AnchorPoint: "Anchor-1" 279 1339 basechar 0
AnchorPoint: "Anchor-0" 532 -389 basechar 0
LayerCount: 2
Back
Fore
SplineSet
242 0 m 2,0,1
 184 0 184 0 184 57 c 2,2,-1
 184 1298 l 2,3,4
 184 1339 184 1339 262 1339 c 2,5,-1
 276 1339 l 2,6,7
 352 1339 352 1339 352 1298 c 2,8,-1
 352 145 l 1,9,-1
 879 145 l 2,10,11
 899 145 899 145 907 131.5 c 128,-1,12
 915 118 915 118 915 88 c 2,13,-1
 915 57 l 2,14,15
 915 26 915 26 907 13 c 128,-1,16
 899 0 899 0 879 0 c 2,17,-1
 242 0 l 2,0,1
426 -449 m 0,18,19
 406 -449 406 -449 388.5 -442 c 128,-1,20
 371 -435 371 -435 371 -420 c 128,-1,21
 371 -405 371 -405 391.5 -369 c 128,-1,22
 412 -333 412 -333 432.5 -277 c 128,-1,23
 453 -221 453 -221 453 -158 c 0,24,25
 453 -131 453 -131 472 -114.5 c 128,-1,26
 491 -98 491 -98 528 -98 c 2,27,-1
 547 -98 l 2,28,29
 582 -98 582 -98 602.5 -112.5 c 128,-1,30
 623 -127 623 -127 623 -152 c 0,31,32
 623 -216 623 -216 601 -274.5 c 128,-1,33
 579 -333 579 -333 547.5 -369.5 c 128,-1,34
 516 -406 516 -406 483.5 -427.5 c 128,-1,35
 451 -449 451 -449 426 -449 c 0,18,19
EndSplineSet
Position2: "'cpsp' Capital Spacing lookup 0 subtable" dx=20 dy=0 dh=41 dv=0
EndChar

StartChar: Ldot
Encoding: 319 319 93
Width: 925
VWidth: 1908
GlyphClass: 2
Flags: MW
HStem: 0 145<222 879 352 879 352 879> 590 197<548 603> 1257 82G<262 276 276 303>
VStem: 184 168<145 1298 145 1298 145 1312> 479 197<659 716>
AnchorPoint: "Anchor-1" 279 1339 basechar 0
AnchorPoint: "Anchor-0" 541 0 basechar 0
LayerCount: 2
Back
Fore
SplineSet
242 0 m 2,0,1
 184 0 184 0 184 57 c 2,2,-1
 184 1298 l 2,3,4
 184 1339 184 1339 262 1339 c 2,5,-1
 276 1339 l 2,6,7
 352 1339 352 1339 352 1298 c 2,8,-1
 352 145 l 1,9,-1
 879 145 l 2,10,11
 899 145 899 145 907 131.5 c 128,-1,12
 915 118 915 118 915 88 c 2,13,-1
 915 57 l 2,14,15
 915 26 915 26 907 13 c 128,-1,16
 899 0 899 0 879 0 c 2,17,-1
 242 0 l 2,0,1
575 590 m 0,18,19
 534 590 534 590 506.5 617.5 c 128,-1,20
 479 645 479 645 479 688 c 0,21,22
 479 729 479 729 506.5 757.5 c 128,-1,23
 534 786 534 786 575 786 c 0,24,25
 617 786 617 786 646.5 757.5 c 128,-1,26
 676 729 676 729 676 688 c 0,27,28
 676 646 676 646 646.5 618 c 128,-1,29
 617 590 617 590 575 590 c 0,18,19
EndSplineSet
Ligature2: "Ligature Substitution lookup 48 subtable" L periodcentered
Position2: "'cpsp' Capital Spacing lookup 0 subtable" dx=20 dy=0 dh=41 dv=0
EndChar

StartChar: uni01C8
Encoding: 456 456 94
Width: 1449
VWidth: 1908
GlyphClass: 2
Flags: MW
HStem: -406 139<1005 1041 986 1078> 0 145<222 879 352 879 352 879> 920 82G<1192 1200 1200 1227> 1239 197<1159 1208 1186 1208> 1257 82G<262 276 276 303>
VStem: 184 168<145 1298 145 1298 145 1312> 1116 160<-127 961>
AnchorPoint: "Anchor-1" 279 1339 basechar 0
AnchorPoint: "Anchor-0" 541 0 basechar 0
LayerCount: 2
Back
Fore
SplineSet
1186 1239 m 2,0,1
 1108 1239 1108 1239 1108 1280 c 2,2,-1
 1108 1393 l 2,3,4
 1108 1436 1108 1436 1186 1436 c 2,5,-1
 1208 1436 l 2,6,7
 1284 1436 1284 1436 1284 1393 c 2,8,-1
 1284 1280 l 2,9,10
 1284 1239 1284 1239 1208 1239 c 2,11,-1
 1186 1239 l 2,0,1
242 0 m 2,12,13
 184 0 184 0 184 57 c 2,14,-1
 184 1298 l 2,15,16
 184 1339 184 1339 262 1339 c 2,17,-1
 276 1339 l 2,18,19
 352 1339 352 1339 352 1298 c 2,20,-1
 352 145 l 1,21,-1
 879 145 l 2,22,23
 899 145 899 145 907 131.5 c 128,-1,24
 915 118 915 118 915 88 c 2,25,-1
 915 57 l 2,26,27
 915 26 915 26 907 13 c 128,-1,28
 899 0 899 0 879 0 c 2,29,-1
 242 0 l 2,12,13
1030 -406 m 0,30,31
 891 -406 891 -406 891 -348 c 0,32,33
 891 -328 891 -328 902.5 -293 c 128,-1,34
 914 -258 914 -258 932 -258 c 0,35,36
 935 -258 935 -258 958.5 -262 c 128,-1,37
 982 -266 982 -266 1014 -266 c 0,38,39
 1061 -266 1061 -266 1088.5 -235.5 c 128,-1,40
 1116 -205 1116 -205 1116 -127 c 2,41,-1
 1116 961 l 2,42,43
 1116 1001 1116 1001 1192 1001 c 2,44,-1
 1200 1001 l 2,45,46
 1276 1001 1276 1001 1276 961 c 2,47,-1
 1276 -141 l 2,48,49
 1276 -204 1276 -204 1259.5 -253 c 128,-1,50
 1243 -302 1243 -302 1217.5 -330 c 128,-1,51
 1192 -358 1192 -358 1157.5 -376 c 128,-1,52
 1123 -394 1123 -394 1092.5 -400 c 128,-1,53
 1062 -406 1062 -406 1030 -406 c 0,30,31
EndSplineSet
Position2: "'cpsp' Capital Spacing lookup 0 subtable" dx=20 dy=0 dh=41 dv=0
EndChar

StartChar: Lslash
Encoding: 321 321 95
Width: 929
VWidth: 1908
GlyphClass: 2
Flags: MW
HStem: 0 145<200 885 330 885 330 885> 1257 82G<238 254 254 281>
VStem: 162 168<145 664 664 664 752 766 854 1298>
LayerCount: 2
Back
Fore
SplineSet
219 0 m 2,0,1
 189 0 189 0 175.5 13.5 c 128,-1,2
 162 27 162 27 162 57 c 2,3,-1
 162 664 l 1,4,-1
 33 588 l 2,5,6
 22 580 22 580 14 580 c 0,7,8
 -4 580 -4 580 -4 606 c 2,9,-1
 -4 618 l 2,10,11
 -4 653 -4 653 33 676 c 2,12,-1
 162 752 l 1,13,-1
 162 1298 l 2,14,15
 162 1339 162 1339 238 1339 c 2,16,-1
 254 1339 l 2,17,18
 330 1339 330 1339 330 1298 c 2,19,-1
 330 854 l 1,20,-1
 537 975 l 2,21,22
 553 983 553 983 555 983 c 0,23,24
 573 983 573 983 573 956 c 2,25,-1
 573 944 l 2,26,27
 573 909 573 909 537 887 c 2,28,-1
 330 766 l 1,29,-1
 330 145 l 1,30,-1
 885 145 l 2,31,32
 924 145 924 145 924 88 c 2,33,-1
 924 57 l 2,34,35
 924 0 924 0 885 0 c 2,36,-1
 219 0 l 2,0,1
EndSplineSet
Position2: "'cpsp' Capital Spacing lookup 0 subtable" dx=20 dy=0 dh=41 dv=0
EndChar

StartChar: M
Encoding: 77 77 96
Width: 1609
VWidth: 1908
GlyphClass: 2
Flags: MW
HStem: -4 86G<221 248 248 262 1321 1348 1348 1362> 1257 82G<248 317 317 340 1298 1362 1362 1389>
VStem: 172 166<39 1077> 1272 166<39 1065 1065 1065>
LayerCount: 2
Back
Fore
SplineSet
248 -4 m 2,0,1
 172 -4 172 -4 172 39 c 2,2,-1
 172 1298 l 2,3,4
 172 1339 172 1339 248 1339 c 2,5,-1
 317 1339 l 2,6,7
 379 1339 379 1339 397 1305 c 2,8,-1
 758 680 l 1,9,-1
 807 559 l 1,10,-1
 856 668 l 1,11,-1
 1219 1305 l 2,12,13
 1234 1339 1234 1339 1298 1339 c 2,14,-1
 1362 1339 l 2,15,16
 1438 1339 1438 1339 1438 1298 c 2,17,-1
 1438 39 l 2,18,19
 1438 -4 1438 -4 1362 -4 c 2,20,-1
 1348 -4 l 2,21,22
 1272 -4 1272 -4 1272 39 c 2,23,-1
 1272 1065 l 1,24,-1
 1268 1057 l 1,25,-1
 887 397 l 2,26,27
 876 373 876 373 846 373 c 2,28,-1
 770 373 l 2,29,30
 740 373 740 373 727 397 c 2,31,-1
 342 1069 l 1,32,-1
 338 1077 l 1,33,-1
 338 39 l 2,34,35
 338 -4 338 -4 262 -4 c 2,36,-1
 248 -4 l 2,0,1
EndSplineSet
Position2: "'cpsp' Capital Spacing lookup 0 subtable" dx=20 dy=0 dh=41 dv=0
EndChar

StartChar: N
Encoding: 78 78 97
Width: 1372
VWidth: 1908
GlyphClass: 2
Flags: MW
HStem: -4 86G<221 248 248 262 1068 1085 1085 1124> 1257 82G<248 289 289 309 1110 1124 1124 1151>
VStem: 172 166<39 1071> 1034 166<276 1298>
AnchorPoint: "Anchor-1" 688 1335 basechar 0
AnchorPoint: "Anchor-0" 688 0 basechar 0
LayerCount: 2
Back
Fore
SplineSet
248 -4 m 2,0,1
 172 -4 172 -4 172 39 c 2,2,-1
 172 1298 l 2,3,4
 172 1339 172 1339 248 1339 c 2,5,-1
 289 1339 l 2,6,7
 321 1339 321 1339 338.5 1332 c 128,-1,8
 356 1325 356 1325 369 1305 c 2,9,-1
 977 383 l 1,10,-1
 1034 276 l 1,11,-1
 1034 1298 l 2,12,13
 1034 1339 1034 1339 1110 1339 c 2,14,-1
 1124 1339 l 2,15,16
 1200 1339 1200 1339 1200 1298 c 2,17,-1
 1200 39 l 2,18,19
 1200 -4 1200 -4 1124 -4 c 2,20,-1
 1085 -4 l 2,21,22
 1037 -4 1037 -4 1020 23 c 2,23,-1
 389 973 l 1,24,-1
 338 1071 l 1,25,-1
 338 39 l 2,26,27
 338 -4 338 -4 262 -4 c 2,28,-1
 248 -4 l 2,0,1
EndSplineSet
Position2: "'cpsp' Capital Spacing lookup 0 subtable" dx=20 dy=0 dh=41 dv=0
EndChar

StartChar: uni01CA
Encoding: 458 458 98
Width: 2142
VWidth: 1908
GlyphClass: 2
Flags: MW
HStem: -12 150<1540 1640 1516 1723> 1257 82G<248 289 289 309 1110 1124 1124 1151 1890 1905 1905 1931>
VStem: 172 166<39 1071> 1034 166<276 1298> 1812 168<373 391 391 1298>
AnchorPoint: "Anchor-1" 1888 1335 basechar 0
AnchorPoint: "Anchor-0" 688 0 basechar 0
LayerCount: 2
Back
Fore
SplineSet
248 -4 m 2,0,1
 172 -4 172 -4 172 39 c 2,2,-1
 172 1298 l 2,3,4
 172 1339 172 1339 248 1339 c 2,5,-1
 289 1339 l 2,6,7
 321 1339 321 1339 338.5 1332 c 128,-1,8
 356 1325 356 1325 369 1305 c 2,9,-1
 977 383 l 1,10,-1
 1034 276 l 1,11,-1
 1034 1298 l 2,12,13
 1034 1339 1034 1339 1110 1339 c 2,14,-1
 1124 1339 l 2,15,16
 1200 1339 1200 1339 1200 1298 c 2,17,-1
 1200 39 l 2,18,19
 1200 -4 1200 -4 1124 -4 c 2,20,-1
 1085 -4 l 2,21,22
 1037 -4 1037 -4 1020 23 c 2,23,-1
 389 973 l 1,24,-1
 338 1071 l 1,25,-1
 338 39 l 2,26,27
 338 -4 338 -4 262 -4 c 2,28,-1
 248 -4 l 2,0,1
1577 -12 m 0,29,30
 1503 -12 1503 -12 1443.5 1.5 c 128,-1,31
 1384 15 1384 15 1384 49 c 0,32,33
 1384 69 1384 69 1394.5 111.5 c 128,-1,34
 1405 154 1405 154 1425 154 c 0,35,36
 1427 154 1427 154 1468.5 145.5 c 128,-1,37
 1510 137 1510 137 1546 137 c 0,38,39
 1686 137 1686 137 1749 193 c 128,-1,40
 1812 249 1812 249 1812 373 c 2,41,-1
 1812 1298 l 2,42,43
 1812 1339 1812 1339 1890 1339 c 2,44,-1
 1905 1339 l 2,45,46
 1980 1339 1980 1339 1980 1298 c 2,47,-1
 1980 391 l 2,48,49
 1980 -12 1980 -12 1577 -12 c 0,29,30
EndSplineSet
Position2: "'cpsp' Capital Spacing lookup 0 subtable" dx=20 dy=0 dh=41 dv=0
EndChar

StartChar: Nacute
Encoding: 323 323 99
Width: 1372
VWidth: 1908
GlyphClass: 2
Flags: MW
HStem: -4 86G<221 248 248 262 1068 1085 1085 1124> 1257 82G<248 289 289 309 1110 1124 1124 1151> 1454 281<640 872>
VStem: 172 166<39 1071> 1034 166<276 1298>
AnchorPoint: "Anchor-1" 688 1335 basechar 0
AnchorPoint: "Anchor-0" 688 0 basechar 0
LayerCount: 2
Back
Fore
SplineSet
655 1454 m 0,0,1
 612 1454 612 1454 612 1475 c 0,2,3
 612 1488 612 1488 630.5 1522 c 128,-1,4
 649 1556 649 1556 723 1686 c 0,5,6
 749 1735 749 1735 842 1735 c 0,7,8
 934 1735 934 1735 934 1710 c 0,9,10
 934 1698 934 1698 913 1671.5 c 128,-1,11
 892 1645 892 1645 819 1562 c 0,12,13
 779 1517 779 1517 754 1489 c 0,14,15
 724 1454 724 1454 655 1454 c 0,0,1
248 -4 m 2,16,17
 172 -4 172 -4 172 39 c 2,18,-1
 172 1298 l 2,19,20
 172 1339 172 1339 248 1339 c 2,21,-1
 289 1339 l 2,22,23
 321 1339 321 1339 338.5 1332 c 128,-1,24
 356 1325 356 1325 369 1305 c 2,25,-1
 977 383 l 1,26,-1
 1034 276 l 1,27,-1
 1034 1298 l 2,28,29
 1034 1339 1034 1339 1110 1339 c 2,30,-1
 1124 1339 l 2,31,32
 1200 1339 1200 1339 1200 1298 c 2,33,-1
 1200 39 l 2,34,35
 1200 -4 1200 -4 1124 -4 c 2,36,-1
 1085 -4 l 2,37,38
 1037 -4 1037 -4 1020 23 c 2,39,-1
 389 973 l 1,40,-1
 338 1071 l 1,41,-1
 338 39 l 2,42,43
 338 -4 338 -4 262 -4 c 2,44,-1
 248 -4 l 2,16,17
EndSplineSet
Substitution2: "'locl' Localized Forms in Latin lookup 14 subtable" Nacute.loclPLK
Substitution2: "'aalt' Access All Alternates lookup 0 subtable" Nacute.loclPLK
Position2: "'cpsp' Capital Spacing lookup 0 subtable" dx=20 dy=0 dh=41 dv=0
EndChar

StartChar: Ncaron
Encoding: 327 327 100
Width: 1372
VWidth: 1908
GlyphClass: 2
Flags: MW
HStem: -4 86G<221 248 248 262 1068 1085 1085 1124> 1257 82G<248 289 289 309 1110 1124 1124 1151> 1448 106<645 686 686 686 686 713>
VStem: 172 166<39 1071> 1034 166<276 1298>
AnchorPoint: "Anchor-1" 688 1335 basechar 0
AnchorPoint: "Anchor-0" 688 0 basechar 0
LayerCount: 2
Back
Fore
SplineSet
664 1448 m 2,0,1
 605 1448 605 1448 575 1491 c 2,2,-1
 469 1659 l 2,3,4
 459 1674 459 1674 459 1694 c 0,5,6
 459 1720 459 1720 502 1720 c 2,7,-1
 506 1720 l 2,8,9
 541 1720 541 1720 571 1696 c 1,10,-1
 686 1554 l 1,11,-1
 807 1696 l 1,12,13
 834 1720 834 1720 870 1720 c 2,14,-1
 874 1720 l 2,15,16
 920 1720 920 1720 920 1692 c 0,17,18
 920 1681 920 1681 909 1659 c 2,19,-1
 799 1491 l 2,20,21
 772 1448 772 1448 713 1448 c 2,22,-1
 664 1448 l 2,0,1
248 -4 m 2,23,24
 172 -4 172 -4 172 39 c 2,25,-1
 172 1298 l 2,26,27
 172 1339 172 1339 248 1339 c 2,28,-1
 289 1339 l 2,29,30
 321 1339 321 1339 338.5 1332 c 128,-1,31
 356 1325 356 1325 369 1305 c 2,32,-1
 977 383 l 1,33,-1
 1034 276 l 1,34,-1
 1034 1298 l 2,35,36
 1034 1339 1034 1339 1110 1339 c 2,37,-1
 1124 1339 l 2,38,39
 1200 1339 1200 1339 1200 1298 c 2,40,-1
 1200 39 l 2,41,42
 1200 -4 1200 -4 1124 -4 c 2,43,-1
 1085 -4 l 2,44,45
 1037 -4 1037 -4 1020 23 c 2,46,-1
 389 973 l 1,47,-1
 338 1071 l 1,48,-1
 338 39 l 2,49,50
 338 -4 338 -4 262 -4 c 2,51,-1
 248 -4 l 2,23,24
EndSplineSet
Position2: "'cpsp' Capital Spacing lookup 0 subtable" dx=20 dy=0 dh=41 dv=0
EndChar

StartChar: Ncommaaccent
Encoding: 325 325 101
Width: 1372
VWidth: 1908
GlyphClass: 2
Flags: MW
HStem: -449 86G<565 607> -4 86G<221 248 248 262 1068 1085 1085 1124> 1257 82G<248 289 289 309 1110 1124 1124 1151>
VStem: 172 166<39 1071> 602 170<-230 -140> 1034 166<276 1298>
AnchorPoint: "Anchor-1" 688 1335 basechar 0
AnchorPoint: "Anchor-0" 680 -389 basechar 0
LayerCount: 2
Back
Fore
SplineSet
248 -4 m 2,0,1
 172 -4 172 -4 172 39 c 2,2,-1
 172 1298 l 2,3,4
 172 1339 172 1339 248 1339 c 2,5,-1
 289 1339 l 2,6,7
 321 1339 321 1339 338.5 1332 c 128,-1,8
 356 1325 356 1325 369 1305 c 2,9,-1
 977 383 l 1,10,-1
 1034 276 l 1,11,-1
 1034 1298 l 2,12,13
 1034 1339 1034 1339 1110 1339 c 2,14,-1
 1124 1339 l 2,15,16
 1200 1339 1200 1339 1200 1298 c 2,17,-1
 1200 39 l 2,18,19
 1200 -4 1200 -4 1124 -4 c 2,20,-1
 1085 -4 l 2,21,22
 1037 -4 1037 -4 1020 23 c 2,23,-1
 389 973 l 1,24,-1
 338 1071 l 1,25,-1
 338 39 l 2,26,27
 338 -4 338 -4 262 -4 c 2,28,-1
 248 -4 l 2,0,1
575 -449 m 0,29,30
 555 -449 555 -449 537.5 -442 c 128,-1,31
 520 -435 520 -435 520 -420 c 128,-1,32
 520 -405 520 -405 540.5 -369 c 128,-1,33
 561 -333 561 -333 581.5 -277 c 128,-1,34
 602 -221 602 -221 602 -158 c 0,35,36
 602 -131 602 -131 621.5 -114.5 c 128,-1,37
 641 -98 641 -98 678 -98 c 2,38,-1
 696 -98 l 2,39,40
 731 -98 731 -98 751.5 -112.5 c 128,-1,41
 772 -127 772 -127 772 -152 c 0,42,43
 772 -216 772 -216 750 -274.5 c 128,-1,44
 728 -333 728 -333 696.5 -369.5 c 128,-1,45
 665 -406 665 -406 632.5 -427.5 c 128,-1,46
 600 -449 600 -449 575 -449 c 0,29,30
EndSplineSet
Position2: "'cpsp' Capital Spacing lookup 0 subtable" dx=20 dy=0 dh=41 dv=0
EndChar

StartChar: uni1E44
Encoding: 7748 7748 102
Width: 1372
VWidth: 1908
GlyphClass: 2
Flags: MW
HStem: -4 86G<221 248 248 262 1068 1085 1085 1124> 1257 82G<248 289 289 309 1110 1124 1124 1151> 1497 139<608 715>
VStem: 172 166<39 1071> 608 160<1538 1636 1526 1649> 1034 166<276 1298>
AnchorPoint: "Anchor-1" 688 1335 basechar 0
AnchorPoint: "Anchor-0" 688 0 basechar 0
LayerCount: 2
Back
Fore
SplineSet
684 1497 m 0,0,1
 608 1497 608 1497 608 1538 c 2,2,-1
 608 1636 l 2,3,4
 608 1677 608 1677 692 1677 c 0,5,6
 768 1677 768 1677 768 1636 c 2,7,-1
 768 1538 l 2,8,9
 768 1497 768 1497 684 1497 c 0,0,1
248 -4 m 2,10,11
 172 -4 172 -4 172 39 c 2,12,-1
 172 1298 l 2,13,14
 172 1339 172 1339 248 1339 c 2,15,-1
 289 1339 l 2,16,17
 321 1339 321 1339 338.5 1332 c 128,-1,18
 356 1325 356 1325 369 1305 c 2,19,-1
 977 383 l 1,20,-1
 1034 276 l 1,21,-1
 1034 1298 l 2,22,23
 1034 1339 1034 1339 1110 1339 c 2,24,-1
 1124 1339 l 2,25,26
 1200 1339 1200 1339 1200 1298 c 2,27,-1
 1200 39 l 2,28,29
 1200 -4 1200 -4 1124 -4 c 2,30,-1
 1085 -4 l 2,31,32
 1037 -4 1037 -4 1020 23 c 2,33,-1
 389 973 l 1,34,-1
 338 1071 l 1,35,-1
 338 39 l 2,36,37
 338 -4 338 -4 262 -4 c 2,38,-1
 248 -4 l 2,10,11
EndSplineSet
Position2: "'cpsp' Capital Spacing lookup 0 subtable" dx=20 dy=0 dh=41 dv=0
EndChar

StartChar: Eng
Encoding: 330 330 103
Width: 1372
VWidth: 1908
GlyphClass: 2
Flags: MW
HStem: -406 139<929 966 910 1002> -4 86G<221 248 248 262> 1257 82G<248 289 289 309 1110 1124 1124 1151>
VStem: 172 166<39 1071> 1034 166<276 1298>
AnchorPoint: "Anchor-1" 1122 999 basechar 0
AnchorPoint: "Anchor-0" 0 0 basechar 0
LayerCount: 2
Back
Fore
SplineSet
1124 1339 m 2,0,1
 1200 1339 1200 1339 1200 1298 c 2,2,-1
 1200 -141 l 2,3,4
 1200 -204 1200 -204 1183.5 -253 c 128,-1,5
 1167 -302 1167 -302 1141.5 -330 c 128,-1,6
 1116 -358 1116 -358 1081.5 -376 c 128,-1,7
 1047 -394 1047 -394 1016.5 -400 c 128,-1,8
 986 -406 986 -406 954 -406 c 0,9,10
 815 -406 815 -406 815 -348 c 0,11,12
 815 -328 815 -328 826.5 -293 c 128,-1,13
 838 -258 838 -258 856 -258 c 0,14,15
 859 -258 859 -258 882.5 -262 c 128,-1,16
 906 -266 906 -266 938 -266 c 0,17,18
 985 -266 985 -266 1012.5 -235.5 c 128,-1,19
 1040 -205 1040 -205 1040 -127 c 2,20,-1
 1040 -8 l 1,21,-1
 389 973 l 1,22,-1
 338 1071 l 1,23,-1
 338 39 l 2,24,25
 338 -4 338 -4 262 -4 c 2,26,-1
 248 -4 l 2,27,28
 172 -4 172 -4 172 39 c 2,29,-1
 172 1298 l 2,30,31
 172 1339 172 1339 248 1339 c 2,32,-1
 289 1339 l 2,33,34
 321 1339 321 1339 338.5 1332 c 128,-1,35
 356 1325 356 1325 369 1305 c 2,36,-1
 977 383 l 1,37,-1
 1034 276 l 1,38,-1
 1034 1298 l 2,39,40
 1034 1339 1034 1339 1110 1339 c 2,41,-1
 1124 1339 l 2,0,1
EndSplineSet
Position2: "'cpsp' Capital Spacing lookup 0 subtable" dx=20 dy=0 dh=41 dv=0
EndChar

StartChar: uni01CB
Encoding: 459 459 104
Width: 1900
VWidth: 1908
GlyphClass: 2
Flags: MW
HStem: -406 139<1453 1490 1435 1527> -4 86G<221 248 248 262 1068 1085 1085 1124> 920 82G<1640 1649 1649 1675> 1239 197<1608 1657 1634 1657> 1257 82G<248 289 289 309 1110 1124 1124 1151>
VStem: 172 166<39 1071> 1034 166<276 1298> 1565 160<-127 961>
AnchorPoint: "Anchor-1" 688 1335 basechar 0
AnchorPoint: "Anchor-0" 688 0 basechar 0
LayerCount: 2
Back
Fore
SplineSet
1634 1239 m 2,0,1
 1556 1239 1556 1239 1556 1280 c 2,2,-1
 1556 1393 l 2,3,4
 1556 1436 1556 1436 1634 1436 c 2,5,-1
 1657 1436 l 2,6,7
 1733 1436 1733 1436 1733 1393 c 2,8,-1
 1733 1280 l 2,9,10
 1733 1239 1733 1239 1657 1239 c 2,11,-1
 1634 1239 l 2,0,1
248 -4 m 2,12,13
 172 -4 172 -4 172 39 c 2,14,-1
 172 1298 l 2,15,16
 172 1339 172 1339 248 1339 c 2,17,-1
 289 1339 l 2,18,19
 321 1339 321 1339 338.5 1332 c 128,-1,20
 356 1325 356 1325 369 1305 c 2,21,-1
 977 383 l 1,22,-1
 1034 276 l 1,23,-1
 1034 1298 l 2,24,25
 1034 1339 1034 1339 1110 1339 c 2,26,-1
 1124 1339 l 2,27,28
 1200 1339 1200 1339 1200 1298 c 2,29,-1
 1200 39 l 2,30,31
 1200 -4 1200 -4 1124 -4 c 2,32,-1
 1085 -4 l 2,33,34
 1037 -4 1037 -4 1020 23 c 2,35,-1
 389 973 l 1,36,-1
 338 1071 l 1,37,-1
 338 39 l 2,38,39
 338 -4 338 -4 262 -4 c 2,40,-1
 248 -4 l 2,12,13
1479 -406 m 0,41,42
 1339 -406 1339 -406 1339 -348 c 0,43,44
 1339 -328 1339 -328 1350.5 -293 c 128,-1,45
 1362 -258 1362 -258 1380 -258 c 0,46,47
 1383 -258 1383 -258 1406.5 -262 c 128,-1,48
 1430 -266 1430 -266 1462 -266 c 0,49,50
 1565 -266 1565 -266 1565 -127 c 2,51,-1
 1565 961 l 2,52,53
 1565 1001 1565 1001 1640 1001 c 2,54,-1
 1649 1001 l 2,55,56
 1724 1001 1724 1001 1724 961 c 2,57,-1
 1724 -141 l 2,58,59
 1724 -219 1724 -219 1700 -274.5 c 128,-1,60
 1676 -330 1676 -330 1636.5 -357 c 128,-1,61
 1597 -384 1597 -384 1558.5 -395 c 128,-1,62
 1520 -406 1520 -406 1479 -406 c 0,41,42
EndSplineSet
Position2: "'cpsp' Capital Spacing lookup 0 subtable" dx=20 dy=0 dh=41 dv=0
EndChar

StartChar: Ntilde
Encoding: 209 209 105
Width: 1372
VWidth: 1908
GlyphClass: 2
Flags: MW
HStem: -4 86G<221 248 248 262 1068 1085 1085 1124> 1257 82G<248 289 289 309 1110 1124 1124 1151> 1466 106<825 888 825 905> 1548 106<513 573>
VStem: 172 166<39 1071> 1034 166<276 1298>
AnchorPoint: "Anchor-1" 688 1335 basechar 0
AnchorPoint: "Anchor-0" 688 0 basechar 0
LayerCount: 2
Back
Fore
SplineSet
395 1468 m 1,0,-1
 375 1475 l 2,1,2
 358 1484 358 1484 358 1499 c 0,3,4
 358 1506 358 1506 365 1524 c 0,5,6
 395 1594 395 1594 437 1624.5 c 128,-1,7
 479 1655 479 1655 541 1655 c 0,8,9
 599 1655 599 1655 713.5 1614 c 128,-1,10
 828 1573 828 1573 870 1573 c 0,11,12
 896 1573 896 1573 915 1585 c 128,-1,13
 934 1597 934 1597 954 1628 c 0,14,15
 974 1657 974 1657 993 1657 c 0,16,17
 999 1657 999 1657 1014 1651 c 2,18,-1
 1026 1645 l 1,19,20
 1049 1639 1049 1639 1049 1622 c 0,21,22
 1049 1616 1049 1616 1042 1595 c 0,23,24
 1010 1526 1010 1526 968 1496 c 128,-1,25
 926 1466 926 1466 866 1466 c 0,26,27
 804 1466 804 1466 687 1507 c 128,-1,28
 570 1548 570 1548 528 1548 c 0,29,30
 505 1548 505 1548 488.5 1535.5 c 128,-1,31
 472 1523 472 1523 451 1491 c 0,32,33
 431 1462 431 1462 414 1462 c 0,34,35
 407 1462 407 1462 395 1468 c 1,0,-1
248 -4 m 2,36,37
 172 -4 172 -4 172 39 c 2,38,-1
 172 1298 l 2,39,40
 172 1339 172 1339 248 1339 c 2,41,-1
 289 1339 l 2,42,43
 321 1339 321 1339 338.5 1332 c 128,-1,44
 356 1325 356 1325 369 1305 c 2,45,-1
 977 383 l 1,46,-1
 1034 276 l 1,47,-1
 1034 1298 l 2,48,49
 1034 1339 1034 1339 1110 1339 c 2,50,-1
 1124 1339 l 2,51,52
 1200 1339 1200 1339 1200 1298 c 2,53,-1
 1200 39 l 2,54,55
 1200 -4 1200 -4 1124 -4 c 2,56,-1
 1085 -4 l 2,57,58
 1037 -4 1037 -4 1020 23 c 2,59,-1
 389 973 l 1,60,-1
 338 1071 l 1,61,-1
 338 39 l 2,62,63
 338 -4 338 -4 262 -4 c 2,64,-1
 248 -4 l 2,36,37
EndSplineSet
Position2: "'cpsp' Capital Spacing lookup 0 subtable" dx=20 dy=0 dh=41 dv=0
EndChar

StartChar: O
Encoding: 79 79 106
Width: 1396
VWidth: 1908
GlyphClass: 2
Flags: MW
HStem: -12 145<562 831 562 889> 1202 145<562 831>
VStem: 109 174<497 848 497 895> 1112 174<497 848>
AnchorPoint: "Anchor-1" 700 1335 basechar 0
AnchorPoint: "Anchor-0" 700 0 basechar 0
LayerCount: 2
Back
Fore
SplineSet
696 -12 m 0,0,1
 410 -12 410 -12 259.5 163 c 128,-1,2
 109 338 109 338 109 672 c 0,3,4
 109 1005 109 1005 259 1176.5 c 128,-1,5
 409 1348 409 1348 696 1348 c 0,6,7
 986 1348 986 1348 1136 1177 c 128,-1,8
 1286 1006 1286 1006 1286 672 c 0,9,10
 1286 337 1286 337 1135.5 162.5 c 128,-1,11
 985 -12 985 -12 696 -12 c 0,0,1
696 133 m 0,12,13
 899 133 899 133 1005.5 271.5 c 128,-1,14
 1112 410 1112 410 1112 672 c 0,15,16
 1112 935 1112 935 1006 1068.5 c 128,-1,17
 900 1202 900 1202 696 1202 c 0,18,19
 494 1202 494 1202 388.5 1068.5 c 128,-1,20
 283 935 283 935 283 672 c 0,21,22
 283 410 283 410 389 271.5 c 128,-1,23
 495 133 495 133 696 133 c 0,12,13
EndSplineSet
Substitution2: "Single Substitution lookup 49 subtable" ordmasculine
Substitution2: "'aalt' Access All Alternates lookup 0 subtable" ordmasculine
Position2: "'cpsp' Capital Spacing lookup 0 subtable" dx=20 dy=0 dh=41 dv=0
EndChar

StartChar: Oacute
Encoding: 211 211 107
Width: 1396
VWidth: 1908
GlyphClass: 2
Flags: MW
HStem: -12 145<562 831 562 889> 1202 145<562 831> 1454 281<650 883>
VStem: 109 174<497 848 497 895> 1112 174<497 848>
AnchorPoint: "Anchor-1" 700 1335 basechar 0
AnchorPoint: "Anchor-0" 700 0 basechar 0
LayerCount: 2
Back
Fore
SplineSet
666 1454 m 0,0,1
 623 1454 623 1454 623 1475 c 0,2,3
 623 1488 623 1488 642.5 1525 c 128,-1,4
 662 1562 662 1562 733 1686 c 0,5,6
 759 1735 759 1735 852 1735 c 0,7,8
 944 1735 944 1735 944 1710 c 0,9,10
 944 1698 944 1698 923 1671.5 c 128,-1,11
 902 1645 902 1645 829 1562 c 0,12,13
 789 1517 789 1517 764 1489 c 0,14,15
 734 1454 734 1454 666 1454 c 0,0,1
696 -12 m 0,16,17
 410 -12 410 -12 259.5 163 c 128,-1,18
 109 338 109 338 109 672 c 0,19,20
 109 1005 109 1005 259 1176.5 c 128,-1,21
 409 1348 409 1348 696 1348 c 0,22,23
 986 1348 986 1348 1136 1177 c 128,-1,24
 1286 1006 1286 1006 1286 672 c 0,25,26
 1286 337 1286 337 1135.5 162.5 c 128,-1,27
 985 -12 985 -12 696 -12 c 0,16,17
696 133 m 0,28,29
 899 133 899 133 1005.5 271.5 c 128,-1,30
 1112 410 1112 410 1112 672 c 0,31,32
 1112 935 1112 935 1006 1068.5 c 128,-1,33
 900 1202 900 1202 696 1202 c 0,34,35
 494 1202 494 1202 388.5 1068.5 c 128,-1,36
 283 935 283 935 283 672 c 0,37,38
 283 410 283 410 389 271.5 c 128,-1,39
 495 133 495 133 696 133 c 0,28,29
EndSplineSet
Substitution2: "'locl' Localized Forms in Latin lookup 14 subtable" Oacute.loclPLK
Substitution2: "'aalt' Access All Alternates lookup 0 subtable" Oacute.loclPLK
Position2: "'cpsp' Capital Spacing lookup 0 subtable" dx=20 dy=0 dh=41 dv=0
EndChar

StartChar: Obreve
Encoding: 334 334 108
Width: 1396
VWidth: 1908
GlyphClass: 2
Flags: MW
HStem: -12 145<562 831 562 889> 1202 145<562 831> 1454 201
VStem: 109 174<497 848 497 895> 422 551<1601 1683> 1112 174<497 848>
AnchorPoint: "Anchor-1" 700 1618 basechar 0
AnchorPoint: "Anchor-0" 700 0 basechar 0
LayerCount: 2
Back
Fore
SplineSet
698 1454 m 0,0,1
 587 1454 587 1454 504.5 1512 c 128,-1,2
 422 1570 422 1570 422 1673 c 0,3,4
 422 1702 422 1702 451 1702 c 0,5,6
 463 1702 463 1702 469.5 1698.5 c 128,-1,7
 476 1695 476 1695 478.5 1690.5 c 128,-1,8
 481 1686 481 1686 485.5 1674.5 c 128,-1,9
 490 1663 490 1663 494 1655 c 0,10,11
 534 1581 534 1581 698 1581 c 0,12,13
 863 1581 863 1581 903 1655 c 0,14,15
 906 1662 906 1662 910.5 1674.5 c 128,-1,16
 915 1687 915 1687 917.5 1691 c 128,-1,17
 920 1695 920 1695 926.5 1698.5 c 128,-1,18
 933 1702 933 1702 944 1702 c 0,19,20
 961 1702 961 1702 967 1695.5 c 128,-1,21
 973 1689 973 1689 973 1673 c 0,22,23
 973 1604 973 1604 931.5 1552.5 c 128,-1,24
 890 1501 890 1501 829 1477.5 c 128,-1,25
 768 1454 768 1454 698 1454 c 0,0,1
696 -12 m 0,26,27
 410 -12 410 -12 259.5 163 c 128,-1,28
 109 338 109 338 109 672 c 0,29,30
 109 1005 109 1005 259 1176.5 c 128,-1,31
 409 1348 409 1348 696 1348 c 0,32,33
 986 1348 986 1348 1136 1177 c 128,-1,34
 1286 1006 1286 1006 1286 672 c 0,35,36
 1286 337 1286 337 1135.5 162.5 c 128,-1,37
 985 -12 985 -12 696 -12 c 0,26,27
696 133 m 0,38,39
 899 133 899 133 1005.5 271.5 c 128,-1,40
 1112 410 1112 410 1112 672 c 0,41,42
 1112 935 1112 935 1006 1068.5 c 128,-1,43
 900 1202 900 1202 696 1202 c 0,44,45
 494 1202 494 1202 388.5 1068.5 c 128,-1,46
 283 935 283 935 283 672 c 0,47,48
 283 410 283 410 389 271.5 c 128,-1,49
 495 133 495 133 696 133 c 0,38,39
EndSplineSet
Position2: "'cpsp' Capital Spacing lookup 0 subtable" dx=20 dy=0 dh=41 dv=0
EndChar

StartChar: Ocircumflex
Encoding: 212 212 109
Width: 1396
VWidth: 1908
GlyphClass: 2
Flags: MW
HStem: -12 145<562 831 562 889> 1202 145<562 831> 1604 104<696 696>
VStem: 109 174<497 848 497 895> 1112 174<497 848>
AnchorPoint: "Anchor-1" 1012 1528 basechar 0
AnchorPoint: "Anchor-0" 700 0 basechar 0
LayerCount: 2
Back
Fore
SplineSet
512 1438 m 2,0,1
 469 1438 469 1438 469 1464 c 0,2,3
 469 1482 469 1482 479 1499 c 2,4,-1
 586 1667 l 2,5,6
 614 1708 614 1708 674 1708 c 2,7,-1
 723 1708 l 2,8,9
 784 1708 784 1708 809 1667 c 2,10,-1
 920 1499 l 2,11,12
 930 1479 930 1479 930 1466 c 0,13,14
 930 1438 930 1438 885 1438 c 2,15,-1
 881 1438 l 2,16,17
 844 1438 844 1438 817 1462 c 1,18,-1
 696 1604 l 1,19,-1
 582 1462 l 1,20,21
 552 1438 552 1438 516 1438 c 2,22,-1
 512 1438 l 2,0,1
696 -12 m 0,23,24
 410 -12 410 -12 259.5 163 c 128,-1,25
 109 338 109 338 109 672 c 0,26,27
 109 1005 109 1005 259 1176.5 c 128,-1,28
 409 1348 409 1348 696 1348 c 0,29,30
 986 1348 986 1348 1136 1177 c 128,-1,31
 1286 1006 1286 1006 1286 672 c 0,32,33
 1286 337 1286 337 1135.5 162.5 c 128,-1,34
 985 -12 985 -12 696 -12 c 0,23,24
696 133 m 0,35,36
 899 133 899 133 1005.5 271.5 c 128,-1,37
 1112 410 1112 410 1112 672 c 0,38,39
 1112 935 1112 935 1006 1068.5 c 128,-1,40
 900 1202 900 1202 696 1202 c 0,41,42
 494 1202 494 1202 388.5 1068.5 c 128,-1,43
 283 935 283 935 283 672 c 0,44,45
 283 410 283 410 389 271.5 c 128,-1,46
 495 133 495 133 696 133 c 0,35,36
EndSplineSet
Position2: "'cpsp' Capital Spacing lookup 0 subtable" dx=20 dy=0 dh=41 dv=0
EndChar

StartChar: uni1ED0
Encoding: 7888 7888 110
Width: 1396
VWidth: 1908
GlyphClass: 2
Flags: MW
HStem: -12 145<562 831 562 889> 1202 145<562 831> 1573 135
VStem: 109 174<497 848 497 895> 1112 174<497 848>
AnchorPoint: "Anchor-1" 967 1581 basechar 0
AnchorPoint: "Anchor-0" 700 0 basechar 0
LayerCount: 2
Back
Fore
SplineSet
948 1573 m 0,0,1
 903 1573 903 1573 903 1591 c 0,2,3
 903 1607 903 1607 971 1737 c 0,4,5
 986 1767 986 1767 995 1784 c 0,6,7
 1023 1835 1023 1835 1098 1835 c 0,8,9
 1130 1835 1130 1835 1143.5 1829 c 128,-1,10
 1157 1823 1157 1823 1157 1808 c 0,11,12
 1157 1798 1157 1798 1142 1775.5 c 128,-1,13
 1127 1753 1127 1753 1079 1690 c 0,14,15
 1067 1675 1067 1675 1060 1665.5 c 128,-1,16
 1053 1656 1053 1656 1040.5 1639.5 c 128,-1,17
 1028 1623 1028 1623 1016 1608 c 0,18,19
 992 1573 992 1573 948 1573 c 0,0,1
518 1438 m 2,20,21
 475 1438 475 1438 475 1464 c 0,22,23
 475 1482 475 1482 485 1499 c 2,24,-1
 592 1667 l 2,25,26
 620 1708 620 1708 680 1708 c 2,27,-1
 729 1708 l 2,28,29
 774 1708 774 1708 797 1667 c 2,30,-1
 897 1499 l 2,31,32
 907 1479 907 1479 907 1466 c 0,33,34
 907 1438 907 1438 862 1438 c 2,35,-1
 858 1438 l 2,36,37
 813 1438 813 1438 795 1462 c 2,38,-1
 702 1604 l 1,39,-1
 588 1462 l 1,40,41
 558 1438 558 1438 522 1438 c 2,42,-1
 518 1438 l 2,20,21
696 -12 m 0,43,44
 410 -12 410 -12 259.5 163 c 128,-1,45
 109 338 109 338 109 672 c 0,46,47
 109 1005 109 1005 259 1176.5 c 128,-1,48
 409 1348 409 1348 696 1348 c 0,49,50
 986 1348 986 1348 1136 1177 c 128,-1,51
 1286 1006 1286 1006 1286 672 c 0,52,53
 1286 337 1286 337 1135.5 162.5 c 128,-1,54
 985 -12 985 -12 696 -12 c 0,43,44
696 133 m 0,55,56
 899 133 899 133 1005.5 271.5 c 128,-1,57
 1112 410 1112 410 1112 672 c 0,58,59
 1112 935 1112 935 1006 1068.5 c 128,-1,60
 900 1202 900 1202 696 1202 c 0,61,62
 494 1202 494 1202 388.5 1068.5 c 128,-1,63
 283 935 283 935 283 672 c 0,64,65
 283 410 283 410 389 271.5 c 128,-1,66
 495 133 495 133 696 133 c 0,55,56
EndSplineSet
Position2: "'cpsp' Capital Spacing lookup 0 subtable" dx=20 dy=0 dh=41 dv=0
EndChar

StartChar: uni1ED8
Encoding: 7896 7896 111
Width: 1396
VWidth: 1908
GlyphClass: 2
Flags: MW
HStem: -334 139<625 731> -12 145<562 831 562 889> 1202 145<562 831> 1604 104<696 696>
VStem: 109 174<497 848 497 895> 625 160<-293 -195 -305 -182> 1112 174<497 848>
AnchorPoint: "Anchor-1" 1012 1528 basechar 0
AnchorPoint: "Anchor-0" 700 -389 basechar 0
LayerCount: 2
Back
Fore
SplineSet
512 1438 m 2,0,1
 469 1438 469 1438 469 1464 c 0,2,3
 469 1482 469 1482 479 1499 c 2,4,-1
 586 1667 l 2,5,6
 614 1708 614 1708 674 1708 c 2,7,-1
 723 1708 l 2,8,9
 784 1708 784 1708 809 1667 c 2,10,-1
 920 1499 l 2,11,12
 930 1479 930 1479 930 1466 c 0,13,14
 930 1438 930 1438 885 1438 c 2,15,-1
 881 1438 l 2,16,17
 844 1438 844 1438 817 1462 c 1,18,-1
 696 1604 l 1,19,-1
 582 1462 l 1,20,21
 552 1438 552 1438 516 1438 c 2,22,-1
 512 1438 l 2,0,1
696 -12 m 0,23,24
 410 -12 410 -12 259.5 163 c 128,-1,25
 109 338 109 338 109 672 c 0,26,27
 109 1005 109 1005 259 1176.5 c 128,-1,28
 409 1348 409 1348 696 1348 c 0,29,30
 986 1348 986 1348 1136 1177 c 128,-1,31
 1286 1006 1286 1006 1286 672 c 0,32,33
 1286 337 1286 337 1135.5 162.5 c 128,-1,34
 985 -12 985 -12 696 -12 c 0,23,24
696 133 m 0,35,36
 899 133 899 133 1005.5 271.5 c 128,-1,37
 1112 410 1112 410 1112 672 c 0,38,39
 1112 935 1112 935 1006 1068.5 c 128,-1,40
 900 1202 900 1202 696 1202 c 0,41,42
 494 1202 494 1202 388.5 1068.5 c 128,-1,43
 283 935 283 935 283 672 c 0,44,45
 283 410 283 410 389 271.5 c 128,-1,46
 495 133 495 133 696 133 c 0,35,36
700 -334 m 0,47,48
 625 -334 625 -334 625 -293 c 2,49,-1
 625 -195 l 2,50,51
 625 -154 625 -154 709 -154 c 0,52,53
 784 -154 784 -154 784 -195 c 2,54,-1
 784 -293 l 2,55,56
 784 -334 784 -334 700 -334 c 0,47,48
EndSplineSet
Position2: "'cpsp' Capital Spacing lookup 0 subtable" dx=20 dy=0 dh=41 dv=0
EndChar

StartChar: uni1ED2
Encoding: 7890 7890 112
Width: 1396
VWidth: 1908
GlyphClass: 2
Flags: MW
HStem: -12 145<562 831 562 889> 1202 145<562 831> 1573 262<855 1021> 1604 104<702 702>
VStem: 109 174<497 848 497 895> 1112 174<497 848>
AnchorPoint: "Anchor-1" 967 1581 basechar 0
AnchorPoint: "Anchor-0" 700 0 basechar 0
LayerCount: 2
Back
Fore
SplineSet
1006 1573 m 0,0,1
 959 1573 959 1573 938 1608 c 0,2,3
 921 1633 921 1633 905 1658 c 128,-1,4
 889 1683 889 1683 878.5 1699 c 128,-1,5
 868 1715 868 1715 858 1730.5 c 128,-1,6
 848 1746 848 1746 842 1755 c 128,-1,7
 836 1764 836 1764 830.5 1772.5 c 128,-1,8
 825 1781 825 1781 822.5 1785.5 c 128,-1,9
 820 1790 820 1790 818 1794.5 c 128,-1,10
 816 1799 816 1799 815.5 1802 c 128,-1,11
 815 1805 815 1805 815 1808 c 0,12,13
 815 1823 815 1823 829 1829 c 128,-1,14
 843 1835 843 1835 883 1835 c 0,15,16
 914 1835 914 1835 940.5 1822.5 c 128,-1,17
 967 1810 967 1810 977 1784 c 0,18,19
 1051 1610 1051 1610 1051 1591 c 0,20,21
 1051 1573 1051 1573 1006 1573 c 0,0,1
518 1438 m 2,22,23
 475 1438 475 1438 475 1464 c 0,24,25
 475 1482 475 1482 485 1499 c 2,26,-1
 592 1667 l 2,27,28
 620 1708 620 1708 680 1708 c 2,29,-1
 729 1708 l 2,30,31
 774 1708 774 1708 797 1667 c 2,32,-1
 897 1499 l 2,33,34
 907 1479 907 1479 907 1466 c 0,35,36
 907 1438 907 1438 862 1438 c 2,37,-1
 858 1438 l 2,38,39
 813 1438 813 1438 795 1462 c 2,40,-1
 702 1604 l 1,41,-1
 588 1462 l 1,42,43
 558 1438 558 1438 522 1438 c 2,44,-1
 518 1438 l 2,22,23
696 -12 m 0,45,46
 410 -12 410 -12 259.5 163 c 128,-1,47
 109 338 109 338 109 672 c 0,48,49
 109 1005 109 1005 259 1176.5 c 128,-1,50
 409 1348 409 1348 696 1348 c 0,51,52
 986 1348 986 1348 1136 1177 c 128,-1,53
 1286 1006 1286 1006 1286 672 c 0,54,55
 1286 337 1286 337 1135.5 162.5 c 128,-1,56
 985 -12 985 -12 696 -12 c 0,45,46
696 133 m 0,57,58
 899 133 899 133 1005.5 271.5 c 128,-1,59
 1112 410 1112 410 1112 672 c 0,60,61
 1112 935 1112 935 1006 1068.5 c 128,-1,62
 900 1202 900 1202 696 1202 c 0,63,64
 494 1202 494 1202 388.5 1068.5 c 128,-1,65
 283 935 283 935 283 672 c 0,66,67
 283 410 283 410 389 271.5 c 128,-1,68
 495 133 495 133 696 133 c 0,57,58
EndSplineSet
Position2: "'cpsp' Capital Spacing lookup 0 subtable" dx=20 dy=0 dh=41 dv=0
EndChar

StartChar: uni1ED4
Encoding: 7892 7892 113
Width: 1396
VWidth: 1908
GlyphClass: 2
Flags: MW
HStem: -12 145<562 831 562 889> 1202 145<562 831> 1604 104<702 702> 1778 92<922 959>
VStem: 109 174<497 848 497 895> 1010 111<1713 1743> 1112 174<497 848>
AnchorPoint: "Anchor-1" 967 1847 basechar 0
AnchorPoint: "Anchor-0" 700 0 basechar 0
LayerCount: 2
Back
Fore
SplineSet
975 1575 m 0,0,1
 946 1575 946 1575 924.5 1587.5 c 128,-1,2
 903 1600 903 1600 903 1614 c 0,3,4
 903 1630 903 1630 952 1655 c 0,5,6
 1010 1686 1010 1686 1010 1726 c 0,7,8
 1010 1750 1010 1750 990 1764 c 128,-1,9
 970 1778 970 1778 940 1778 c 0,10,11
 914 1778 914 1778 894.5 1772 c 128,-1,12
 875 1766 875 1766 865 1759.5 c 128,-1,13
 855 1753 855 1753 852 1753 c 0,14,15
 842 1753 842 1753 824.5 1777 c 128,-1,16
 807 1801 807 1801 807 1815 c 0,17,18
 807 1835 807 1835 855 1852.5 c 128,-1,19
 903 1870 903 1870 954 1870 c 0,20,21
 992 1870 992 1870 1027 1859 c 128,-1,22
 1062 1848 1062 1848 1091 1817 c 128,-1,23
 1120 1786 1120 1786 1120 1739 c 0,24,25
 1120 1673 1120 1673 1053 1618 c 0,26,27
 1035 1601 1035 1601 1009.5 1588 c 128,-1,28
 984 1575 984 1575 975 1575 c 0,0,1
518 1438 m 2,29,30
 475 1438 475 1438 475 1464 c 0,31,32
 475 1482 475 1482 485 1499 c 2,33,-1
 592 1667 l 2,34,35
 620 1708 620 1708 680 1708 c 2,36,-1
 729 1708 l 2,37,38
 774 1708 774 1708 797 1667 c 2,39,-1
 897 1499 l 2,40,41
 907 1479 907 1479 907 1466 c 0,42,43
 907 1438 907 1438 862 1438 c 2,44,-1
 858 1438 l 2,45,46
 813 1438 813 1438 795 1462 c 2,47,-1
 702 1604 l 1,48,-1
 588 1462 l 1,49,50
 558 1438 558 1438 522 1438 c 2,51,-1
 518 1438 l 2,29,30
696 -12 m 0,52,53
 410 -12 410 -12 259.5 163 c 128,-1,54
 109 338 109 338 109 672 c 0,55,56
 109 1005 109 1005 259 1176.5 c 128,-1,57
 409 1348 409 1348 696 1348 c 0,58,59
 986 1348 986 1348 1136 1177 c 128,-1,60
 1286 1006 1286 1006 1286 672 c 0,61,62
 1286 337 1286 337 1135.5 162.5 c 128,-1,63
 985 -12 985 -12 696 -12 c 0,52,53
696 133 m 0,64,65
 899 133 899 133 1005.5 271.5 c 128,-1,66
 1112 410 1112 410 1112 672 c 0,67,68
 1112 935 1112 935 1006 1068.5 c 128,-1,69
 900 1202 900 1202 696 1202 c 0,70,71
 494 1202 494 1202 388.5 1068.5 c 128,-1,72
 283 935 283 935 283 672 c 0,73,74
 283 410 283 410 389 271.5 c 128,-1,75
 495 133 495 133 696 133 c 0,64,65
EndSplineSet
Position2: "'cpsp' Capital Spacing lookup 0 subtable" dx=20 dy=0 dh=41 dv=0
EndChar

StartChar: uni1ED6
Encoding: 7894 7894 114
Width: 1396
VWidth: 1908
GlyphClass: 2
Flags: MW
HStem: -12 145<562 831 562 889> 1202 145<562 831> 1559 104<696 696> 1735 106<817 873 817 889> 1817 106<532 588>
VStem: 109 174<497 848 497 895> 1112 174<497 848>
AnchorPoint: "Anchor-1" 700 1335 basechar 0
AnchorPoint: "Anchor-0" 700 0 basechar 0
LayerCount: 2
Back
Fore
SplineSet
426 1737 m 1,0,-1
 408 1743 l 2,1,2
 391 1752 391 1752 391 1767 c 0,3,4
 391 1777 391 1777 397 1792 c 0,5,6
 424 1862 424 1862 462.5 1892.5 c 128,-1,7
 501 1923 501 1923 557 1923 c 0,8,9
 609 1923 609 1923 714 1882 c 128,-1,10
 819 1841 819 1841 858 1841 c 0,11,12
 881 1841 881 1841 898 1853 c 128,-1,13
 915 1865 915 1865 934 1896 c 0,14,15
 951 1925 951 1925 969 1925 c 0,16,17
 975 1925 975 1925 987 1919 c 2,18,-1
 999 1913 l 1,19,20
 1020 1907 1020 1907 1020 1890 c 0,21,22
 1020 1882 1020 1882 1014 1864 c 0,23,24
 985 1795 985 1795 946.5 1765 c 128,-1,25
 908 1735 908 1735 854 1735 c 0,26,27
 798 1735 798 1735 691.5 1776 c 128,-1,28
 585 1817 585 1817 547 1817 c 0,29,30
 526 1817 526 1817 510 1804 c 128,-1,31
 494 1791 494 1791 475 1759 c 0,32,33
 458 1731 458 1731 442 1731 c 0,34,35
 435 1731 435 1731 426 1737 c 1,0,-1
512 1438 m 2,36,37
 469 1438 469 1438 469 1464 c 0,38,39
 469 1482 469 1482 479 1499 c 2,40,-1
 586 1620 l 1,41,42
 632 1663 632 1663 674 1663 c 2,43,-1
 723 1663 l 2,44,45
 766 1663 766 1663 809 1620 c 2,46,-1
 920 1499 l 1,47,48
 930 1479 930 1479 930 1466 c 0,49,50
 930 1438 930 1438 885 1438 c 2,51,-1
 881 1438 l 2,52,53
 851 1438 851 1438 817 1462 c 2,54,-1
 696 1559 l 1,55,-1
 582 1462 l 2,56,57
 548 1438 548 1438 516 1438 c 2,58,-1
 512 1438 l 2,36,37
696 -12 m 0,59,60
 410 -12 410 -12 259.5 163 c 128,-1,61
 109 338 109 338 109 672 c 0,62,63
 109 1005 109 1005 259 1176.5 c 128,-1,64
 409 1348 409 1348 696 1348 c 0,65,66
 986 1348 986 1348 1136 1177 c 128,-1,67
 1286 1006 1286 1006 1286 672 c 0,68,69
 1286 337 1286 337 1135.5 162.5 c 128,-1,70
 985 -12 985 -12 696 -12 c 0,59,60
696 133 m 0,71,72
 899 133 899 133 1005.5 271.5 c 128,-1,73
 1112 410 1112 410 1112 672 c 0,74,75
 1112 935 1112 935 1006 1068.5 c 128,-1,76
 900 1202 900 1202 696 1202 c 0,77,78
 494 1202 494 1202 388.5 1068.5 c 128,-1,79
 283 935 283 935 283 672 c 0,80,81
 283 410 283 410 389 271.5 c 128,-1,82
 495 133 495 133 696 133 c 0,71,72
EndSplineSet
Position2: "'cpsp' Capital Spacing lookup 0 subtable" dx=20 dy=0 dh=41 dv=0
EndChar

StartChar: Odieresis
Encoding: 214 214 115
Width: 1396
VWidth: 1908
GlyphClass: 2
Flags: MW
HStem: -12 145<562 831 562 889> 1202 145<562 831> 1497 139<481 588>
VStem: 109 174<497 848 497 895> 481 160<1538 1636 1526 1649> 756 160<1538 1636 1526 1649> 1112 174<497 848>
AnchorPoint: "Anchor-1" 700 1335 basechar 0
AnchorPoint: "Anchor-0" 700 0 basechar 0
LayerCount: 2
Back
Fore
SplineSet
557 1497 m 0,0,1
 481 1497 481 1497 481 1538 c 2,2,-1
 481 1636 l 2,3,4
 481 1677 481 1677 565 1677 c 0,5,6
 641 1677 641 1677 641 1636 c 2,7,-1
 641 1538 l 2,8,9
 641 1497 641 1497 557 1497 c 0,0,1
831 1497 m 0,10,11
 756 1497 756 1497 756 1538 c 2,12,-1
 756 1636 l 2,13,14
 756 1677 756 1677 840 1677 c 0,15,16
 915 1677 915 1677 915 1636 c 2,17,-1
 915 1538 l 2,18,19
 915 1497 915 1497 831 1497 c 0,10,11
696 -12 m 0,20,21
 410 -12 410 -12 259.5 163 c 128,-1,22
 109 338 109 338 109 672 c 0,23,24
 109 1005 109 1005 259 1176.5 c 128,-1,25
 409 1348 409 1348 696 1348 c 0,26,27
 986 1348 986 1348 1136 1177 c 128,-1,28
 1286 1006 1286 1006 1286 672 c 0,29,30
 1286 337 1286 337 1135.5 162.5 c 128,-1,31
 985 -12 985 -12 696 -12 c 0,20,21
696 133 m 0,32,33
 899 133 899 133 1005.5 271.5 c 128,-1,34
 1112 410 1112 410 1112 672 c 0,35,36
 1112 935 1112 935 1006 1068.5 c 128,-1,37
 900 1202 900 1202 696 1202 c 0,38,39
 494 1202 494 1202 388.5 1068.5 c 128,-1,40
 283 935 283 935 283 672 c 0,41,42
 283 410 283 410 389 271.5 c 128,-1,43
 495 133 495 133 696 133 c 0,32,33
EndSplineSet
Position2: "'cpsp' Capital Spacing lookup 0 subtable" dx=20 dy=0 dh=41 dv=0
EndChar

StartChar: uni1ECC
Encoding: 7884 7884 116
Width: 1396
VWidth: 1908
GlyphClass: 2
Flags: MW
HStem: -334 139<625 731> -12 145<562 831 562 889> 1202 145<562 831>
VStem: 109 174<497 848 497 895> 625 160<-293 -195 -305 -182> 1112 174<497 848>
AnchorPoint: "Anchor-1" 700 1335 basechar 0
AnchorPoint: "Anchor-0" 700 -389 basechar 0
LayerCount: 2
Back
Fore
SplineSet
696 -12 m 0,0,1
 410 -12 410 -12 259.5 163 c 128,-1,2
 109 338 109 338 109 672 c 0,3,4
 109 1005 109 1005 259 1176.5 c 128,-1,5
 409 1348 409 1348 696 1348 c 0,6,7
 986 1348 986 1348 1136 1177 c 128,-1,8
 1286 1006 1286 1006 1286 672 c 0,9,10
 1286 337 1286 337 1135.5 162.5 c 128,-1,11
 985 -12 985 -12 696 -12 c 0,0,1
696 133 m 0,12,13
 899 133 899 133 1005.5 271.5 c 128,-1,14
 1112 410 1112 410 1112 672 c 0,15,16
 1112 935 1112 935 1006 1068.5 c 128,-1,17
 900 1202 900 1202 696 1202 c 0,18,19
 494 1202 494 1202 388.5 1068.5 c 128,-1,20
 283 935 283 935 283 672 c 0,21,22
 283 410 283 410 389 271.5 c 128,-1,23
 495 133 495 133 696 133 c 0,12,13
700 -334 m 0,24,25
 625 -334 625 -334 625 -293 c 2,26,-1
 625 -195 l 2,27,28
 625 -154 625 -154 709 -154 c 0,29,30
 784 -154 784 -154 784 -195 c 2,31,-1
 784 -293 l 2,32,33
 784 -334 784 -334 700 -334 c 0,24,25
EndSplineSet
Position2: "'cpsp' Capital Spacing lookup 0 subtable" dx=20 dy=0 dh=41 dv=0
EndChar

StartChar: Ograve
Encoding: 210 210 117
Width: 1396
VWidth: 1908
GlyphClass: 2
Flags: MW
HStem: -12 145<562 831 562 889> 1202 145<562 831> 1454 281<535 765>
VStem: 109 174<497 848 497 895> 1112 174<497 848>
AnchorPoint: "Anchor-1" 700 1335 basechar 0
AnchorPoint: "Anchor-0" 700 0 basechar 0
LayerCount: 2
Back
Fore
SplineSet
750 1454 m 0,0,1
 683 1454 683 1454 653 1489 c 0,2,3
 524 1634 524 1634 498.5 1665 c 128,-1,4
 473 1696 473 1696 473 1710 c 0,5,6
 473 1735 473 1735 565 1735 c 0,7,8
 656 1735 656 1735 682 1686 c 0,9,10
 785 1505 785 1505 791 1490 c 0,11,12
 795 1480 795 1480 795 1475 c 0,13,14
 795 1454 795 1454 750 1454 c 0,0,1
696 -12 m 0,15,16
 410 -12 410 -12 259.5 163 c 128,-1,17
 109 338 109 338 109 672 c 0,18,19
 109 1005 109 1005 259 1176.5 c 128,-1,20
 409 1348 409 1348 696 1348 c 0,21,22
 986 1348 986 1348 1136 1177 c 128,-1,23
 1286 1006 1286 1006 1286 672 c 0,24,25
 1286 337 1286 337 1135.5 162.5 c 128,-1,26
 985 -12 985 -12 696 -12 c 0,15,16
696 133 m 0,27,28
 899 133 899 133 1005.5 271.5 c 128,-1,29
 1112 410 1112 410 1112 672 c 0,30,31
 1112 935 1112 935 1006 1068.5 c 128,-1,32
 900 1202 900 1202 696 1202 c 0,33,34
 494 1202 494 1202 388.5 1068.5 c 128,-1,35
 283 935 283 935 283 672 c 0,36,37
 283 410 283 410 389 271.5 c 128,-1,38
 495 133 495 133 696 133 c 0,27,28
EndSplineSet
Position2: "'cpsp' Capital Spacing lookup 0 subtable" dx=20 dy=0 dh=41 dv=0
EndChar

StartChar: uni1ECE
Encoding: 7886 7886 118
Width: 1396
VWidth: 1908
GlyphClass: 2
Flags: MW
HStem: -12 145<562 831 562 889> 1202 145<562 831> 1671 98<679 716>
VStem: 109 174<497 848 497 895> 768 117<1573 1637> 1112 174<497 848>
AnchorPoint: "Anchor-1" 700 1675 basechar 0
AnchorPoint: "Anchor-0" 700 0 basechar 0
LayerCount: 2
Back
Fore
SplineSet
713 1413 m 0,0,1
 697 1413 697 1413 673 1423.5 c 128,-1,2
 649 1434 649 1434 649 1446 c 0,3,4
 649 1464 649 1464 667.5 1483.5 c 128,-1,5
 686 1503 686 1503 708.5 1518.5 c 128,-1,6
 731 1534 731 1534 749.5 1561 c 128,-1,7
 768 1588 768 1588 768 1620 c 0,8,9
 768 1645 768 1645 747.5 1658 c 128,-1,10
 727 1671 727 1671 696 1671 c 0,11,12
 670 1671 670 1671 650.5 1665 c 128,-1,13
 631 1659 631 1659 621 1653 c 128,-1,14
 611 1647 611 1647 608 1647 c 0,15,16
 598 1647 598 1647 580.5 1671.5 c 128,-1,17
 563 1696 563 1696 563 1710 c 0,18,19
 563 1729 563 1729 613 1749 c 128,-1,20
 663 1769 663 1769 713 1769 c 0,21,22
 750 1769 750 1769 786.5 1758 c 128,-1,23
 823 1747 823 1747 854 1714.5 c 128,-1,24
 885 1682 885 1682 885 1634 c 0,25,26
 885 1590 885 1590 861.5 1546.5 c 128,-1,27
 838 1503 838 1503 807.5 1475.5 c 128,-1,28
 777 1448 777 1448 750 1430.5 c 128,-1,29
 723 1413 723 1413 713 1413 c 0,0,1
696 -12 m 0,30,31
 410 -12 410 -12 259.5 163 c 128,-1,32
 109 338 109 338 109 672 c 0,33,34
 109 1005 109 1005 259 1176.5 c 128,-1,35
 409 1348 409 1348 696 1348 c 0,36,37
 986 1348 986 1348 1136 1177 c 128,-1,38
 1286 1006 1286 1006 1286 672 c 0,39,40
 1286 337 1286 337 1135.5 162.5 c 128,-1,41
 985 -12 985 -12 696 -12 c 0,30,31
696 133 m 0,42,43
 899 133 899 133 1005.5 271.5 c 128,-1,44
 1112 410 1112 410 1112 672 c 0,45,46
 1112 935 1112 935 1006 1068.5 c 128,-1,47
 900 1202 900 1202 696 1202 c 0,48,49
 494 1202 494 1202 388.5 1068.5 c 128,-1,50
 283 935 283 935 283 672 c 0,51,52
 283 410 283 410 389 271.5 c 128,-1,53
 495 133 495 133 696 133 c 0,42,43
EndSplineSet
Position2: "'cpsp' Capital Spacing lookup 0 subtable" dx=20 dy=0 dh=41 dv=0
EndChar

StartChar: Ohorn
Encoding: 416 416 119
Width: 1396
VWidth: 1908
GlyphClass: 2
Flags: MW
HStem: -12 145<562 831 562 889> 1202 100 1202 145<562 745 506 831>
VStem: 109 174<497 848 497 895> 1092 117<1351 1439> 1112 174<497 809 449 848>
AnchorPoint: "Anchor-1" 803 1532 basechar 0
AnchorPoint: "Anchor-0" 700 0 basechar 0
LayerCount: 2
Back
Fore
SplineSet
1059 1247 m 1,0,1
 1286 1082 1286 1082 1286 672 c 0,2,3
 1286 337 1286 337 1135.5 162.5 c 128,-1,4
 985 -12 985 -12 696 -12 c 0,5,6
 410 -12 410 -12 259.5 163 c 128,-1,7
 109 338 109 338 109 672 c 0,8,9
 109 1005 109 1005 259 1176.5 c 128,-1,10
 409 1348 409 1348 696 1348 c 0,11,12
 849 1348 849 1348 956 1303 c 1,13,-1
 987 1303 l 2,14,15
 1092 1303 1092 1303 1092 1366 c 0,16,17
 1095 1391 1095 1391 1083.5 1415 c 128,-1,18
 1072 1439 1072 1439 1057 1458.5 c 128,-1,19
 1042 1478 1042 1478 1040 1485 c 0,20,21
 1040 1502 1040 1502 1057 1516 c 2,22,-1
 1104 1546 l 2,23,24
 1113 1552 1113 1552 1126 1552 c 0,25,26
 1157 1552 1157 1552 1182.5 1503.5 c 128,-1,27
 1208 1455 1208 1455 1208 1411 c 0,28,29
 1208 1346 1208 1346 1171 1303 c 128,-1,30
 1134 1260 1134 1260 1059 1247 c 1,0,1
696 133 m 0,31,32
 899 133 899 133 1005.5 271.5 c 128,-1,33
 1112 410 1112 410 1112 672 c 0,34,35
 1112 935 1112 935 1006 1068.5 c 128,-1,36
 900 1202 900 1202 696 1202 c 0,37,38
 494 1202 494 1202 388.5 1068.5 c 128,-1,39
 283 935 283 935 283 672 c 0,40,41
 283 410 283 410 389 271.5 c 128,-1,42
 495 133 495 133 696 133 c 0,31,32
EndSplineSet
Position2: "'cpsp' Capital Spacing lookup 0 subtable" dx=20 dy=0 dh=41 dv=0
EndChar

StartChar: uni1EDA
Encoding: 7898 7898 120
Width: 1396
VWidth: 1908
GlyphClass: 2
Flags: MW
HStem: -12 145<562 831 562 889> 1202 100 1202 145<562 745 506 831> 1454 281<650 883>
VStem: 109 174<497 848 497 895> 1092 117<1351 1439> 1112 174<497 809 449 848>
AnchorPoint: "Anchor-1" 803 1532 basechar 0
AnchorPoint: "Anchor-0" 700 0 basechar 0
LayerCount: 2
Back
Fore
SplineSet
666 1454 m 0,0,1
 623 1454 623 1454 623 1475 c 0,2,3
 623 1488 623 1488 642.5 1525 c 128,-1,4
 662 1562 662 1562 733 1686 c 0,5,6
 759 1735 759 1735 852 1735 c 0,7,8
 944 1735 944 1735 944 1710 c 0,9,10
 944 1698 944 1698 923 1671.5 c 128,-1,11
 902 1645 902 1645 829 1562 c 0,12,13
 789 1517 789 1517 764 1489 c 0,14,15
 734 1454 734 1454 666 1454 c 0,0,1
1059 1247 m 1,16,17
 1286 1082 1286 1082 1286 672 c 0,18,19
 1286 337 1286 337 1135.5 162.5 c 128,-1,20
 985 -12 985 -12 696 -12 c 0,21,22
 410 -12 410 -12 259.5 163 c 128,-1,23
 109 338 109 338 109 672 c 0,24,25
 109 1005 109 1005 259 1176.5 c 128,-1,26
 409 1348 409 1348 696 1348 c 0,27,28
 849 1348 849 1348 956 1303 c 1,29,-1
 987 1303 l 2,30,31
 1092 1303 1092 1303 1092 1366 c 0,32,33
 1095 1391 1095 1391 1083.5 1415 c 128,-1,34
 1072 1439 1072 1439 1057 1458.5 c 128,-1,35
 1042 1478 1042 1478 1040 1485 c 0,36,37
 1040 1502 1040 1502 1057 1516 c 2,38,-1
 1104 1546 l 2,39,40
 1113 1552 1113 1552 1126 1552 c 0,41,42
 1157 1552 1157 1552 1182.5 1503.5 c 128,-1,43
 1208 1455 1208 1455 1208 1411 c 0,44,45
 1208 1346 1208 1346 1171 1303 c 128,-1,46
 1134 1260 1134 1260 1059 1247 c 1,16,17
696 133 m 0,47,48
 899 133 899 133 1005.5 271.5 c 128,-1,49
 1112 410 1112 410 1112 672 c 0,50,51
 1112 935 1112 935 1006 1068.5 c 128,-1,52
 900 1202 900 1202 696 1202 c 0,53,54
 494 1202 494 1202 388.5 1068.5 c 128,-1,55
 283 935 283 935 283 672 c 0,56,57
 283 410 283 410 389 271.5 c 128,-1,58
 495 133 495 133 696 133 c 0,47,48
EndSplineSet
Position2: "'cpsp' Capital Spacing lookup 0 subtable" dx=20 dy=0 dh=41 dv=0
EndChar

StartChar: uni1EE2
Encoding: 7906 7906 121
Width: 1396
VWidth: 1908
GlyphClass: 2
Flags: MW
HStem: -293 139<625 735 678 784> -12 145<562 831 562 889> 1202 100 1202 145<562 745 506 831>
VStem: 109 174<497 848 497 895> 625 160<-293 -195 -305 -182> 1092 117<1351 1439> 1112 174<497 809 449 848>
AnchorPoint: "Anchor-1" 803 1532 basechar 0
AnchorPoint: "Anchor-0" 700 -389 basechar 0
LayerCount: 2
Back
Fore
SplineSet
1059 1247 m 1,0,1
 1286 1082 1286 1082 1286 672 c 0,2,3
 1286 337 1286 337 1135.5 162.5 c 128,-1,4
 985 -12 985 -12 696 -12 c 0,5,6
 410 -12 410 -12 259.5 163 c 128,-1,7
 109 338 109 338 109 672 c 0,8,9
 109 1005 109 1005 259 1176.5 c 128,-1,10
 409 1348 409 1348 696 1348 c 0,11,12
 849 1348 849 1348 956 1303 c 1,13,-1
 987 1303 l 2,14,15
 1092 1303 1092 1303 1092 1366 c 0,16,17
 1095 1391 1095 1391 1083.5 1415 c 128,-1,18
 1072 1439 1072 1439 1057 1458.5 c 128,-1,19
 1042 1478 1042 1478 1040 1485 c 0,20,21
 1040 1502 1040 1502 1057 1516 c 2,22,-1
 1104 1546 l 2,23,24
 1113 1552 1113 1552 1126 1552 c 0,25,26
 1157 1552 1157 1552 1182.5 1503.5 c 128,-1,27
 1208 1455 1208 1455 1208 1411 c 0,28,29
 1208 1346 1208 1346 1171 1303 c 128,-1,30
 1134 1260 1134 1260 1059 1247 c 1,0,1
696 133 m 0,31,32
 899 133 899 133 1005.5 271.5 c 128,-1,33
 1112 410 1112 410 1112 672 c 0,34,35
 1112 935 1112 935 1006 1068.5 c 128,-1,36
 900 1202 900 1202 696 1202 c 0,37,38
 494 1202 494 1202 388.5 1068.5 c 128,-1,39
 283 935 283 935 283 672 c 0,40,41
 283 410 283 410 389 271.5 c 128,-1,42
 495 133 495 133 696 133 c 0,31,32
709 -154 m 0,43,44
 784 -154 784 -154 784 -195 c 2,45,-1
 784 -293 l 2,46,47
 784 -334 784 -334 700 -334 c 0,48,49
 625 -334 625 -334 625 -293 c 2,50,-1
 625 -195 l 2,51,52
 625 -154 625 -154 709 -154 c 0,43,44
EndSplineSet
Position2: "'cpsp' Capital Spacing lookup 0 subtable" dx=20 dy=0 dh=41 dv=0
EndChar

